<svg width="296" height="226" viewBox="0 0 296 226" fill="none" xmlns="http://www.w3.org/2000/svg">
<path d="M262.265 59.3973C258.475 46.442 251.027 34.1906 239.917 24.0043C206.478 -6.65438 152.791 -7.41782 118.373 22.3272C111.034 28.6706 105.18 35.8833 100.814 43.6129C88.3808 65.6208 66.7489 82.1026 41.0846 90.2036C32.2982 92.9772 24.0667 97.6274 17.1407 104.154C-6.31939 126.263 -5.55494 161.922 18.7926 183.218C34.4555 196.918 56.1408 201.55 75.8785 197.118C90.0982 193.925 105.102 195.865 117.551 202.895C126.907 208.179 137.941 211.229 149.757 211.229C165.528 211.229 179.905 205.794 190.759 196.868C202.757 187.001 218.212 181.348 234.371 181.434C234.632 181.435 234.894 181.435 235.156 181.433C268.739 181.229 296.101 156.014 295.972 125.406C295.91 110.798 289.69 97.5135 279.556 87.5968C271.377 79.594 265.357 69.9651 262.265 59.3973Z" fill="#E9FDFF"/>
<path d="M256.812 37.4701C256.812 33.8539 253.881 30.9226 250.265 30.9226H139.996C136.38 30.9226 133.449 33.8539 133.449 37.4701V55.8033H256.812V37.4701Z" fill="#B9F3FF"/>
<path d="M133.449 55.8032V137.463C133.449 141.08 136.38 144.011 139.996 144.011H250.264C253.88 144.011 256.812 141.08 256.812 137.463V55.8032H133.449Z" fill="white"/>
<path d="M149.736 42.7984C150.119 40.4334 148.512 38.2058 146.147 37.823C143.782 37.4402 141.555 39.0471 141.172 41.4121C140.789 43.7771 142.396 46.0047 144.761 46.3875C147.126 46.7703 149.353 45.1635 149.736 42.7984Z" fill="#5297F4"/>
<path d="M145.443 44.0749C143.952 44.0749 142.742 42.8655 142.742 41.3739V27.0514C142.742 25.5598 143.952 24.3503 145.443 24.3503C146.935 24.3503 148.144 25.5598 148.144 27.0514V41.3744C148.144 42.866 146.935 44.0749 145.443 44.0749Z" fill="#96E4FF"/>
<path d="M169.612 42.7977C169.995 40.4327 168.388 38.2051 166.023 37.8223C163.658 37.4395 161.43 39.0463 161.048 41.4114C160.665 43.7764 162.272 46.0039 164.637 46.3868C167.002 46.7696 169.229 45.1627 169.612 42.7977Z" fill="#5297F4"/>
<path d="M165.318 44.0749C163.826 44.0749 162.617 42.8655 162.617 41.3739V27.0514C162.617 25.5598 163.826 24.3503 165.318 24.3503C166.809 24.3503 168.019 25.5598 168.019 27.0514V41.3744C168.019 42.866 166.809 44.0749 165.318 44.0749Z" fill="#96E4FF"/>
<path d="M188.258 45.1793C189.952 43.4853 189.952 40.7388 188.258 39.0448C186.564 37.3508 183.817 37.3508 182.123 39.0448C180.429 40.7388 180.429 43.4853 182.123 45.1793C183.817 46.8733 186.564 46.8733 188.258 45.1793Z" fill="#5297F4"/>
<path d="M185.193 44.0749C183.701 44.0749 182.492 42.8655 182.492 41.3739V27.0514C182.492 25.5598 183.701 24.3503 185.193 24.3503C186.684 24.3503 187.894 25.5598 187.894 27.0514V41.3744C187.894 42.866 186.685 44.0749 185.193 44.0749Z" fill="#96E4FF"/>
<path d="M209.285 43.115C209.834 40.783 208.388 38.4481 206.056 37.8997C203.724 37.3513 201.389 38.7972 200.841 41.1292C200.292 43.4611 201.738 45.7961 204.07 46.3445C206.402 46.8928 208.737 45.447 209.285 43.115Z" fill="#5297F4"/>
<path d="M205.068 44.0749C203.576 44.0749 202.367 42.8655 202.367 41.3739V27.0514C202.367 25.5598 203.576 24.3503 205.068 24.3503C206.559 24.3503 207.769 25.5598 207.769 27.0514V41.3744C207.768 42.866 206.559 44.0749 205.068 44.0749Z" fill="#96E4FF"/>
<path d="M229.165 43.0611C229.692 40.7242 228.225 38.4024 225.888 37.8754C223.551 37.3483 221.229 38.8155 220.702 41.1525C220.175 43.4895 221.643 45.8113 223.98 46.3383C226.317 46.8654 228.638 45.3981 229.165 43.0611Z" fill="#5297F4"/>
<path d="M224.943 44.0749C223.451 44.0749 222.242 42.8655 222.242 41.3739V27.0514C222.242 25.5598 223.451 24.3503 224.943 24.3503C226.434 24.3503 227.644 25.5598 227.644 27.0514V41.3744C227.644 42.866 226.434 44.0749 224.943 44.0749Z" fill="#96E4FF"/>
<path d="M249.115 42.7943C249.498 40.4293 247.891 38.2017 245.526 37.8189C243.161 37.436 240.933 39.0429 240.551 41.4079C240.168 43.7729 241.775 46.0005 244.14 46.3834C246.505 46.7662 248.732 45.1593 249.115 42.7943Z" fill="#5297F4"/>
<path d="M244.817 44.0749C243.326 44.0749 242.116 42.8655 242.116 41.3739V27.0514C242.116 25.5598 243.326 24.3503 244.817 24.3503C246.309 24.3503 247.518 25.5598 247.518 27.0514V41.3744C247.518 42.866 246.309 44.0749 244.817 44.0749Z" fill="#96E4FF"/>
<path d="M203.215 114.758C200.487 114.758 198.067 114.128 195.955 112.866C193.872 111.605 192.229 109.772 191.027 107.366C189.853 104.961 189.267 102.057 189.267 98.6544C189.267 95.2518 189.853 92.3478 191.027 89.9424C192.229 87.5371 193.872 85.7038 195.955 84.4424C198.067 83.1811 200.487 82.5504 203.215 82.5504C205.943 82.5504 208.348 83.1811 210.431 84.4424C212.543 85.7038 214.185 87.5371 215.359 89.9424C216.561 92.3478 217.163 95.2518 217.163 98.6544C217.163 102.057 216.561 104.961 215.359 107.366C214.185 109.772 212.543 111.605 210.431 112.866C208.348 114.128 205.943 114.758 203.215 114.758ZM203.215 106.442C203.889 106.442 204.491 106.208 205.019 105.738C205.547 105.269 205.957 104.462 206.251 103.318C206.573 102.174 206.735 100.62 206.735 98.6544C206.735 96.6598 206.573 95.1051 206.251 93.9904C205.957 92.8464 205.547 92.0398 205.019 91.5704C204.491 91.1011 203.889 90.8664 203.215 90.8664C202.54 90.8664 201.939 91.1011 201.411 91.5704C200.883 92.0398 200.457 92.8464 200.135 93.9904C199.841 95.1051 199.695 96.6598 199.695 98.6544C199.695 100.62 199.841 102.174 200.135 103.318C200.457 104.462 200.883 105.269 201.411 105.738C201.939 106.208 202.54 106.442 203.215 106.442ZM229.906 114.758C227.794 114.758 225.653 114.524 223.482 114.054C221.311 113.585 219.405 112.896 217.762 111.986L221.282 104.33C222.602 105.093 223.981 105.665 225.418 106.046C226.885 106.398 228.263 106.574 229.554 106.574C230.727 106.574 231.681 106.384 232.414 106.002C233.177 105.592 233.558 104.99 233.558 104.198C233.558 103.524 233.279 103.01 232.722 102.658C232.165 102.277 231.226 102.086 229.906 102.086H225.814V95.7064L233.778 87.6104L234.702 91.0864H219.346V83.2544H242.314V89.6344L234.35 97.7304L229.378 94.9144H232.106C235.978 94.9144 238.926 95.7798 240.95 97.5104C242.974 99.2411 243.986 101.47 243.986 104.198C243.986 105.958 243.487 107.645 242.49 109.258C241.522 110.872 239.997 112.192 237.914 113.218C235.861 114.245 233.191 114.758 229.906 114.758Z" fill="#5297F4"/>
<path d="M107.091 181.2H37.2105C32.518 181.2 28.7139 177.396 28.7139 172.703V25.2752C28.7139 20.5827 32.518 16.7786 37.2105 16.7786H107.091C111.784 16.7786 115.588 20.5827 115.588 25.2752V172.703C115.588 177.396 111.784 181.2 107.091 181.2Z" fill="#5DABFF"/>
<path d="M115.991 181.2H46.1109C41.4184 181.2 37.6143 177.396 37.6143 172.703V25.2752C37.6143 20.5827 41.4184 16.7786 46.1109 16.7786H115.991C120.684 16.7786 124.488 20.5827 124.488 25.2752V172.703C124.489 177.396 120.684 181.2 115.991 181.2Z" fill="#5297F4"/>
<path d="M31.5795 37.8435H30.1423V38.3081C29.5195 38.7561 29.1123 39.4853 29.1123 40.3112V57.31C29.1123 58.136 29.5195 58.8652 30.1423 59.3131V59.7778H31.5795C32.9421 59.7778 34.0472 58.6732 34.0472 57.31V40.3112C34.0472 38.9481 32.9421 37.8435 31.5795 37.8435Z" fill="#5297F4"/>
<path d="M30.142 59.7778C28.7794 59.7778 27.6743 58.6732 27.6743 57.31V40.3112C27.6743 38.9486 28.7789 37.8435 30.142 37.8435C31.5046 37.8435 32.6097 38.9481 32.6097 40.3112V57.31C32.6097 58.6727 31.5051 59.7778 30.142 59.7778Z" fill="#6BC5FF"/>
<path d="M31.5795 63.9819H30.1423V64.4465C29.5195 64.8945 29.1123 65.6237 29.1123 66.4496V83.4485C29.1123 84.2744 29.5195 85.0036 30.1423 85.4516V85.9162H31.5795C32.9421 85.9162 34.0472 84.8116 34.0472 83.4485V66.4496C34.0472 65.0865 32.9421 63.9819 31.5795 63.9819Z" fill="#5297F4"/>
<path d="M30.142 85.9157C28.7794 85.9157 27.6743 84.8111 27.6743 83.448V66.4492C27.6743 65.0865 28.7789 63.9814 30.142 63.9814C31.5046 63.9814 32.6097 65.086 32.6097 66.4492V83.448C32.6097 84.8111 31.5051 85.9157 30.142 85.9157Z" fill="#6BC5FF"/>
<path d="M122.895 25.2751C122.895 21.4684 119.798 18.3713 115.991 18.3713H46.1108C42.3041 18.3713 39.207 21.4684 39.207 25.2751V35.0109H122.895V25.2751Z" fill="#96E4FF"/>
<path d="M122.895 35.0115H39.207V161.667H122.895V35.0115Z" fill="#D2FAFF"/>
<path d="M39.207 172.703C39.207 176.51 42.3041 179.607 46.1108 179.607H115.991C119.798 179.607 122.895 176.51 122.895 172.703V161.666H39.207V172.703Z" fill="#96E4FF"/>
<path d="M87.1785 28.1076H68.8574C67.9286 28.1076 67.1758 27.3547 67.1758 26.426C67.1758 25.4972 67.9286 24.7444 68.8574 24.7444H87.1785C88.1072 24.7444 88.8601 25.4972 88.8601 26.426C88.8601 27.3547 88.1072 28.1076 87.1785 28.1076Z" fill="#5DABFF"/>
<path d="M95.5868 26.426C95.5868 27.3547 94.834 28.1076 93.9052 28.1076C92.9765 28.1076 92.2236 27.3547 92.2236 26.426C92.2236 25.4972 92.9765 24.7444 93.9052 24.7444C94.834 24.7444 95.5868 25.4972 95.5868 26.426Z" fill="#5DABFF"/>
<path d="M76.2378 175.64C78.896 178.298 83.206 178.298 85.8642 175.64L81.0513 170.827L76.2378 175.64Z" fill="#D2FAFF"/>
<path d="M76.2378 166.014C73.5796 168.672 73.5796 172.982 76.2378 175.64L81.0507 170.827L76.2378 166.014Z" fill="#6BC5FF"/>
<path d="M76.2378 166.014L81.0508 170.827L85.8637 166.014C83.206 163.355 78.896 163.355 76.2378 166.014Z" fill="#D2FAFF"/>
<path d="M85.8642 175.64C88.5224 172.982 88.5224 168.672 85.8642 166.014L81.0513 170.827L85.8642 175.64Z" fill="#6BC5FF"/>
<path d="M84.9 166.978C87.0255 169.104 87.0255 172.55 84.9 174.676C82.7744 176.802 79.3276 176.802 77.2021 174.676C75.0765 172.55 75.0765 169.104 77.2021 166.978C79.3276 164.852 82.7739 164.852 84.9 166.978Z" fill="#5DABFF"/>
<path d="M115.593 51.9703H46.5089C45.6291 51.9703 44.916 51.2573 44.916 50.3774V43.704C44.916 42.8241 45.6291 42.1111 46.5089 42.1111H115.593C116.473 42.1111 117.186 42.8241 117.186 43.704V50.3774C117.187 51.2568 116.473 51.9703 115.593 51.9703Z" fill="#96E4FF"/>
<path d="M51.7482 65.5064H46.1456C45.4663 65.5064 44.916 64.9556 44.916 64.2763V58.6737C44.916 57.9944 45.4668 57.4436 46.1456 57.4436H51.7482C52.4275 57.4436 52.9783 57.9944 52.9783 58.6737V64.2763C52.9783 64.9556 52.4275 65.5064 51.7482 65.5064Z" fill="#5DABFF"/>
<path d="M62.4499 65.5064H56.8472C56.168 65.5064 55.6177 64.9556 55.6177 64.2763V58.6737C55.6177 57.9944 56.1685 57.4436 56.8472 57.4436H62.4499C63.1291 57.4436 63.6799 57.9944 63.6799 58.6737V64.2763C63.6794 64.9556 63.1286 65.5064 62.4499 65.5064Z" fill="#96E4FF"/>
<path d="M73.1515 65.5064H67.5489C66.8696 65.5064 66.3193 64.9556 66.3193 64.2763V58.6737C66.3193 57.9944 66.8701 57.4436 67.5489 57.4436H73.1515C73.8308 57.4436 74.3816 57.9944 74.3816 58.6737V64.2763C74.3811 64.9556 73.8303 65.5064 73.1515 65.5064Z" fill="#96E4FF"/>
<path d="M83.8527 65.5064H78.2501C77.5708 65.5064 77.02 64.9556 77.02 64.2763V58.6737C77.02 57.9944 77.5708 57.4436 78.2501 57.4436H83.8527C84.532 57.4436 85.0828 57.9944 85.0828 58.6737V64.2763C85.0823 64.9556 84.532 65.5064 83.8527 65.5064Z" fill="#96E4FF"/>
<path d="M94.5539 65.5064H88.9512C88.272 65.5064 87.7217 64.9556 87.7217 64.2763V58.6737C87.7217 57.9944 88.2725 57.4436 88.9512 57.4436H94.5539C95.2332 57.4436 95.7839 57.9944 95.7839 58.6737V64.2763C95.7834 64.9556 95.2332 65.5064 94.5539 65.5064Z" fill="#96E4FF"/>
<path d="M105.255 65.5064H99.6524C98.9731 65.5064 98.4229 64.9556 98.4229 64.2763V58.6737C98.4229 57.9944 98.9736 57.4436 99.6524 57.4436H105.255C105.934 57.4436 106.485 57.9944 106.485 58.6737V64.2763C106.485 64.9556 105.934 65.5064 105.255 65.5064Z" fill="#EBA7AC"/>
<path d="M115.957 65.5064H110.354C109.675 65.5064 109.125 64.9556 109.125 64.2763V58.6737C109.125 57.9944 109.675 57.4436 110.354 57.4436H115.957C116.636 57.4436 117.187 57.9944 117.187 58.6737V64.2763C117.187 64.9556 116.636 65.5064 115.957 65.5064Z" fill="#96E4FF"/>
<path d="M51.7482 77.0904H46.1456C45.4663 77.0904 44.916 76.5396 44.916 75.8603V70.2577C44.916 69.5784 45.4668 69.0276 46.1456 69.0276H51.7482C52.4275 69.0276 52.9783 69.5784 52.9783 70.2577V75.8603C52.9783 76.5396 52.4275 77.0904 51.7482 77.0904Z" fill="#5DABFF"/>
<path d="M62.4499 77.0904H56.8472C56.168 77.0904 55.6177 76.5396 55.6177 75.8603V70.2577C55.6177 69.5784 56.1685 69.0276 56.8472 69.0276H62.4499C63.1291 69.0276 63.6799 69.5784 63.6799 70.2577V75.8603C63.6794 76.5396 63.1286 77.0904 62.4499 77.0904Z" fill="#96E4FF"/>
<path d="M73.1515 77.0904H67.5489C66.8696 77.0904 66.3193 76.5396 66.3193 75.8603V70.2577C66.3193 69.5784 66.8701 69.0276 67.5489 69.0276H73.1515C73.8308 69.0276 74.3816 69.5784 74.3816 70.2577V75.8603C74.3811 76.5396 73.8303 77.0904 73.1515 77.0904Z" fill="#EBA7AC"/>
<path d="M83.8527 77.0904H78.2501C77.5708 77.0904 77.02 76.5396 77.02 75.8603V70.2577C77.02 69.5784 77.5708 69.0276 78.2501 69.0276H83.8527C84.532 69.0276 85.0828 69.5784 85.0828 70.2577V75.8603C85.0823 76.5396 84.532 77.0904 83.8527 77.0904Z" fill="#96E4FF"/>
<path d="M94.5539 77.0904H88.9512C88.272 77.0904 87.7217 76.5396 87.7217 75.8603V70.2577C87.7217 69.5784 88.2725 69.0276 88.9512 69.0276H94.5539C95.2332 69.0276 95.7839 69.5784 95.7839 70.2577V75.8603C95.7834 76.5396 95.2332 77.0904 94.5539 77.0904Z" fill="#96E4FF"/>
<path d="M105.255 77.0904H99.6524C98.9731 77.0904 98.4229 76.5396 98.4229 75.8603V70.2577C98.4229 69.5784 98.9736 69.0276 99.6524 69.0276H105.255C105.934 69.0276 106.485 69.5784 106.485 70.2577V75.8603C106.485 76.5396 105.934 77.0904 105.255 77.0904Z" fill="#96E4FF"/>
<path d="M115.957 77.0904H110.354C109.675 77.0904 109.125 76.5396 109.125 75.8603V70.2577C109.125 69.5784 109.675 69.0276 110.354 69.0276H115.957C116.636 69.0276 117.187 69.5784 117.187 70.2577V75.8603C117.187 76.5396 116.636 77.0904 115.957 77.0904Z" fill="#96E4FF"/>
<path d="M51.7482 88.6741H46.1456C45.4663 88.6741 44.916 88.1233 44.916 87.444V81.8414C44.916 81.1621 45.4668 80.6113 46.1456 80.6113H51.7482C52.4275 80.6113 52.9783 81.1621 52.9783 81.8414V87.444C52.9783 88.1233 52.4275 88.6741 51.7482 88.6741Z" fill="#5DABFF"/>
<path d="M62.4499 88.6741H56.8472C56.168 88.6741 55.6177 88.1233 55.6177 87.444V81.8414C55.6177 81.1621 56.1685 80.6113 56.8472 80.6113H62.4499C63.1291 80.6113 63.6799 81.1621 63.6799 81.8414V87.444C63.6794 88.1233 63.1286 88.6741 62.4499 88.6741Z" fill="#96E4FF"/>
<path d="M73.1515 88.6741H67.5489C66.8696 88.6741 66.3193 88.1233 66.3193 87.444V81.8414C66.3193 81.1621 66.8701 80.6113 67.5489 80.6113H73.1515C73.8308 80.6113 74.3816 81.1621 74.3816 81.8414V87.444C74.3811 88.1233 73.8303 88.6741 73.1515 88.6741Z" fill="#96E4FF"/>
<path d="M83.8527 88.6741H78.2501C77.5708 88.6741 77.02 88.1233 77.02 87.444V81.8414C77.02 81.1621 77.5708 80.6113 78.2501 80.6113H83.8527C84.532 80.6113 85.0828 81.1621 85.0828 81.8414V87.444C85.0823 88.1233 84.532 88.6741 83.8527 88.6741Z" fill="#EBA7AC"/>
<path d="M94.5539 88.6741H88.9512C88.272 88.6741 87.7217 88.1233 87.7217 87.444V81.8414C87.7217 81.1621 88.2725 80.6113 88.9512 80.6113H94.5539C95.2332 80.6113 95.7839 81.1621 95.7839 81.8414V87.444C95.7834 88.1233 95.2332 88.6741 94.5539 88.6741Z" fill="#96E4FF"/>
<path d="M105.255 88.6741H99.6524C98.9731 88.6741 98.4229 88.1233 98.4229 87.444V81.8414C98.4229 81.1621 98.9736 80.6113 99.6524 80.6113H105.255C105.934 80.6113 106.485 81.1621 106.485 81.8414V87.444C106.485 88.1233 105.934 88.6741 105.255 88.6741Z" fill="#96E4FF"/>
<path d="M115.957 88.6741H110.354C109.675 88.6741 109.125 88.1233 109.125 87.444V81.8414C109.125 81.1621 109.675 80.6113 110.354 80.6113H115.957C116.636 80.6113 117.187 81.1621 117.187 81.8414V87.444C117.187 88.1233 116.636 88.6741 115.957 88.6741Z" fill="#96E4FF"/>
<path d="M51.7482 100.258H46.1456C45.4663 100.258 44.916 99.7075 44.916 99.0282V93.4256C44.916 92.7463 45.4668 92.1956 46.1456 92.1956H51.7482C52.4275 92.1956 52.9783 92.7463 52.9783 93.4256V99.0282C52.9783 99.7075 52.4275 100.258 51.7482 100.258Z" fill="#5DABFF"/>
<path d="M62.4499 100.258H56.8472C56.168 100.258 55.6177 99.7075 55.6177 99.0282V93.4256C55.6177 92.7463 56.1685 92.1956 56.8472 92.1956H62.4499C63.1291 92.1956 63.6799 92.7463 63.6799 93.4256V99.0282C63.6794 99.7075 63.1286 100.258 62.4499 100.258Z" fill="#96E4FF"/>
<path d="M73.1515 100.258H67.5489C66.8696 100.258 66.3193 99.7075 66.3193 99.0282V93.4256C66.3193 92.7463 66.8701 92.1956 67.5489 92.1956H73.1515C73.8308 92.1956 74.3816 92.7463 74.3816 93.4256V99.0282C74.3811 99.7075 73.8303 100.258 73.1515 100.258Z" fill="#96E4FF"/>
<path d="M83.8527 100.258H78.2501C77.5708 100.258 77.02 99.7075 77.02 99.0282V93.4256C77.02 92.7463 77.5708 92.1956 78.2501 92.1956H83.8527C84.532 92.1956 85.0828 92.7463 85.0828 93.4256V99.0282C85.0823 99.7075 84.532 100.258 83.8527 100.258Z" fill="#96E4FF"/>
<path d="M94.5539 100.258H88.9512C88.272 100.258 87.7217 99.7075 87.7217 99.0282V93.4256C87.7217 92.7463 88.2725 92.1956 88.9512 92.1956H94.5539C95.2332 92.1956 95.7839 92.7463 95.7839 93.4256V99.0282C95.7834 99.7075 95.2332 100.258 94.5539 100.258Z" fill="#96E4FF"/>
<path d="M105.255 100.258H99.6524C98.9731 100.258 98.4229 99.7075 98.4229 99.0282V93.4256C98.4229 92.7463 98.9736 92.1956 99.6524 92.1956H105.255C105.934 92.1956 106.485 92.7463 106.485 93.4256V99.0282C106.485 99.7075 105.934 100.258 105.255 100.258Z" fill="#96E4FF"/>
<path d="M115.957 100.258H110.354C109.675 100.258 109.125 99.7075 109.125 99.0282V93.4256C109.125 92.7463 109.675 92.1956 110.354 92.1956H115.957C116.636 92.1956 117.187 92.7463 117.187 93.4256V99.0282C117.187 99.7075 116.636 100.258 115.957 100.258Z" fill="#96E4FF"/>
<path d="M51.7482 111.842H46.1456C45.4663 111.842 44.916 111.291 44.916 110.612V105.009C44.916 104.33 45.4668 103.78 46.1456 103.78H51.7482C52.4275 103.78 52.9783 104.331 52.9783 105.009V110.612C52.9783 111.291 52.4275 111.842 51.7482 111.842Z" fill="#5DABFF"/>
<path d="M62.4499 111.842H56.8472C56.168 111.842 55.6177 111.291 55.6177 110.612V105.009C55.6177 104.33 56.1685 103.78 56.8472 103.78H62.4499C63.1291 103.78 63.6799 104.331 63.6799 105.009V110.612C63.6794 111.291 63.1286 111.842 62.4499 111.842Z" fill="#96E4FF"/>
<path d="M73.1515 111.842H67.5489C66.8696 111.842 66.3193 111.291 66.3193 110.612V105.009C66.3193 104.33 66.8701 103.78 67.5489 103.78H73.1515C73.8308 103.78 74.3816 104.331 74.3816 105.009V110.612C74.3811 111.291 73.8303 111.842 73.1515 111.842Z" fill="#96E4FF"/>
<path d="M83.8527 111.842H78.2501C77.5708 111.842 77.02 111.291 77.02 110.612V105.009C77.02 104.33 77.5708 103.78 78.2501 103.78H83.8527C84.532 103.78 85.0828 104.331 85.0828 105.009V110.612C85.0823 111.291 84.532 111.842 83.8527 111.842Z" fill="#96E4FF"/>
<path d="M94.5539 111.842H88.9512C88.272 111.842 87.7217 111.291 87.7217 110.612V105.009C87.7217 104.33 88.2725 103.78 88.9512 103.78H94.5539C95.2332 103.78 95.7839 104.331 95.7839 105.009V110.612C95.7834 111.291 95.2332 111.842 94.5539 111.842Z" fill="#96E4FF"/>
<path d="M105.255 111.842H99.6524C98.9731 111.842 98.4229 111.291 98.4229 110.612V105.009C98.4229 104.33 98.9736 103.78 99.6524 103.78H105.255C105.934 103.78 106.485 104.331 106.485 105.009V110.612C106.485 111.291 105.934 111.842 105.255 111.842Z" fill="#96E4FF"/>
<path d="M115.957 111.842H110.354C109.675 111.842 109.125 111.291 109.125 110.612V105.009C109.125 104.33 109.675 103.78 110.354 103.78H115.957C116.636 103.78 117.187 104.331 117.187 105.009V110.612C117.187 111.291 116.636 111.842 115.957 111.842Z" fill="#EBA7AC"/>
<path d="M77.6478 116.66H44.916V120.112H77.6478V116.66Z" fill="#5DABFF"/>
<path d="M117.186 116.66H104.901V120.112H117.186V116.66Z" fill="#5DABFF"/>
<path d="M117.186 122.635H108.219V126.086H117.186V122.635Z" fill="#5DABFF"/>
<path d="M64.8976 123.298H44.916V126.75H64.8976V123.298Z" fill="#5DABFF"/>
<path d="M285.739 174.587H223.868C222.258 174.587 220.952 173.281 220.952 171.671V132.104C220.952 130.494 222.258 129.188 223.868 129.188H285.739C287.349 129.188 288.655 130.493 288.655 132.104V171.671C288.655 173.281 287.35 174.587 285.739 174.587Z" fill="#D2FAFF"/>
<path d="M247.636 134.126H224.791V136.667H247.636V134.126Z" fill="#96E4FF"/>
<path d="M241.659 138.864H224.791V141.405H241.659V138.864Z" fill="#96E4FF"/>
<path d="M284.519 148.34H224.791V150.881H284.519V148.34Z" fill="#96E4FF"/>
<path d="M284.519 153.078H224.791V155.618H284.519V153.078Z" fill="#96E4FF"/>
<path d="M261.34 157.816H224.791V160.356H261.34V157.816Z" fill="#96E4FF"/>
<path d="M284.519 162.553H224.791V165.094H284.519V162.553Z" fill="#96E4FF"/>
<path d="M239.472 167.291H224.791V169.832H239.472V167.291Z" fill="#96E4FF"/>
<path d="M202.025 194.455L197.62 171.417L179.767 178.014L202.025 194.455Z" fill="#EBA588"/>
<path d="M197.62 171.417L198.079 173.815L185.476 182.231L179.767 178.014L197.62 171.417Z" fill="#422C4F"/>
<path d="M191.779 143.098C189.906 137.297 185.359 132.75 179.558 130.878L158.999 124.243H150.241H141.482L119.69 131.276C114.58 132.925 110.377 136.607 108.069 141.454L95.5669 167.72L114.122 178.013L118.524 168.803L120.079 174.795C121.519 180.349 122.249 186.063 122.249 191.801V223.386H150.24H178.231V183.16L179.315 167.403L179.766 178.013L200.569 170.326L191.779 143.098Z" fill="#6F5EBD"/>
<path d="M118.525 168.804L113.477 149.347C112.829 156.781 113.509 164.271 115.484 171.467L116.129 173.815L118.525 168.804Z" fill="#504099"/>
<path d="M179.315 167.404L181.772 149.832C184.257 155.239 184.619 161.382 182.786 167.043L179.705 176.563L179.315 167.404Z" fill="#504099"/>
<path d="M112.719 177.235L106.808 189.933L122.249 207.992V223.387H116.651L93.2403 201.172C88.8778 197.033 87.6246 190.581 90.1205 185.109L97.5498 168.82L112.719 177.235Z" fill="#F0BF9C"/>
<path d="M97.5495 168.82L112.719 177.235L110.566 181.862L96.9619 170.109L97.5495 168.82Z" fill="#422C4F"/>
<path d="M158.572 144.356H143.227C141.937 144.356 140.933 145.477 141.073 146.76V149.13H141.333L142.519 159.932H159.28L160.47 149.095L160.726 149.13V146.76C160.868 145.478 159.863 144.356 158.572 144.356Z" fill="#422C4F"/>
<path d="M159.28 162.303H142.519L141.073 149.131C140.933 147.848 141.937 146.727 143.227 146.727H158.572C159.863 146.727 160.867 147.848 160.727 149.131L159.28 162.303Z" fill="#454F6B"/>
<path d="M149.802 148.912C149.812 148.307 149.325 147.811 148.719 147.811H143.228C142.916 147.811 142.63 147.939 142.421 148.171C142.213 148.403 142.117 148.702 142.151 149.012L142.649 153.55C142.71 154.099 143.174 154.515 143.726 154.515H148.643C149.234 154.515 149.716 154.041 149.726 153.45L149.802 148.912Z" fill="#422C4F"/>
<path d="M155.955 161.082L141.816 155.893L141.439 152.459L138.951 155.613C137.857 157 138.129 159.018 139.551 160.066L140.381 160.677L139.998 163.359C139.843 164.448 140.242 165.542 141.061 166.276L141.457 170.067C141.574 171.191 142.262 172.177 143.276 172.676L148.891 175.439C151.609 176.776 154.598 177.472 157.628 177.472L183.837 203.815C188.628 208.63 196.631 207.84 200.387 202.18C203.793 197.048 202.191 190.109 196.88 186.99L164.22 167.811L163.791 160.654C163.687 158.926 163.119 157.258 162.145 155.827L160.291 153.101L159.668 158.781C159.471 160.572 157.646 161.703 155.955 161.082Z" fill="#F0BF9C"/>
<path d="M142.75 120.677V130.048C142.75 131.177 146.104 132.091 150.241 132.091C154.378 132.091 157.732 131.177 157.732 130.048V120.677H142.75Z" fill="#F0BF9C"/>
<path d="M142.75 120.677V123.577C144.482 125.818 147.19 127.266 150.241 127.266C153.292 127.266 155.999 125.818 157.732 123.577V120.677H142.75Z" fill="#422C4F"/>
<path d="M132.289 114.624C135.363 113.433 136.889 109.975 135.698 106.901C134.507 103.827 131.05 102.301 127.976 103.492C124.902 104.683 123.375 108.141 124.566 111.215C125.758 114.289 129.215 115.815 132.289 114.624Z" fill="#F0BF9C"/>
<path d="M131.543 112.644C133.529 111.877 134.517 109.644 133.75 107.658C132.982 105.672 130.75 104.685 128.763 105.452C126.777 106.22 125.789 108.452 126.557 110.438C127.324 112.424 129.557 113.412 131.543 112.644Z" fill="#EBA588"/>
<path d="M175.851 111.364C177.122 108.322 175.686 104.826 172.644 103.555C169.602 102.284 166.106 103.72 164.835 106.762C163.564 109.804 165 113.3 168.042 114.571C171.084 115.842 174.58 114.406 175.851 111.364Z" fill="#F0BF9C"/>
<path d="M171.195 112.809C173.271 112.336 174.57 110.269 174.097 108.194C173.624 106.118 171.558 104.819 169.482 105.292C167.406 105.765 166.107 107.831 166.58 109.907C167.053 111.983 169.119 113.282 171.195 112.809Z" fill="#EBA588"/>
<path d="M133.389 112.336C130.874 109.546 129.236 106.078 128.678 102.363L127.217 92.629C126.276 86.3693 129.004 80.1242 134.236 76.5604L142.545 70.8998C146.694 68.0738 152.243 68.4825 155.934 71.8855L158.585 74.3305C163.435 73.2789 168.377 75.671 170.56 80.1277L171.767 82.5914C173.288 85.694 173.794 89.1963 173.215 92.6028L171.577 102.245C170.954 105.908 169.28 109.311 166.757 112.038L166.482 112.335H133.389V112.336Z" fill="#8C404C"/>
<path d="M160.617 90.3271C152.509 96.2084 142.353 99.1866 132.354 98.6661V106.356C132.354 116.235 140.362 124.243 150.241 124.243C160.12 124.243 168.129 116.235 168.129 106.356V98.1858C165.045 96.2729 162.511 93.4298 160.617 90.3271Z" fill="#F0BF9C"/>
<path d="M142.306 99.3521C140.279 99.5939 138.598 100.779 137.636 102.412L147.565 101.228C146.246 99.8666 144.333 99.1102 142.306 99.3521Z" fill="#8C404C"/>
<path d="M144.114 105.329C144.114 106.019 143.371 106.579 142.453 106.579C141.536 106.579 140.793 106.019 140.793 105.329C140.793 104.638 141.536 104.079 142.453 104.079C143.371 104.079 144.114 104.638 144.114 105.329Z" fill="#422C4F"/>
<path d="M158.175 99.3521C160.202 99.5939 161.883 100.779 162.845 102.412L152.917 101.228C154.236 99.8666 156.148 99.1102 158.175 99.3521Z" fill="#8C404C"/>
<path d="M156.367 105.329C156.367 106.019 157.11 106.579 158.028 106.579C158.944 106.579 159.688 106.019 159.688 105.329C159.688 104.638 158.945 104.079 158.028 104.079C157.111 104.079 156.367 104.638 156.367 105.329Z" fill="#422C4F"/>
<path d="M147.709 112.908C148.083 114.129 149.206 115.022 150.55 115.022C151.893 115.022 153.016 114.129 153.39 112.908H147.709Z" fill="#EBA588"/>
<path d="M143.465 116.515C144.399 119.56 147.199 121.788 150.549 121.788C153.9 121.788 156.7 119.56 157.634 116.515H143.465Z" fill="white"/>
<path d="M157.629 84.0701C154.012 84.6093 149.825 85.8162 145.679 87.1284C141.538 88.4572 137.425 89.8954 134.162 91.5483C137.7 92.4448 142.438 92.2039 146.844 90.7864C151.259 89.3935 155.262 86.8482 157.629 84.0701Z" fill="#A64F5A"/>
<path d="M157.14 82.2186C154.434 81.6487 151.096 81.5025 147.771 81.5816C144.446 81.6698 141.12 81.9843 138.445 82.6898C140.922 83.9118 144.384 84.578 147.844 84.4847C151.304 84.4031 154.729 83.5636 157.14 82.2186Z" fill="#A64F5A"/>
<path d="M157.266 81.0923C155.805 79.7866 153.605 78.6483 151.263 77.9635C148.924 77.2736 146.457 77.0423 144.522 77.3507C146.186 78.3888 148.406 79.2686 150.683 79.9393C152.962 80.6065 155.305 81.0661 157.266 81.0923Z" fill="#A64F5A"/>
<path d="M169.618 92.1077C168.889 90.7778 167.749 89.3391 166.509 87.9962C165.266 86.6568 163.92 85.4085 162.65 84.5796C163.064 86.0364 164.053 87.6898 165.341 89.0776C166.625 90.4694 168.197 91.5836 169.618 92.1077Z" fill="#A64F5A"/>
<path d="M169.453 86.9946C168.868 86.0709 167.842 85.1291 166.663 84.4352C165.486 83.7373 164.167 83.2933 163.075 83.2268C163.856 83.9948 164.943 84.7527 166.078 85.4254C167.215 86.0946 168.404 86.6812 169.453 86.9946Z" fill="#A64F5A"/>
<path d="M263.411 225.495H27.6167C27.0347 225.495 26.5625 225.023 26.5625 224.441C26.5625 223.859 27.0342 223.386 27.6167 223.386H263.411C263.993 223.386 264.465 223.858 264.465 224.441C264.465 225.023 263.993 225.495 263.411 225.495Z" fill="#96E4FF"/>
</svg>
