<svg width="268" height="172" viewBox="0 0 268 172" fill="none" xmlns="http://www.w3.org/2000/svg">
<path d="M49.8381 76.2305H60.8314C66.2986 35.3852 101.198 3.85742 143.539 3.85742C186.31 3.85742 221.514 36.0177 226.435 77.4634C247.699 82.3287 263.703 101.422 263.703 124.104C263.703 150.436 242.157 171.98 215.828 171.98H49.8381C23.5086 171.98 1.96338 150.436 1.96338 124.104C1.96338 97.7741 23.5086 76.2305 49.8381 76.2305Z" fill="white"/>
<path d="M171.98 171.848H91.4114C88.6662 171.848 86.4409 169.622 86.4409 166.877V18.0032C86.4409 15.258 88.6662 13.0327 91.4114 13.0327H171.98C174.725 13.0327 176.951 15.258 176.951 18.0032V166.877C176.951 169.622 174.726 171.848 171.98 171.848Z" fill="#3C4D77"/>
<path d="M169.746 156.156H93.6457C92.1509 156.156 90.9395 154.944 90.9395 153.449V26.5109C90.9395 25.0161 92.1509 23.8047 93.6457 23.8047H169.746C171.241 23.8047 172.452 25.0165 172.452 26.5109V153.449C172.452 154.944 171.24 156.156 169.746 156.156Z" fill="#383C56"/>
<path d="M170.578 28.0406V151.917C170.578 152.881 169.797 153.663 168.832 153.663H94.5574C93.5972 153.663 92.8154 152.881 92.8154 151.917V28.0406C92.8154 27.0763 93.5972 26.2986 94.5574 26.2986H168.832C169.769 26.2986 170.531 27.0287 170.574 27.9533C170.578 27.9811 170.578 28.0128 170.578 28.0406Z" fill="white"/>
<path d="M170.574 27.9533V70.2493H92.8154V28.0406C92.8154 27.0763 93.5972 26.2986 94.5574 26.2986H168.832C169.769 26.2986 170.531 27.0287 170.574 27.9533Z" fill="#5D95E8"/>
<path d="M170.574 39.2902L163.249 31.8817C163.836 33.2864 163.559 34.9689 162.416 36.1157C161.027 37.5005 158.845 37.6116 157.329 36.4411L161.777 40.8853C162.4 41.5083 162.717 42.3932 162.59 43.2662C162.015 47.1629 158.729 48.7938 156.599 46.6629L136.27 26.2986H168.832C169.769 26.2986 170.531 27.0287 170.574 27.9533V39.2902Z" fill="white"/>
<path d="M131.884 55.6042C138.637 55.6042 144.111 50.13 144.111 43.3773C144.111 36.6246 138.637 31.1504 131.884 31.1504C125.131 31.1504 119.657 36.6246 119.657 43.3773C119.657 50.13 125.131 55.6042 131.884 55.6042Z" fill="#EBAC3B"/>
<path d="M134.995 39.2248C134.995 40.9434 133.602 42.3366 131.884 42.3366C130.165 42.3366 128.772 40.9434 128.772 39.2248C128.772 37.5062 130.165 36.113 131.884 36.113C133.602 36.113 134.995 37.5062 134.995 39.2248Z" fill="white"/>
<path d="M137.768 49.1466H126C126 45.8975 128.632 43.2595 131.881 43.2595C135.137 43.2599 137.768 45.8975 137.768 49.1466Z" fill="white"/>
<path d="M147.864 60.5536H115.904C115.37 60.5536 114.938 60.121 114.938 59.5873C114.938 59.0536 115.37 58.6211 115.904 58.6211H147.864C148.398 58.6211 148.831 59.0536 148.831 59.5873C148.831 60.121 148.398 60.5536 147.864 60.5536Z" fill="#CBDDFE"/>
<path d="M142.506 64.493H121.262C120.728 64.493 120.296 64.0605 120.296 63.5268C120.296 62.9931 120.728 62.5605 121.262 62.5605H142.506C143.04 62.5605 143.472 62.9931 143.472 63.5268C143.472 64.0605 143.04 64.493 142.506 64.493Z" fill="#CBDDFE"/>
<path d="M103.011 83.1122H97.3516C96.4719 83.1122 95.7588 82.3992 95.7588 81.5194V75.8601C95.7588 74.9804 96.4719 74.2673 97.3516 74.2673H103.011C103.891 74.2673 104.604 74.9804 104.604 75.8601V81.5194C104.604 82.3988 103.891 83.1122 103.011 83.1122Z" fill="#7BA9FA"/>
<path d="M98.7691 78.6892C98.7691 79.0333 98.4906 79.3118 98.1465 79.3118C97.8029 79.3118 97.5239 79.0333 97.5239 78.6892C97.5239 78.3456 97.8025 78.0667 98.1465 78.0667C98.4906 78.067 98.7691 78.3456 98.7691 78.6892Z" fill="white"/>
<path d="M100.804 78.6892C100.804 79.0333 100.525 79.3118 100.181 79.3118C99.8376 79.3118 99.5586 79.0333 99.5586 78.6892C99.5586 78.3456 99.8372 78.0667 100.181 78.0667C100.525 78.067 100.804 78.3456 100.804 78.6892Z" fill="white"/>
<path d="M102.838 78.6892C102.838 79.0333 102.56 79.3118 102.216 79.3118C101.872 79.3118 101.593 79.0333 101.593 78.6892C101.593 78.3456 101.872 78.0667 102.216 78.0667C102.56 78.067 102.838 78.3456 102.838 78.6892Z" fill="white"/>
<path d="M101.386 83.1903V85.1973L103.405 82.7681H101.386V83.1903Z" fill="#7BA9FA"/>
<path d="M166.499 82.5547H108.34C107.713 82.5547 107.205 82.0468 107.205 81.4202V75.9589C107.205 75.3324 107.713 74.8245 108.34 74.8245H166.499C167.125 74.8245 167.633 75.3324 167.633 75.9589V81.4202C167.633 82.0468 167.125 82.5547 166.499 82.5547Z" fill="#CBDDFE"/>
<path d="M166.885 88.5379H156.786C156.373 88.5379 156.038 88.203 156.038 87.7896V85.7186C156.038 85.3051 156.373 84.9702 156.786 84.9702H166.885C167.298 84.9702 167.633 85.3051 167.633 85.7186V87.7896C167.633 88.203 167.298 88.5379 166.885 88.5379Z" fill="#7BA9FA"/>
<path d="M154.663 86.7543C154.663 87.7396 153.865 88.5379 152.88 88.5379C151.894 88.5379 151.096 87.7392 151.096 86.7543C151.096 85.769 151.894 84.9702 152.88 84.9702C153.865 84.9702 154.663 85.769 154.663 86.7543Z" fill="#7BA9FA"/>
<path d="M149.664 86.7543C149.664 87.7396 148.866 88.5379 147.881 88.5379C146.895 88.5379 146.097 87.7392 146.097 86.7543C146.097 85.769 146.895 84.9702 147.881 84.9702C148.866 84.9702 149.664 85.769 149.664 86.7543Z" fill="#7BA9FA"/>
<path d="M167.633 90.8811H95.7588V91.6616H167.633V90.8811Z" fill="#CBDDFE"/>
<path d="M164.339 145.067H99.0522C97.2332 145.067 95.7583 143.592 95.7583 141.773V104.871C95.7583 103.052 97.2328 101.577 99.0522 101.577H164.339C166.158 101.577 167.633 103.052 167.633 104.871V141.773C167.633 143.592 166.159 145.067 164.339 145.067Z" fill="#4361B7"/>
<path d="M162.693 133.213H146.947C145.86 133.213 144.979 132.332 144.979 131.245V107.324C144.979 106.236 145.86 105.355 146.947 105.355H162.693C163.781 105.355 164.662 106.236 164.662 107.324V131.245C164.662 132.332 163.78 133.213 162.693 133.213Z" fill="#5D95E8"/>
<path d="M159.131 123.597C161.512 121.215 161.512 117.354 159.131 114.972C156.749 112.59 152.887 112.59 150.505 114.972C148.124 117.354 148.124 121.215 150.505 123.597C152.887 125.979 156.749 125.979 159.131 123.597Z" fill="#EBAC3B"/>
<path d="M157.339 118.025C157.339 119.416 154.82 123.063 154.82 123.063C154.82 123.063 152.301 119.416 152.301 118.025C152.301 116.634 153.429 115.506 154.82 115.506C156.211 115.506 157.339 116.634 157.339 118.025Z" fill="white"/>
<path d="M156.35 118.015C156.35 118.86 155.665 119.545 154.82 119.545C153.976 119.545 153.291 118.86 153.291 118.015C153.291 117.171 153.976 116.486 154.82 116.486C155.665 116.486 156.35 117.171 156.35 118.015Z" fill="#EBAC3B"/>
<path d="M139.569 133.213H123.823C122.735 133.213 121.854 132.332 121.854 131.245V107.324C121.854 106.236 122.735 105.355 123.823 105.355H139.569C140.656 105.355 141.537 106.236 141.537 107.324V131.245C141.537 132.332 140.656 133.213 139.569 133.213Z" fill="#5D95E8"/>
<path d="M136.007 123.597C138.388 121.215 138.388 117.353 136.007 114.972C133.625 112.59 129.763 112.59 127.381 114.972C125 117.353 125 121.215 127.381 123.597C129.763 125.979 133.625 125.979 136.007 123.597Z" fill="#EBAC3B"/>
<path d="M130.284 120.878V117.692C130.284 117.468 130.519 117.322 130.719 117.421L133.905 118.995C134.128 119.105 134.13 119.422 133.908 119.535L130.722 121.147C130.521 121.248 130.284 121.103 130.284 120.878Z" fill="white"/>
<path d="M111.97 127.047L96.6934 130.864C95.6387 131.127 94.5701 130.486 94.3066 129.431L88.5084 106.223C88.2449 105.168 88.8862 104.1 89.9409 103.836L105.218 100.02C106.272 99.7564 107.341 100.398 107.604 101.452L113.403 124.66C113.667 125.715 113.025 126.784 111.97 127.047Z" fill="#5D95E8"/>
<path d="M106.839 114.058C107.727 117.308 105.812 120.661 102.562 121.549C99.3126 122.436 95.9592 120.521 95.0719 117.271C94.1846 114.022 96.0996 110.668 99.3491 109.781C102.599 108.894 105.952 110.809 106.839 114.058Z" fill="#EBAC3B"/>
<path d="M101.073 118.5L100.33 118.703L99.5605 115.886C99.5046 115.681 99.6256 115.469 99.8308 115.413C100.036 115.357 100.248 115.478 100.304 115.683L101.073 118.5Z" fill="white"/>
<path d="M103.038 117.964L102.296 118.166L100.602 111.964C100.546 111.759 100.667 111.547 100.872 111.491C101.077 111.435 101.289 111.556 101.345 111.761L103.038 117.964Z" fill="white"/>
<path d="M105.003 117.427L104.26 117.63L102.896 112.634C102.84 112.429 102.961 112.217 103.166 112.161C103.371 112.105 103.583 112.226 103.639 112.431L105.003 117.427Z" fill="white"/>
<path d="M99.0987 119.037L98.3555 119.24L96.9912 114.243C96.9353 114.038 97.0559 113.826 97.2615 113.77C97.4666 113.715 97.6785 113.836 97.7344 114.041L99.0987 119.037Z" fill="white"/>
<path d="M117.958 137.255H99.2023C98.9487 137.255 98.7424 137.051 98.7388 136.798C98.7349 136.54 98.9436 136.328 99.2023 136.328H117.958C118.211 136.328 118.418 136.531 118.421 136.784C118.425 137.043 118.217 137.255 117.958 137.255Z" fill="white"/>
<path d="M141.082 137.255H122.326C122.073 137.255 121.866 137.051 121.863 136.798C121.859 136.54 122.068 136.328 122.326 136.328H141.082C141.336 136.328 141.542 136.531 141.545 136.784C141.549 137.043 141.341 137.255 141.082 137.255Z" fill="white"/>
<path d="M164.207 137.298H145.451C145.198 137.298 144.991 137.095 144.988 136.842C144.984 136.583 145.193 136.371 145.451 136.371H164.207C164.461 136.371 164.667 136.575 164.67 136.828C164.674 137.087 164.466 137.298 164.207 137.298Z" fill="white"/>
<path d="M145.995 97.1839H117.397C116.633 97.1839 116.013 96.5641 116.013 95.7998C116.013 95.0356 116.633 94.4158 117.397 94.4158H145.995C146.759 94.4158 147.379 95.0356 147.379 95.7998C147.379 96.5645 146.76 97.1839 145.995 97.1839Z" fill="#CBDDFE"/>
<path d="M103.558 140.667C103.523 140.704 103.489 140.742 103.452 140.778C103.315 140.914 103.178 141.049 103.04 141.185C103.01 141.214 102.979 141.243 102.951 141.273C102.944 141.281 102.938 141.297 102.94 141.307C102.982 141.551 103.026 141.793 103.069 142.036C103.076 142.074 103.082 142.112 103.09 142.156C103.019 142.12 102.955 142.087 102.891 142.054C102.704 141.957 102.517 141.86 102.33 141.762C102.313 141.754 102.3 141.753 102.283 141.762C102.041 141.893 101.798 142.022 101.556 142.151C101.549 142.155 101.542 142.158 101.531 142.163C101.531 142.153 101.53 142.145 101.531 142.138C101.568 141.915 101.605 141.691 101.642 141.468C101.651 141.417 101.659 141.366 101.668 141.316C101.671 141.299 101.665 141.288 101.653 141.278C101.45 141.083 101.248 140.889 101.046 140.694C101.043 140.691 101.04 140.688 101.036 140.682C101.093 140.674 101.147 140.665 101.201 140.657C101.378 140.63 101.555 140.603 101.731 140.576C101.78 140.569 101.83 140.56 101.88 140.555C101.9 140.552 101.911 140.544 101.92 140.526C102.04 140.278 102.16 140.03 102.28 139.782C102.283 139.777 102.286 139.772 102.29 139.765C102.291 139.762 102.292 139.76 102.294 139.757C102.31 139.789 102.324 139.817 102.339 139.845C102.453 140.072 102.566 140.3 102.681 140.527C102.686 140.536 102.699 140.546 102.709 140.548C102.986 140.587 103.262 140.625 103.538 140.663C103.546 140.664 103.553 140.666 103.558 140.667Z" fill="#EBAC3B"/>
<path d="M106.7 140.667C106.665 140.704 106.631 140.742 106.594 140.778C106.457 140.914 106.319 141.049 106.182 141.185C106.152 141.214 106.121 141.243 106.093 141.273C106.085 141.281 106.08 141.297 106.082 141.308C106.124 141.551 106.168 141.794 106.211 142.037C106.218 142.075 106.224 142.113 106.232 142.157C106.161 142.121 106.097 142.088 106.033 142.054C105.846 141.958 105.659 141.861 105.472 141.763C105.455 141.754 105.442 141.754 105.425 141.763C105.183 141.893 104.94 142.022 104.698 142.152C104.691 142.156 104.683 142.159 104.673 142.164C104.673 142.154 104.672 142.146 104.673 142.139C104.71 141.916 104.747 141.692 104.784 141.469C104.793 141.418 104.801 141.367 104.81 141.316C104.813 141.299 104.807 141.289 104.795 141.278C104.592 141.084 104.39 140.889 104.188 140.695C104.185 140.692 104.183 140.689 104.178 140.683C104.235 140.674 104.289 140.666 104.343 140.658C104.52 140.631 104.697 140.604 104.873 140.577C104.923 140.57 104.972 140.561 105.022 140.555C105.043 140.553 105.053 140.545 105.062 140.526C105.182 140.278 105.302 140.03 105.423 139.783C105.426 139.778 105.428 139.772 105.432 139.766C105.434 139.763 105.435 139.761 105.436 139.758C105.452 139.789 105.467 139.818 105.481 139.846C105.595 140.073 105.709 140.3 105.823 140.527C105.828 140.537 105.842 140.547 105.852 140.549C106.128 140.588 106.404 140.625 106.68 140.664C106.688 140.664 106.695 140.666 106.7 140.667Z" fill="#EBAC3B"/>
<path d="M109.841 140.667C109.806 140.704 109.772 140.742 109.736 140.778C109.599 140.914 109.461 141.049 109.324 141.185C109.294 141.214 109.263 141.242 109.235 141.273C109.227 141.281 109.222 141.296 109.224 141.307C109.266 141.55 109.31 141.793 109.353 142.036C109.36 142.074 109.366 142.112 109.374 142.157C109.303 142.12 109.239 142.087 109.175 142.054C108.988 141.957 108.801 141.86 108.614 141.763C108.597 141.754 108.583 141.754 108.566 141.763C108.324 141.893 108.082 142.022 107.839 142.151C107.832 142.155 107.825 142.158 107.814 142.163C107.814 142.154 107.813 142.146 107.814 142.138C107.851 141.915 107.888 141.692 107.926 141.469C107.934 141.417 107.942 141.367 107.951 141.316C107.955 141.299 107.948 141.288 107.936 141.278C107.734 141.083 107.531 140.889 107.329 140.694C107.326 140.691 107.324 140.688 107.319 140.683C107.376 140.674 107.43 140.665 107.484 140.657C107.661 140.63 107.838 140.604 108.014 140.577C108.064 140.569 108.113 140.561 108.163 140.555C108.183 140.552 108.195 140.544 108.203 140.526C108.323 140.278 108.443 140.03 108.564 139.782C108.567 139.777 108.57 139.772 108.574 139.765C108.575 139.763 108.576 139.76 108.578 139.758C108.593 139.789 108.608 139.817 108.622 139.845C108.736 140.073 108.85 140.3 108.964 140.527C108.969 140.537 108.983 140.546 108.993 140.548C109.269 140.587 109.545 140.625 109.822 140.663C109.829 140.663 109.837 140.665 109.841 140.667Z" fill="#EBAC3B"/>
<path d="M112.983 140.667C112.948 140.704 112.914 140.742 112.877 140.778C112.741 140.914 112.603 141.049 112.465 141.185C112.435 141.214 112.404 141.242 112.376 141.273C112.369 141.281 112.363 141.296 112.365 141.307C112.408 141.55 112.451 141.793 112.494 142.036C112.501 142.074 112.508 142.112 112.515 142.157C112.444 142.12 112.38 142.087 112.316 142.054C112.129 141.957 111.942 141.86 111.755 141.763C111.738 141.754 111.725 141.754 111.708 141.763C111.466 141.893 111.223 142.022 110.981 142.151C110.974 142.155 110.966 142.158 110.956 142.163C110.956 142.154 110.955 142.146 110.956 142.138C110.993 141.915 111.03 141.692 111.067 141.469C111.076 141.417 111.083 141.367 111.093 141.316C111.096 141.299 111.089 141.288 111.078 141.278C110.875 141.083 110.673 140.889 110.47 140.694C110.468 140.691 110.465 140.688 110.46 140.683C110.518 140.674 110.572 140.665 110.626 140.657C110.802 140.63 110.979 140.604 111.156 140.577C111.205 140.569 111.255 140.56 111.304 140.555C111.325 140.552 111.336 140.544 111.345 140.526C111.464 140.278 111.585 140.03 111.705 139.782C111.708 139.777 111.711 139.772 111.715 139.765C111.716 139.763 111.718 139.76 111.719 139.758C111.735 139.789 111.749 139.817 111.763 139.845C111.877 140.073 111.991 140.3 112.105 140.527C112.11 140.537 112.123 140.546 112.134 140.548C112.41 140.587 112.686 140.625 112.962 140.663C112.971 140.663 112.978 140.665 112.983 140.667Z" fill="#EBAC3B"/>
<path d="M116.125 140.667C116.09 140.704 116.056 140.742 116.019 140.778C115.882 140.914 115.745 141.049 115.607 141.185C115.577 141.214 115.547 141.242 115.518 141.273C115.51 141.281 115.505 141.296 115.507 141.307C115.549 141.55 115.593 141.793 115.636 142.036C115.643 142.074 115.649 142.112 115.657 142.157C115.586 142.12 115.522 142.087 115.458 142.054C115.271 141.957 115.084 141.86 114.897 141.763C114.88 141.754 114.867 141.754 114.85 141.763C114.608 141.892 114.365 142.022 114.123 142.151C114.116 142.155 114.108 142.158 114.098 142.163C114.098 142.154 114.097 142.146 114.098 142.138C114.135 141.915 114.172 141.692 114.209 141.469C114.218 141.418 114.226 141.367 114.235 141.316C114.238 141.299 114.231 141.288 114.22 141.278C114.018 141.083 113.815 140.889 113.612 140.694C113.61 140.691 113.607 140.688 113.603 140.683C113.66 140.674 113.714 140.665 113.768 140.657C113.945 140.63 114.122 140.604 114.298 140.577C114.347 140.569 114.397 140.56 114.447 140.555C114.467 140.552 114.478 140.544 114.487 140.526C114.606 140.278 114.727 140.03 114.847 139.782C114.85 139.777 114.853 139.772 114.857 139.765C114.858 139.763 114.86 139.76 114.861 139.758C114.877 139.789 114.891 139.817 114.906 139.845C115.02 140.073 115.133 140.3 115.248 140.527C115.252 140.537 115.266 140.546 115.276 140.548C115.552 140.587 115.829 140.625 116.105 140.663C116.113 140.663 116.12 140.665 116.125 140.667Z" fill="#5D95E8"/>
<path d="M126.682 140.667C126.647 140.704 126.613 140.742 126.576 140.778C126.439 140.914 126.302 141.049 126.164 141.185C126.134 141.214 126.103 141.243 126.075 141.273C126.068 141.281 126.062 141.297 126.064 141.307C126.106 141.551 126.15 141.793 126.193 142.036C126.2 142.074 126.206 142.112 126.214 142.156C126.143 142.12 126.079 142.087 126.015 142.054C125.828 141.957 125.641 141.86 125.454 141.762C125.437 141.754 125.424 141.753 125.407 141.762C125.165 141.893 124.922 142.022 124.68 142.151C124.673 142.155 124.666 142.158 124.655 142.163C124.655 142.153 124.654 142.145 124.655 142.138C124.692 141.915 124.729 141.691 124.766 141.468C124.775 141.417 124.783 141.366 124.792 141.316C124.795 141.299 124.789 141.288 124.777 141.278C124.575 141.083 124.372 140.889 124.17 140.694C124.167 140.691 124.164 140.688 124.16 140.682C124.217 140.674 124.271 140.665 124.325 140.657C124.502 140.63 124.679 140.603 124.855 140.576C124.905 140.569 124.954 140.56 125.004 140.555C125.024 140.552 125.035 140.544 125.044 140.526C125.164 140.278 125.284 140.03 125.405 139.782C125.408 139.777 125.41 139.772 125.414 139.765C125.416 139.762 125.417 139.76 125.418 139.757C125.434 139.789 125.449 139.817 125.463 139.845C125.577 140.072 125.691 140.3 125.805 140.527C125.81 140.536 125.823 140.546 125.834 140.548C126.11 140.587 126.386 140.625 126.662 140.663C126.67 140.664 126.677 140.666 126.682 140.667Z" fill="#EBAC3B"/>
<path d="M129.824 140.667C129.789 140.704 129.755 140.742 129.718 140.778C129.581 140.914 129.444 141.049 129.306 141.185C129.277 141.214 129.246 141.243 129.218 141.273C129.21 141.281 129.204 141.297 129.206 141.308C129.249 141.551 129.293 141.794 129.336 142.037C129.343 142.075 129.349 142.113 129.356 142.157C129.286 142.121 129.222 142.088 129.158 142.054C128.971 141.958 128.783 141.861 128.597 141.763C128.579 141.754 128.566 141.754 128.549 141.763C128.307 141.893 128.064 142.022 127.822 142.152C127.815 142.156 127.808 142.159 127.797 142.164C127.797 142.154 127.796 142.146 127.797 142.139C127.834 141.916 127.871 141.692 127.908 141.469C127.917 141.418 127.925 141.367 127.934 141.316C127.937 141.299 127.931 141.289 127.919 141.278C127.716 141.084 127.514 140.889 127.312 140.695C127.309 140.692 127.307 140.689 127.302 140.683C127.359 140.674 127.413 140.666 127.467 140.658C127.644 140.631 127.821 140.604 127.998 140.577C128.047 140.57 128.097 140.561 128.146 140.555C128.167 140.553 128.178 140.545 128.186 140.526C128.306 140.278 128.426 140.03 128.547 139.783C128.55 139.778 128.553 139.772 128.556 139.766C128.558 139.763 128.559 139.761 128.56 139.758C128.576 139.789 128.591 139.818 128.605 139.846C128.719 140.073 128.833 140.3 128.947 140.527C128.952 140.537 128.966 140.547 128.976 140.549C129.252 140.588 129.528 140.625 129.804 140.664C129.812 140.664 129.819 140.666 129.824 140.667Z" fill="#EBAC3B"/>
<path d="M132.965 140.667C132.931 140.704 132.896 140.742 132.86 140.778C132.723 140.914 132.585 141.049 132.448 141.185C132.418 141.214 132.387 141.242 132.359 141.273C132.351 141.281 132.346 141.296 132.348 141.307C132.39 141.55 132.434 141.793 132.477 142.036C132.484 142.074 132.49 142.112 132.498 142.157C132.427 142.12 132.363 142.087 132.299 142.054C132.112 141.957 131.924 141.86 131.738 141.763C131.721 141.754 131.708 141.754 131.691 141.763C131.448 141.893 131.206 142.022 130.964 142.151C130.956 142.155 130.949 142.158 130.939 142.163C130.939 142.154 130.938 142.146 130.939 142.138C130.976 141.915 131.013 141.692 131.05 141.469C131.058 141.417 131.066 141.367 131.076 141.316C131.079 141.299 131.072 141.288 131.061 141.278C130.858 141.083 130.656 140.889 130.453 140.694C130.45 140.691 130.449 140.688 130.443 140.683C130.501 140.674 130.554 140.665 130.609 140.657C130.785 140.63 130.962 140.604 131.139 140.577C131.188 140.569 131.238 140.561 131.287 140.555C131.308 140.552 131.319 140.544 131.327 140.526C131.447 140.278 131.568 140.03 131.688 139.782C131.691 139.777 131.694 139.772 131.697 139.765C131.698 139.763 131.7 139.76 131.701 139.758C131.717 139.789 131.732 139.817 131.746 139.845C131.86 140.073 131.973 140.3 132.088 140.527C132.093 140.537 132.106 140.546 132.117 140.548C132.393 140.587 132.669 140.625 132.945 140.663C132.954 140.663 132.961 140.665 132.965 140.667Z" fill="#EBAC3B"/>
<path d="M136.107 140.667C136.072 140.704 136.038 140.742 136.002 140.778C135.864 140.914 135.727 141.049 135.589 141.185C135.559 141.214 135.529 141.242 135.5 141.273C135.493 141.281 135.487 141.296 135.489 141.307C135.532 141.55 135.575 141.793 135.619 142.036C135.625 142.074 135.632 142.112 135.639 142.157C135.569 142.12 135.505 142.087 135.44 142.054C135.254 141.957 135.066 141.86 134.879 141.763C134.862 141.754 134.849 141.754 134.832 141.763C134.59 141.893 134.348 142.022 134.105 142.151C134.098 142.155 134.091 142.158 134.081 142.163C134.081 142.154 134.079 142.146 134.081 142.138C134.117 141.915 134.154 141.692 134.192 141.469C134.2 141.417 134.208 141.367 134.217 141.316C134.221 141.299 134.214 141.288 134.202 141.278C134 141.083 133.797 140.889 133.595 140.694C133.592 140.691 133.59 140.688 133.585 140.683C133.642 140.674 133.696 140.665 133.75 140.657C133.927 140.63 134.104 140.604 134.281 140.577C134.33 140.569 134.379 140.56 134.429 140.555C134.45 140.552 134.461 140.544 134.469 140.526C134.589 140.278 134.71 140.03 134.83 139.782C134.833 139.777 134.836 139.772 134.84 139.765C134.841 139.763 134.842 139.76 134.844 139.758C134.86 139.789 134.874 139.817 134.888 139.845C135.002 140.073 135.115 140.3 135.23 140.527C135.235 140.537 135.248 140.546 135.259 140.548C135.535 140.587 135.811 140.625 136.087 140.663C136.095 140.663 136.102 140.665 136.107 140.667Z" fill="#5D95E8"/>
<path d="M139.249 140.667C139.214 140.704 139.18 140.742 139.143 140.778C139.006 140.914 138.869 141.049 138.731 141.185C138.701 141.214 138.67 141.242 138.642 141.273C138.634 141.281 138.629 141.296 138.631 141.307C138.673 141.55 138.717 141.793 138.76 142.036C138.767 142.074 138.773 142.112 138.781 142.157C138.71 142.12 138.646 142.087 138.582 142.054C138.395 141.957 138.208 141.86 138.021 141.763C138.004 141.754 137.991 141.754 137.974 141.763C137.732 141.892 137.489 142.022 137.247 142.151C137.24 142.155 137.232 142.158 137.222 142.163C137.222 142.154 137.221 142.146 137.222 142.138C137.259 141.915 137.296 141.692 137.333 141.469C137.342 141.418 137.35 141.367 137.359 141.316C137.362 141.299 137.356 141.288 137.344 141.278C137.141 141.083 136.939 140.889 136.736 140.694C136.734 140.691 136.732 140.688 136.727 140.683C136.784 140.674 136.838 140.665 136.892 140.657C137.069 140.63 137.246 140.604 137.422 140.577C137.472 140.569 137.521 140.56 137.571 140.555C137.591 140.552 137.602 140.544 137.611 140.526C137.73 140.278 137.851 140.03 137.971 139.782C137.974 139.777 137.977 139.772 137.981 139.765C137.982 139.763 137.984 139.76 137.985 139.758C138.001 139.789 138.015 139.817 138.03 139.845C138.144 140.073 138.257 140.3 138.372 140.527C138.376 140.537 138.39 140.546 138.4 140.548C138.676 140.587 138.953 140.625 139.229 140.663C139.237 140.663 139.244 140.665 139.249 140.667Z" fill="#5D95E8"/>
<path d="M149.806 140.667C149.771 140.704 149.737 140.742 149.7 140.778C149.563 140.914 149.426 141.049 149.288 141.185C149.258 141.214 149.227 141.243 149.199 141.273C149.192 141.281 149.186 141.297 149.188 141.307C149.23 141.551 149.274 141.793 149.317 142.036C149.324 142.074 149.33 142.112 149.338 142.156C149.267 142.12 149.203 142.087 149.139 142.054C148.952 141.957 148.765 141.86 148.578 141.762C148.561 141.754 148.548 141.753 148.531 141.762C148.289 141.893 148.046 142.022 147.804 142.151C147.797 142.155 147.789 142.158 147.779 142.163C147.779 142.153 147.778 142.145 147.779 142.138C147.816 141.915 147.853 141.691 147.89 141.468C147.899 141.417 147.907 141.366 147.916 141.316C147.919 141.299 147.913 141.288 147.901 141.278C147.699 141.083 147.496 140.889 147.294 140.694C147.291 140.691 147.288 140.688 147.284 140.682C147.341 140.674 147.395 140.665 147.449 140.657C147.626 140.63 147.803 140.603 147.979 140.576C148.029 140.569 148.078 140.56 148.128 140.555C148.148 140.552 148.159 140.544 148.168 140.526C148.288 140.278 148.408 140.03 148.528 139.782C148.531 139.777 148.534 139.772 148.538 139.765C148.539 139.762 148.541 139.76 148.542 139.757C148.558 139.789 148.573 139.817 148.587 139.845C148.701 140.072 148.814 140.3 148.929 140.527C148.934 140.536 148.947 140.546 148.957 140.548C149.234 140.587 149.51 140.625 149.786 140.663C149.794 140.664 149.801 140.666 149.806 140.667Z" fill="#EBAC3B"/>
<path d="M152.948 140.667C152.913 140.704 152.879 140.742 152.842 140.778C152.705 140.914 152.568 141.049 152.43 141.185C152.4 141.214 152.369 141.243 152.341 141.273C152.334 141.281 152.328 141.297 152.33 141.308C152.373 141.551 152.416 141.794 152.459 142.037C152.466 142.075 152.473 142.113 152.48 142.157C152.409 142.121 152.345 142.088 152.281 142.054C152.094 141.958 151.907 141.861 151.72 141.763C151.703 141.754 151.69 141.754 151.673 141.763C151.431 141.893 151.188 142.022 150.946 142.152C150.939 142.156 150.932 142.159 150.921 142.164C150.921 142.154 150.92 142.146 150.921 142.139C150.958 141.916 150.995 141.692 151.033 141.469C151.041 141.418 151.049 141.367 151.058 141.316C151.061 141.299 151.055 141.289 151.043 141.278C150.84 141.084 150.638 140.889 150.436 140.695C150.433 140.692 150.431 140.689 150.426 140.683C150.483 140.674 150.537 140.666 150.591 140.658C150.768 140.631 150.945 140.604 151.121 140.577C151.171 140.57 151.22 140.561 151.27 140.555C151.29 140.553 151.301 140.545 151.31 140.526C151.43 140.278 151.55 140.03 151.671 139.783C151.674 139.778 151.677 139.772 151.68 139.766C151.682 139.763 151.683 139.761 151.684 139.758C151.7 139.789 151.715 139.818 151.729 139.846C151.843 140.073 151.957 140.3 152.071 140.527C152.076 140.537 152.09 140.547 152.1 140.549C152.376 140.588 152.652 140.625 152.928 140.664C152.936 140.664 152.943 140.666 152.948 140.667Z" fill="#EBAC3B"/>
<path d="M155.483 141.273C155.474 141.282 155.47 141.296 155.47 141.309C155.514 141.55 155.559 141.795 155.599 142.036C155.608 142.076 155.613 142.112 155.621 142.156C155.55 142.121 155.488 142.085 155.421 142.054C155.233 141.956 155.046 141.862 154.863 141.764C154.85 141.755 154.841 141.755 154.827 141.76C154.823 141.76 154.819 141.764 154.814 141.764C154.573 141.894 154.328 142.023 154.087 142.152C154.078 142.157 154.073 142.157 154.06 142.166V142.139C154.1 141.916 154.136 141.693 154.172 141.47C154.181 141.417 154.19 141.368 154.199 141.314C154.203 141.301 154.194 141.288 154.185 141.279C153.98 141.083 153.779 140.891 153.579 140.695C153.575 140.69 153.57 140.69 153.565 140.681C153.623 140.672 153.677 140.668 153.73 140.659C153.909 140.632 154.087 140.605 154.261 140.579C154.31 140.57 154.364 140.561 154.413 140.556C154.43 140.552 154.444 140.543 154.453 140.525C154.573 140.28 154.694 140.03 154.814 139.785C154.814 139.776 154.818 139.771 154.823 139.767C154.823 139.762 154.823 139.762 154.827 139.758C154.84 139.789 154.854 139.816 154.871 139.847C154.983 140.075 155.099 140.302 155.21 140.525C155.215 140.539 155.228 140.547 155.242 140.547C155.518 140.587 155.795 140.627 156.071 140.663C156.075 140.663 156.084 140.668 156.089 140.668C156.053 140.703 156.017 140.743 155.982 140.779C155.844 140.913 155.709 141.051 155.571 141.185C155.541 141.215 155.51 141.242 155.483 141.273Z" fill="#5D95E8"/>
<path d="M159.232 140.667C159.197 140.704 159.163 140.742 159.126 140.778C158.989 140.914 158.851 141.049 158.714 141.185C158.684 141.214 158.653 141.242 158.625 141.273C158.617 141.281 158.612 141.296 158.614 141.307C158.656 141.55 158.7 141.793 158.743 142.036C158.75 142.074 158.756 142.112 158.764 142.157C158.693 142.12 158.629 142.087 158.565 142.054C158.378 141.957 158.19 141.86 158.004 141.763C157.987 141.754 157.974 141.754 157.957 141.763C157.714 141.893 157.472 142.022 157.23 142.151C157.223 142.155 157.215 142.158 157.205 142.163C157.205 142.154 157.204 142.146 157.205 142.138C157.242 141.915 157.279 141.692 157.316 141.469C157.325 141.417 157.332 141.367 157.342 141.316C157.345 141.299 157.338 141.288 157.327 141.278C157.124 141.083 156.922 140.889 156.719 140.694C156.717 140.691 156.714 140.688 156.709 140.683C156.767 140.674 156.821 140.665 156.875 140.657C157.052 140.63 157.228 140.604 157.405 140.577C157.454 140.569 157.504 140.56 157.553 140.555C157.574 140.552 157.585 140.544 157.594 140.526C157.713 140.278 157.834 140.03 157.954 139.782C157.957 139.777 157.96 139.772 157.964 139.765C157.965 139.763 157.967 139.76 157.968 139.758C157.984 139.789 157.998 139.817 158.013 139.845C158.126 140.073 158.24 140.3 158.355 140.527C158.359 140.537 158.373 140.546 158.383 140.548C158.659 140.587 158.936 140.625 159.212 140.663C159.22 140.663 159.226 140.665 159.232 140.667Z" fill="#5D95E8"/>
<path d="M162.373 140.667C162.338 140.704 162.304 140.742 162.267 140.778C162.13 140.914 161.993 141.049 161.855 141.185C161.825 141.214 161.795 141.242 161.766 141.273C161.758 141.281 161.753 141.296 161.755 141.307C161.797 141.55 161.841 141.793 161.884 142.036C161.891 142.074 161.897 142.112 161.905 142.157C161.834 142.12 161.77 142.087 161.706 142.054C161.519 141.957 161.332 141.86 161.145 141.763C161.128 141.754 161.115 141.754 161.098 141.763C160.856 141.892 160.613 142.022 160.371 142.151C160.364 142.155 160.357 142.158 160.346 142.163C160.346 142.154 160.345 142.146 160.346 142.138C160.383 141.915 160.42 141.692 160.457 141.469C160.466 141.418 160.474 141.367 160.483 141.316C160.486 141.299 160.48 141.288 160.468 141.278C160.265 141.083 160.063 140.889 159.861 140.694C159.858 140.691 159.855 140.688 159.851 140.683C159.908 140.674 159.962 140.665 160.016 140.657C160.193 140.63 160.37 140.604 160.546 140.577C160.596 140.569 160.645 140.56 160.695 140.555C160.715 140.552 160.726 140.544 160.735 140.526C160.855 140.278 160.975 140.03 161.095 139.782C161.098 139.777 161.101 139.772 161.105 139.765C161.106 139.763 161.108 139.76 161.109 139.758C161.125 139.789 161.139 139.817 161.154 139.845C161.268 140.073 161.381 140.3 161.496 140.527C161.501 140.537 161.514 140.546 161.524 140.548C161.801 140.587 162.077 140.625 162.353 140.663C162.361 140.663 162.368 140.665 162.373 140.667Z" fill="#5D95E8"/>
<path d="M145.075 19.4251H118.317C117.865 19.4251 117.5 19.0588 117.5 18.6076C117.5 18.1561 117.865 17.7898 118.317 17.7898H145.075C145.526 17.7898 145.892 18.1561 145.892 18.6076C145.892 19.0588 145.526 19.4251 145.075 19.4251Z" fill="#383C56"/>
<path d="M136.372 163.647C136.372 166.23 134.278 168.323 131.696 168.323C129.114 168.323 127.02 166.23 127.02 163.647C127.02 161.065 129.114 158.971 131.696 158.971C134.278 158.971 136.372 161.065 136.372 163.647Z" fill="white"/>
<path d="M135.474 163.647C135.474 165.734 133.783 167.425 131.696 167.425C129.61 167.425 127.918 165.734 127.918 163.647C127.918 161.561 129.61 159.87 131.696 159.87C133.782 159.87 135.474 161.561 135.474 163.647Z" fill="#384870"/>
<path d="M151.095 32.0435V31.0515" stroke="#EBAC3B" stroke-miterlimit="10"/>
<path d="M151.095 29.1255V21.6306C151.095 21.6306 152.242 16.5244 156.201 16.5244C159.63 16.5244 189.739 16.6831 197.753 16.726" stroke="#EBAC3B" stroke-miterlimit="10" stroke-dasharray="4.85 4.85"/>
<path d="M198.714 16.731C199.354 16.7345 199.705 16.7361 199.705 16.7361" stroke="#EBAC3B" stroke-miterlimit="10"/>
<path d="M151.095 34.2499C152.313 34.2499 153.301 33.2622 153.301 32.0437C153.301 30.8252 152.313 29.8374 151.095 29.8374C149.876 29.8374 148.889 30.8252 148.889 32.0437C148.889 33.2622 149.876 34.2499 151.095 34.2499Z" fill="#EBAC3B"/>
<path d="M246.915 6.92263V25.8715C246.915 29.2801 244.156 32.0439 240.747 32.0439H196.441C193.032 32.0439 190.273 29.2801 190.273 25.8715V6.92263C190.273 3.51363 193.032 0.750244 196.441 0.750244H240.747C244.156 0.750244 246.915 3.51363 246.915 6.92263Z" fill="#5D95E8"/>
<path d="M246.915 21.012V25.8717C246.915 29.2803 244.156 32.0441 240.747 32.0441H196.441C193.032 32.0441 190.273 29.2803 190.273 25.8717V21.012H246.915Z" fill="#4361B7"/>
<path d="M223.992 28.8102H213.196C211.872 28.8102 210.797 27.736 210.797 26.4111C210.797 25.0861 211.872 24.012 213.196 24.012H223.992C225.317 24.012 226.392 25.0861 226.392 26.4111C226.392 27.736 225.317 28.8102 223.992 28.8102Z" fill="#EBAC3B"/>
<path d="M208.173 25.5227V22.5103L217.293 10.2399H221.991L213.064 22.5103L210.881 21.8747H226.109V25.5227H208.173ZM218.591 29.5852V25.5227L218.73 21.8747V18.2544H222.958V29.5852H218.591ZM216.685 63.9168C215.1 63.9168 213.681 63.5299 212.429 62.7561C211.176 61.9639 210.19 60.8216 209.472 59.3292C208.753 57.8369 208.394 56.0313 208.394 53.9125C208.394 51.7938 208.753 49.9882 209.472 48.4958C210.19 47.0035 211.176 45.8704 212.429 45.0966C213.681 44.3043 215.1 43.9082 216.685 43.9082C218.287 43.9082 219.706 44.3043 220.941 45.0966C222.193 45.8704 223.179 47.0035 223.898 48.4958C224.616 49.9882 224.975 51.7938 224.975 53.9125C224.975 56.0313 224.616 57.8369 223.898 59.3292C223.179 60.8216 222.193 61.9639 220.941 62.7561C219.706 63.5299 218.287 63.9168 216.685 63.9168ZM216.685 60.1307C217.44 60.1307 218.094 59.9188 218.647 59.495C219.218 59.0713 219.66 58.3988 219.973 57.4776C220.305 56.5564 220.471 55.368 220.471 53.9125C220.471 52.457 220.305 51.2687 219.973 50.3475C219.66 49.4263 219.218 48.7538 218.647 48.33C218.094 47.9063 217.44 47.6944 216.685 47.6944C215.948 47.6944 215.294 47.9063 214.722 48.33C214.17 48.7538 213.728 49.4263 213.396 50.3475C213.083 51.2687 212.926 52.457 212.926 53.9125C212.926 55.368 213.083 56.5564 213.396 57.4776C213.728 58.3988 214.17 59.0713 214.722 59.495C215.294 59.9188 215.948 60.1307 216.685 60.1307ZM208.173 93.5227V90.5103L217.293 78.2399H221.991L213.064 90.5103L210.881 89.8747H226.109V93.5227H208.173ZM218.591 97.5852V93.5227L218.73 89.8747V86.2544H222.958V97.5852H218.591Z" fill="white"/>
<path d="M230.316 18.6882H206.872C206.24 18.6882 205.727 18.1755 205.727 17.5426C205.727 16.91 206.239 16.397 206.872 16.397H230.316C230.948 16.397 231.461 16.9097 231.461 17.5426C231.461 18.1751 230.948 18.6882 230.316 18.6882Z" fill="#CBDDFE"/>
<path d="M240.776 140.473V141.465" stroke="#EBAC3B" stroke-miterlimit="10"/>
<path d="M240.776 143.427V157.294C240.776 157.294 240.792 163.677 233.728 163.677H162.624C160.053 163.677 157.97 161.594 157.97 159.024V153.086" stroke="#EBAC3B" stroke-miterlimit="10" stroke-dasharray="4.94 4.94"/>
<path d="M157.97 152.105V151.113" stroke="#EBAC3B" stroke-miterlimit="10"/>
<path d="M157.97 151.558C159.188 151.558 160.176 150.57 160.176 149.352C160.176 148.133 159.188 147.145 157.97 147.145C156.751 147.145 155.764 148.133 155.764 149.352C155.764 150.57 156.751 151.558 157.97 151.558Z" fill="#EBAC3B"/>
<path d="M267.409 83.3146V136.436C267.409 139.225 265.343 141.534 262.656 141.908C262.405 141.945 262.146 141.962 261.884 141.962H220.2C219.937 141.962 219.678 141.945 219.428 141.908C216.741 141.534 214.674 139.225 214.674 136.436V83.3146C214.674 80.262 217.148 77.7891 220.2 77.7891H261.883C264.936 77.7891 267.409 80.262 267.409 83.3146Z" fill="#5D95E8"/>
<path d="M267.409 111.732V136.436C267.409 139.225 265.343 141.534 262.656 141.908H219.428C216.741 141.534 214.674 139.225 214.674 136.436V111.732H267.409Z" fill="#4361B7"/>
<path d="M263.098 109.875H253.195C252.635 109.875 252.181 109.421 252.181 108.861V89.778C252.181 89.2181 252.635 88.7642 253.195 88.7642H263.098C263.658 88.7642 264.112 89.2181 264.112 89.778V108.861C264.112 109.421 263.658 109.875 263.098 109.875Z" fill="#4361B7"/>
<path d="M249.706 90.0221V108.621C249.706 109.311 249.143 109.874 248.448 109.874H219.763C219.068 109.874 218.509 109.311 218.509 108.621V90.0221C218.509 89.3276 219.068 88.7642 219.763 88.7642H248.448C249.142 88.7642 249.706 89.3276 249.706 90.0221Z" fill="white"/>
<path d="M249.706 105.569V108.621C249.706 109.311 249.143 109.874 248.448 109.874H219.763C219.068 109.874 218.509 109.311 218.509 108.621V105.569H249.706Z" fill="#4361B7"/>
<path d="M263.136 84.617H219.57C219.031 84.617 218.594 84.1802 218.594 83.6413C218.594 83.1024 219.031 82.6655 219.57 82.6655H263.136C263.675 82.6655 264.112 83.1024 264.112 83.6413C264.112 84.1802 263.675 84.617 263.136 84.617Z" fill="#CBDDFE"/>
<path d="M263.04 119.485H219.666C219.074 119.485 218.594 119.005 218.594 118.413V116.041C218.594 115.449 219.074 114.969 219.666 114.969H263.04C263.632 114.969 264.112 115.449 264.112 116.041V118.413C264.112 119.005 263.632 119.485 263.04 119.485Z" fill="#CBDDFE"/>
<path d="M262.983 128.551H227.533C226.91 128.551 226.404 128.045 226.404 127.422C226.404 126.799 226.91 126.293 227.533 126.293H262.983C263.606 126.293 264.112 126.799 264.112 127.422C264.112 128.046 263.606 128.551 262.983 128.551Z" fill="#CBDDFE"/>
<path d="M222.657 129.887H219.46C218.981 129.887 218.594 129.499 218.594 129.021V125.823C218.594 125.345 218.981 124.957 219.46 124.957H222.657C223.136 124.957 223.524 125.345 223.524 125.823V129.021C223.524 129.499 223.136 129.887 222.657 129.887Z" fill="#EBAC3B"/>
<path d="M248.906 135.025H227.533C226.91 135.025 226.404 134.519 226.404 133.896C226.404 133.273 226.91 132.767 227.533 132.767H248.906C249.53 132.767 250.035 133.273 250.035 133.896C250.036 134.519 249.53 135.025 248.906 135.025Z" fill="#CBDDFE"/>
<path d="M222.657 136.361H219.46C218.981 136.361 218.594 135.973 218.594 135.495V132.297C218.594 131.819 218.981 131.431 219.46 131.431H222.657C223.136 131.431 223.524 131.819 223.524 132.297V135.495C223.524 135.973 223.136 136.361 222.657 136.361Z" fill="#EBAC3B"/>
<path d="M262.787 124.005H256.823C256.092 124.005 255.498 123.412 255.498 122.68C255.498 121.948 256.091 121.355 256.823 121.355H262.787C263.519 121.355 264.112 121.948 264.112 122.68C264.112 123.412 263.519 124.005 262.787 124.005Z" fill="#EBAC3B"/>
<path d="M261.452 93.8144H254.842C254.293 93.8144 253.849 93.37 253.849 92.822V91.1157C253.849 90.5673 254.294 90.1233 254.842 90.1233H261.452C262 90.1233 262.444 90.5677 262.444 91.1157V92.822C262.444 93.37 262 93.8144 261.452 93.8144Z" fill="#CBDDFE"/>
<path d="M261.452 98.7155H254.842C254.293 98.7155 253.849 98.2711 253.849 97.7231V96.0168C253.849 95.4688 254.294 95.0244 254.842 95.0244H261.452C262 95.0244 262.444 95.4688 262.444 96.0168V97.7231C262.444 98.2711 262 98.7155 261.452 98.7155Z" fill="#CBDDFE"/>
<path d="M261.452 103.616H254.842C254.293 103.616 253.849 103.172 253.849 102.624V100.917C253.849 100.369 254.294 99.9248 254.842 99.9248H261.452C262 99.9248 262.444 100.369 262.444 100.917V102.624C262.444 103.172 262 103.616 261.452 103.616Z" fill="#CBDDFE"/>
<path d="M261.452 108.517H254.842C254.293 108.517 253.849 108.073 253.849 107.525V105.818C253.849 105.27 254.294 104.826 254.842 104.826H261.452C262 104.826 262.444 105.27 262.444 105.818V107.525C262.444 108.073 262 108.517 261.452 108.517Z" fill="#CBDDFE"/>
<path d="M247.56 107.722H222.94C222.771 107.722 222.634 107.586 222.634 107.417C222.634 107.247 222.771 107.111 222.94 107.111H247.56C247.729 107.111 247.866 107.247 247.866 107.417C247.866 107.586 247.729 107.722 247.56 107.722Z" fill="#CBDDFE"/>
<path d="M236.213 107.722H222.94C222.771 107.722 222.634 107.586 222.634 107.417C222.634 107.247 222.771 107.111 222.94 107.111H236.213C236.382 107.111 236.519 107.247 236.519 107.417C236.519 107.586 236.382 107.722 236.213 107.722Z" fill="#EBAC3B"/>
<path d="M221.26 107.722H219.602C219.433 107.722 219.296 107.586 219.296 107.417C219.296 107.247 219.433 107.111 219.602 107.111H221.26C221.429 107.111 221.566 107.247 221.566 107.417C221.566 107.586 221.429 107.722 221.26 107.722Z" fill="#CBDDFE"/>
<path d="M236.519 108.465C237.169 108.465 237.696 107.938 237.696 107.288C237.696 106.637 237.169 106.11 236.519 106.11C235.868 106.11 235.341 106.637 235.341 107.288C235.341 107.938 235.868 108.465 236.519 108.465Z" fill="white"/>
<path d="M234.105 101.227C236.558 101.227 238.546 99.2388 238.546 96.7865C238.546 94.3342 236.558 92.3462 234.105 92.3462C231.653 92.3462 229.665 94.3342 229.665 96.7865C229.665 99.2388 231.653 101.227 234.105 101.227Z" fill="#4361B7"/>
<path d="M233.348 98.724H232.923C232.776 98.724 232.656 98.6041 232.656 98.4565V95.1166C232.656 94.969 232.776 94.8491 232.923 94.8491H233.348C233.496 94.8491 233.616 94.969 233.616 95.1166V98.4565C233.616 98.6041 233.496 98.724 233.348 98.724Z" fill="white"/>
<path d="M235.288 98.724H234.863C234.715 98.724 234.595 98.6041 234.595 98.4565V95.1166C234.595 94.969 234.715 94.8491 234.863 94.8491H235.288C235.435 94.8491 235.555 94.969 235.555 95.1166V98.4565C235.555 98.6041 235.436 98.724 235.288 98.724Z" fill="white"/>
<path d="M166.379 50.7334L166.063 51.0489L163.702 48.6879C163.482 48.4677 163.126 48.4677 162.905 48.6879L158.836 52.7576C158.441 53.1516 157.802 53.1516 157.408 52.7576L155.964 51.314C155.57 50.92 155.57 50.2807 155.964 49.8863L157.406 48.445L157.721 48.7605L156.28 50.2013C156.06 50.4216 156.06 50.7783 156.28 50.9985L157.724 52.4421C157.944 52.6623 158.301 52.6623 158.521 52.4421L162.59 48.3724C162.984 47.9784 163.624 47.9784 164.018 48.3724L166.379 50.7334Z" fill="white"/>
<path d="M166.935 49.9349L165.253 51.6167L169.104 55.4674L170.785 53.7856L166.935 49.9349Z" fill="#EBAC3B"/>
<path d="M165.388 42.6814C165.388 43.1719 165.2 43.6627 164.83 44.0326L164.362 44.5052L162.77 46.0928L161.156 47.707L159.568 49.299L159.363 49.4998C158.33 50.5323 156.407 50.1335 156.063 48.3034C155.971 47.8122 156.158 47.3086 156.511 46.9555L162.132 41.3342C162.877 40.5894 164.086 40.5894 164.83 41.3342C165.2 41.7092 165.388 42.1953 165.388 42.6814Z" fill="#4361B7"/>
<path d="M163.131 43.219C162.908 42.996 162.613 42.8845 162.324 42.8845C161.768 42.8845 161.212 43.2821 161.136 44.0777C161.118 44.2742 161.23 44.5515 161.37 44.6908L162.497 45.8185C162.324 45.7162 162.123 45.6626 161.922 45.6626C161.628 45.6626 161.338 45.7741 161.115 45.9971C160.74 46.3717 160.682 46.9427 160.936 47.3796L160.397 46.8399C160.174 46.6169 159.879 46.5054 159.59 46.5054C159.037 46.5054 158.469 46.9098 158.409 47.7193C158.392 47.9415 158.484 48.1601 158.642 48.318L159.599 49.2752L161.186 47.6831L161.213 47.6562L162.774 46.0955L162.801 46.0689L164.393 44.4813L163.131 43.219Z" fill="#5D95E8"/>
<path d="M196.792 55.3333H192.967V69.524H196.792V55.3333Z" fill="#F1CBC2"/>
<path d="M200.804 50.9359C200.804 48.9411 199.187 47.3241 197.193 47.3241H189.909C187.914 47.3241 186.297 46.7844 186.297 48.7792V55.7599C186.297 55.7607 186.296 55.7639 186.296 55.7639C186.296 55.7639 183.984 63.0191 191.778 62.8918C193.113 62.8699 195.819 62.7461 196.795 62.2541C199.144 61.0791 200.761 58.6626 200.799 55.8623H200.804V50.9359Z" fill="#F1CBC2"/>
<path d="M200.802 50.0827V55.7638C200.802 60.4613 196.794 62.2544 196.794 62.2544V56.167V49.1303H186.369C184.829 48.8184 182.49 44.3761 188.212 42.3572C188.212 42.3572 187.887 44.9055 189.502 44.9714C191.117 45.0372 196.794 44.9714 196.794 44.9714C196.794 44.9714 200.802 44.417 200.802 50.0827Z" fill="#383C56"/>
<path d="M198.087 48.7788H191.955V55.1671H198.087V48.7788Z" fill="#383C56"/>
<path d="M198.134 55.167C198.134 56.0368 197.655 56.7947 196.947 57.1915C196.612 57.3792 196.226 57.4864 195.814 57.4864C194.534 57.4864 193.495 56.4479 193.495 55.167C193.495 53.8861 194.534 52.8477 195.814 52.8477C197.095 52.8477 198.134 53.8861 198.134 55.167Z" fill="#F1CBC2"/>
<path d="M188.679 54.007C188.679 54.6475 188.452 55.1669 188.171 55.1669C187.89 55.1669 187.663 54.6479 187.663 54.007C187.663 53.3666 187.89 52.8472 188.171 52.8472C188.452 52.8476 188.679 53.3666 188.679 54.007Z" fill="#383C56"/>
<path d="M189.203 59.1268C188.995 59.5922 188.586 60.2319 187.847 60.4997C187.758 60.5319 187.654 60.4998 187.596 60.4244C187.209 59.9153 187.028 59.3387 186.948 58.8478C186.926 58.7117 187.032 58.5891 187.169 58.5891H188.852C189.129 58.5891 189.316 58.8736 189.203 59.1268Z" fill="white"/>
<path d="M186.612 53.7888C186.612 53.7888 185.876 55.4221 185.341 56.0479C184.17 57.4192 186.945 57.2097 186.945 57.2097L186.612 53.7888Z" fill="#F1CBC2"/>
<path d="M206.469 141.047L199.139 144.595L191.374 125.887L189.978 98.2705H199.332L199.476 124.679L206.469 141.047Z" fill="#4361B7"/>
<path d="M195.153 146.79H186.639C185.155 130.617 185.155 114.444 186.639 98.2705H197.871L193.507 124.287L195.153 146.79Z" fill="#5D95E8"/>
<path d="M186.639 146.582V147.831C186.639 147.831 180.848 147.749 180.848 152.122H186.639H195.039V147.831V146.582H186.639Z" fill="#383C56"/>
<path d="M199.09 144.972L199.546 146.136C199.546 146.136 194.124 148.171 195.719 152.243L201.111 150.131L208.932 147.067L207.367 143.072L206.911 141.908L199.09 144.972Z" fill="#383C56"/>
<path d="M207.263 141.951L198.991 145.289C198.549 145.468 198.047 145.254 197.869 144.813C197.691 144.372 197.904 143.869 198.346 143.691L206.618 140.353C207.059 140.175 207.561 140.388 207.74 140.829C207.918 141.27 207.704 141.772 207.263 141.951Z" fill="#4361B7"/>
<path d="M195.307 147.076H186.388C185.912 147.076 185.526 146.69 185.526 146.214C185.526 145.738 185.912 145.352 186.388 145.352H195.307C195.783 145.352 196.169 145.738 196.169 146.214C196.169 146.69 195.783 147.076 195.307 147.076Z" fill="#5D95E8"/>
<path d="M208.394 81.4417C208.736 82.2024 208.647 83.1206 208.092 83.8115L197.789 94.3618C197.132 95.1809 196.049 95.3074 195.23 94.6495C194.411 93.9924 194.458 92.9599 195.116 92.1405L203.174 82.6413L196.672 72.421C195.731 71.5806 196.043 69.5084 196.883 68.568C197.723 67.6271 199.687 67.7791 200.628 68.6192C200.628 68.6192 208.266 81.1588 208.394 81.4417Z" fill="#E5B7AE"/>
<path d="M201.061 68.5547L205.873 76.5274C206.002 76.7409 205.933 77.0186 205.72 77.1476L199.584 80.8506C199.37 80.9796 199.092 80.9109 198.963 80.6975L194.152 72.7251C193.132 71.0359 193.675 68.8396 195.365 67.8198L196.315 65.9814C198.734 65.7052 200.041 66.8651 201.061 68.5547Z" fill="#383C56"/>
<path d="M198.878 101.929H185.268C184.598 101.929 184.069 101.377 184.113 100.727L186.679 73.1491C186.679 68.7508 191.078 64.5264 192.841 64.5264H196.558C198.479 64.5264 200.91 67.6397 200.91 74.0343L200.036 100.803C200.036 101.425 199.518 101.929 198.878 101.929Z" fill="#383C56"/>
<path d="M177.083 74.386C176.188 74.386 175.329 73.8936 174.899 73.0468L169.125 58.3216C168.614 57.3176 168.968 56.203 169.972 55.6923C170.976 55.1812 171.964 55.6828 172.476 56.6871L178.211 68.7541L190.061 66.9518C191.297 66.4022 193.186 67.6208 193.735 68.8569C194.284 70.0929 193.27 71.9468 192.034 72.496C192.034 72.496 177.416 74.386 177.083 74.386Z" fill="#F1CBC2"/>
<path d="M192.273 73.6945L183.851 74.977C183.613 75.0131 183.392 74.8501 183.355 74.6128L182.317 67.794C182.281 67.5567 182.444 67.3349 182.681 67.2988L191.103 66.0163C193.223 65.6933 195.204 67.1503 195.527 69.2709C195.85 71.3911 194.393 73.3715 192.273 73.6945Z" fill="#383C56"/>
<path d="M166.509 52.6063L168.882 52.9944C169.285 53.0602 169.531 52.567 169.237 52.2845C168.967 52.0246 169.151 51.5603 169.526 51.5682C170.187 51.5821 171.059 51.8246 171.611 52.8527C172.598 54.6899 172.476 56.6875 172.476 56.6875L169.125 58.3219C169.125 58.3219 164.263 56.9482 166.063 52.8463C166.138 52.6737 166.324 52.5757 166.509 52.6063Z" fill="#F1CBC2"/>
<path d="M206.741 152.122H180.274V172H206.741V152.122Z" fill="#CBDDFE"/>
<path d="M206.741 152.122H191.923V172H206.741V152.122Z" fill="#7BA9FA"/>
<path d="M110.528 95.7998C110.528 97.018 109.541 98.006 108.322 98.006C107.103 98.006 106.116 97.0184 106.116 95.7998C106.116 94.5812 107.103 93.5935 108.322 93.5935C109.541 93.5935 110.528 94.5816 110.528 95.7998Z" fill="#EBAC3B"/>
<path d="M108.419 95.6543H107.427" stroke="#EBAC3B" stroke-miterlimit="10"/>
<path d="M105.438 95.6543H32.1568C29.5867 95.6543 27.5034 97.7375 27.5034 100.308V102.28" stroke="#EBAC3B" stroke-miterlimit="10" stroke-dasharray="5.01 5.01"/>
<path d="M27.5034 103.275V104.267" stroke="#EBAC3B" stroke-miterlimit="10"/>
<path d="M54.2839 104.216V141.801C54.2839 143.389 52.9995 144.673 51.4122 144.673H3.45808C1.87441 144.673 0.590332 143.389 0.590332 141.801V104.216C0.590332 102.629 1.87441 101.344 3.45808 101.344H51.4122C52.9999 101.344 54.2839 102.629 54.2839 104.216Z" fill="#5D95E8"/>
<path d="M54.2839 132.955V141.801C54.2839 143.389 52.9995 144.673 51.4122 144.673H3.45808C1.87441 144.673 0.590332 143.389 0.590332 141.801V132.955H54.2839Z" fill="#4361B7"/>
<path d="M34.982 141.144H22.4729C20.9377 141.144 19.6929 139.899 19.6929 138.364C19.6929 136.828 20.9373 135.583 22.4729 135.583H34.9824C36.5176 135.583 37.762 136.828 37.762 138.363C37.762 139.899 36.5172 141.144 34.982 141.144Z" fill="#EBAC3B"/>
<path d="M38.7428 109.383H15.0659C14.4786 109.383 14.0024 108.907 14.0024 108.32V108.3C14.0024 107.713 14.4786 107.236 15.0659 107.236H38.7432C39.3304 107.236 39.8066 107.713 39.8066 108.3V108.32C39.8062 108.908 39.33 109.383 38.7428 109.383Z" fill="white"/>
<path d="M15.811 117.423H7.09346C6.56411 117.423 6.13477 116.994 6.13477 116.464V116.388C6.13477 115.858 6.56411 115.429 7.09346 115.429H15.811C16.3403 115.429 16.7697 115.859 16.7697 116.388V116.464C16.7697 116.994 16.3403 117.423 15.811 117.423Z" fill="#CBDDFE"/>
<path d="M45.9515 116.358C45.9515 116.507 45.7658 116.629 45.5388 116.629H24.567C24.34 116.629 24.1543 116.507 24.1543 116.358C24.1543 116.209 24.34 116.087 24.567 116.087H45.5388C45.7658 116.087 45.9515 116.209 45.9515 116.358Z" fill="white"/>
<path d="M23.1942 115.985L22.1082 116.358L23.1942 116.731V117.341L21.3657 116.678V116.04L23.1942 115.376V115.985Z" fill="#CBDDFE"/>
<path d="M46.9121 115.375L48.7406 116.039V116.677L46.9121 117.34V116.73L47.9982 116.357L46.9121 115.984V115.375Z" fill="#CBDDFE"/>
<path d="M35.9236 116.219C35.9236 116.77 35.4764 117.218 34.9245 117.218C34.3729 117.218 33.9253 116.771 33.9253 116.219C33.9253 115.667 34.3725 115.22 34.9245 115.22C35.4764 115.22 35.9236 115.667 35.9236 116.219Z" fill="#EBAC3B"/>
<path d="M12.5099 122.281H7.09346C6.56411 122.281 6.13477 121.852 6.13477 121.322V121.246C6.13477 120.717 6.56411 120.288 7.09346 120.288H12.5099C13.0397 120.288 13.4686 120.717 13.4686 121.246V121.322C13.4686 121.852 13.0393 122.281 12.5099 122.281Z" fill="#CBDDFE"/>
<path d="M45.9515 121.216C45.9515 121.364 45.7658 121.486 45.5388 121.486H24.567C24.34 121.486 24.1543 121.364 24.1543 121.216C24.1543 121.067 24.34 120.945 24.567 120.945H45.5388C45.7658 120.945 45.9515 121.067 45.9515 121.216Z" fill="white"/>
<path d="M23.1942 120.843L22.1082 121.216L23.1942 121.589V122.199L21.3657 121.536V120.898L23.1942 120.235V120.843Z" fill="#CBDDFE"/>
<path d="M46.9121 120.234L48.7406 120.897V121.535L46.9121 122.198V121.588L47.9982 121.215L46.9121 120.842V120.234Z" fill="#CBDDFE"/>
<path d="M41.8323 121.077C41.8323 121.629 41.3851 122.076 40.8332 122.076C40.2812 122.076 39.834 121.629 39.834 121.077C39.834 120.525 40.2812 120.078 40.8332 120.078C41.3851 120.078 41.8323 120.525 41.8323 121.077Z" fill="#EBAC3B"/>
<path d="M17.1526 127.139H7.09346C6.56411 127.139 6.13477 126.709 6.13477 126.18V126.104C6.13477 125.574 6.56411 125.145 7.09346 125.145H17.1526C17.6819 125.145 18.1113 125.575 18.1113 126.104V126.18C18.1117 126.709 17.6823 127.139 17.1526 127.139Z" fill="#CBDDFE"/>
<path d="M45.9515 126.074C45.9515 126.223 45.7658 126.345 45.5388 126.345H24.567C24.34 126.345 24.1543 126.223 24.1543 126.074C24.1543 125.926 24.34 125.804 24.567 125.804H45.5388C45.7658 125.803 45.9515 125.925 45.9515 126.074Z" fill="white"/>
<path d="M23.1942 125.701L22.1082 126.074L23.1942 126.447V127.057L21.3657 126.394V125.756L23.1942 125.093V125.701Z" fill="#CBDDFE"/>
<path d="M46.9121 125.092L48.7406 125.755V126.393L46.9121 127.056V126.447L47.9982 126.074L46.9121 125.701V125.092Z" fill="#CBDDFE"/>
<path d="M30.993 125.935C30.993 126.487 30.5458 126.934 29.9938 126.934C29.4418 126.934 28.9946 126.487 28.9946 125.935C28.9946 125.383 29.4418 124.936 29.9938 124.936C30.5454 124.936 30.993 125.383 30.993 125.935Z" fill="#EBAC3B"/>
<path d="M69.1934 94.1162L72.5449 95.022L75.9054 82.5872L72.5539 81.6814L69.1934 94.1162Z" fill="#F1CBC2"/>
<path d="M64.9199 125.843L65.6286 142.635C65.6504 143.155 65.5076 143.669 65.2203 144.103L52.995 162.564C52.1279 163.874 52.687 165.649 54.1477 166.226C55.1544 166.623 55.627 166.02 56.3048 165.177L72.6256 145.996C72.9375 145.607 73.1248 145.134 73.1628 144.637L74.5529 126.421C74.6545 125.088 73.6775 123.916 72.3478 123.776L67.6456 123.283C66.1457 123.125 64.856 124.336 64.9199 125.843Z" fill="#E5B7AE"/>
<path d="M57.3055 165.07C57.3055 165.07 60.9625 168.083 62.512 170.753C62.862 171.356 62.2485 172.063 61.5974 171.813L57.759 170.339L52.8676 167.296L52.4148 168.286L49.9185 167.327C50.2827 165.302 51.5192 163.757 53.1025 162.402L57.3055 165.07Z" fill="#383C56"/>
<path d="M65.5364 127.859L72.219 143.281C72.4262 143.758 72.477 144.289 72.3643 144.797L67.572 166.415C67.2319 167.948 68.3906 169.405 69.9608 169.419C71.0429 169.429 71.2683 168.697 71.5984 167.667L79.9561 143.909C80.108 143.434 80.1128 142.925 79.9703 142.448L74.7356 124.944C74.3527 123.663 73.0202 122.92 71.729 123.267L67.1625 124.492C65.7058 124.882 64.9368 126.476 65.5364 127.859Z" fill="#F1CBC2"/>
<path d="M72.4949 167.207C72.4949 167.207 76.9895 168.709 79.393 170.645C79.9362 171.083 79.6172 171.963 78.9196 171.963H74.8079L69.1501 170.876L69.0823 171.963H66.4078C66.0217 169.943 66.6221 168.057 67.6141 166.225L72.4949 167.207Z" fill="#383C56"/>
<path d="M74.8353 118.279C77.4566 125.584 79.2649 132.266 79.9359 138.078C80.1922 139.072 79.7664 140.071 78.9934 140.319C74.0341 141.908 69.0041 142.618 63.8853 142.222C63.052 142.157 62.3738 141.237 62.3945 140.193C61.1009 131.387 60.4537 122.307 62.4139 116.241L74.8353 118.279Z" fill="#383C56"/>
<path d="M65.2723 89.3574C65.2723 89.3574 60.6153 95.7635 65.2723 104.923L61.3768 115.081C60.953 115.983 61.5625 117.015 62.6061 117.162L74.9556 118.897C75.4417 118.965 75.8782 118.612 75.875 118.153L75.7679 102.84C75.7679 102.84 78.4218 101.9 78.6563 99.6689C79.0495 95.9302 72.8882 90.4122 72.8882 90.4122L65.2723 89.3574Z" fill="#EBAC3B"/>
<path d="M88.5067 115.442C88.2488 115.442 87.9865 115.39 87.7345 115.281L73.8406 109.919C73.3819 109.72 73.0172 109.353 72.8224 108.892L64.906 94.8988C64.4874 93.9095 64.8894 90.8096 65.7985 90.2374C67.319 89.2803 69.0186 90.2398 69.4384 91.2298L75.6009 105.785L89.2813 111.711C90.2674 112.138 90.7201 113.284 90.2932 114.269C89.9753 115.004 89.2591 115.442 88.5067 115.442Z" fill="#F1CBC2"/>
<path d="M91.2442 116.617L90.8744 114.355C90.8117 113.972 91.2815 113.736 91.5509 114.017C91.7985 114.274 92.241 114.099 92.2334 113.742C92.22 113.112 91.989 112.281 91.0093 111.754C89.2582 110.814 87.3543 110.93 87.3543 110.93L85.7964 114.124C85.7964 114.124 87.1059 118.758 91.0152 117.042C91.1799 116.97 91.2732 116.794 91.2442 116.617Z" fill="#F1CBC2"/>
<path d="M80.0578 84.0614V84.0653C80.0578 84.0653 80.1296 85.6907 79.4404 87.164C79.3797 87.289 79.3154 87.414 79.2471 87.5315C78.4174 88.9751 76.7468 90.1115 73.3902 89.1453C72.193 88.8005 69.7911 88.0315 69.0297 87.3533C67.2035 85.7244 66.3361 83.1559 66.9841 80.625H66.9766L68.1773 76.1926C68.6622 74.3971 70.511 73.3364 72.303 73.8213L78.8567 75.5903C80.6522 76.0752 82.2395 75.9843 81.7546 77.7799L80.0578 84.0614Z" fill="#F1CBC2"/>
<path d="M74.661 80.9705C75.5451 80.1126 76.7732 78.6352 77.0383 76.8595C77.0383 76.8595 80.3517 80.3637 81.8433 80.3637C83.3345 80.3637 84.8975 76.6341 83.5714 74.0477C82.2452 71.4609 77.0383 71.2716 77.0383 71.2716C77.0383 71.2716 71.7345 68.0027 68.7215 70.8284C63.0983 76.102 69.3414 80.7871 63.1614 85.4532C58.2366 89.1718 60.4211 95.8017 67.7708 95.7997C71.9127 95.7989 73.1912 91.5181 73.6888 83.1065C73.7364 82.2962 74.0785 81.5359 74.661 80.9705Z" fill="#383C56"/>
<path d="M78.3394 81.9052C78.1835 82.4814 78.262 83.004 78.5148 83.0722C78.7676 83.1405 79.0985 82.7286 79.2541 82.1524C79.41 81.5763 79.3314 81.0537 79.0787 80.9854C78.8263 80.9172 78.495 81.3291 78.3394 81.9052Z" fill="#383C56"/>
<path d="M79.0786 80.9854L79.9488 81.2949L79.1909 81.6044L79.0786 80.9854Z" fill="#383C56"/>
<path d="M80.2528 82.2119C80.2528 82.2119 80.5179 83.8607 80.8468 84.5539C81.5674 86.0729 79.1211 85.209 79.1211 85.209L80.2528 82.2119Z" fill="#F1CBC2"/>
<path d="M79.4401 87.1641C79.3794 87.2891 79.3152 87.4141 79.2469 87.5316C78.5386 87.4597 77.6331 87.1224 77.4438 86.1562C77.4212 86.0503 77.4894 85.9515 77.5914 85.9328C77.6938 85.9102 77.7922 85.9784 77.8148 86.0804C77.993 86.9863 78.9588 87.1455 79.4401 87.1641Z" fill="#CA7E86"/>
<path d="M60.4398 12.0048C60.5005 12.0354 60.5759 12.0108 60.6057 11.9493C60.9672 11.2041 61.2148 10.4089 61.3422 9.5835L61.3453 9.56089L60.0819 9.36605C60.0172 9.35613 59.9736 9.29621 59.9823 9.23114C60.07 8.57521 60.0609 7.92761 59.9676 7.30224C59.9581 7.23716 60.0009 7.17685 60.066 7.16614L61.2069 6.97765C61.2739 6.96654 61.3203 6.90186 61.308 6.83519C61.1676 6.05903 60.9176 5.30827 60.5632 4.60036C60.5327 4.53965 60.4573 4.51544 60.3966 4.54679L59.3688 5.0801C59.3105 5.11026 59.2399 5.08804 59.2085 5.0301C58.901 4.46227 58.5153 3.93967 58.0637 3.47739C58.0177 3.43056 58.0173 3.35636 58.0633 3.30954L58.8776 2.48536C58.9256 2.43695 58.9248 2.35759 58.8756 2.31037C58.3042 1.76237 57.661 1.30088 56.961 0.937007C56.9007 0.905659 56.8253 0.930658 56.7947 0.99137L56.2769 2.02506C56.2475 2.08379 56.1773 2.1072 56.1178 2.07863C55.5186 1.79055 54.8686 1.58381 54.1785 1.47746C54.173 1.47667 54.1678 1.47627 54.1623 1.47548L54.3531 0.217986C54.3635 0.150528 54.3158 0.0862453 54.2484 0.0771187C53.4635 -0.0304169 52.6731 -0.0256548 51.8949 0.0902138C51.8274 0.100134 51.781 0.16521 51.7921 0.232271L51.9798 1.3731C51.9905 1.43778 51.9469 1.4981 51.8826 1.51C51.2414 1.62746 50.6263 1.83419 50.0529 2.1195C49.9942 2.14886 49.9232 2.12664 49.893 2.06792L49.3601 1.03978C49.3287 0.979465 49.2529 0.955259 49.193 0.987401C48.4978 1.3608 47.8609 1.82943 47.2979 2.38179C47.2494 2.42941 47.2494 2.50877 47.2979 2.55679L48.1208 3.37144C48.1677 3.41786 48.1681 3.49207 48.1224 3.53929C47.6796 4.00197 47.2987 4.52735 46.9955 5.10431C46.9649 5.16264 46.8947 5.18605 46.836 5.15669L45.8027 4.63806C45.742 4.6075 45.6666 4.6325 45.6368 4.69361C45.2785 5.43485 45.0329 6.22609 44.9063 7.04709L44.9043 7.0586L46.1673 7.24708C46.2324 7.25661 46.2765 7.31732 46.2677 7.3824C46.1781 8.04031 46.186 8.68989 46.2785 9.31724C46.288 9.38232 46.2447 9.44264 46.1796 9.45295L45.0392 9.63945C44.9721 9.65056 44.9257 9.71485 44.9376 9.78191C45.0765 10.5585 45.3257 11.3096 45.6789 12.0183C45.7094 12.0794 45.7848 12.1032 45.8451 12.0719L46.8733 11.5402C46.9316 11.51 47.0022 11.5326 47.0336 11.5906C47.3403 12.1592 47.7252 12.6826 48.1756 13.1457C48.2216 13.1929 48.222 13.2671 48.1756 13.3135L47.3606 14.1357C47.3125 14.1841 47.3129 14.2635 47.3621 14.3107C47.9328 14.8599 48.5748 15.3222 49.2744 15.6872C49.3347 15.7186 49.4101 15.694 49.4406 15.6329L49.9601 14.6004C49.9898 14.5416 50.0601 14.5182 50.1192 14.5468C50.7211 14.8377 51.3743 15.046 52.0687 15.1531C52.0707 15.1535 52.0723 15.1535 52.0743 15.1539L51.8814 16.4102C51.8711 16.4777 51.9183 16.542 51.9858 16.5515C52.7703 16.6602 53.5607 16.657 54.3389 16.5424C54.4063 16.5324 54.4531 16.4678 54.442 16.4003L54.2563 15.2595C54.2456 15.1948 54.2893 15.1345 54.3539 15.123C54.9956 15.0063 55.611 14.8004 56.1848 14.5159C56.2439 14.4865 56.3146 14.5091 56.3447 14.5674L56.8757 15.596C56.907 15.6563 56.9824 15.6805 57.0427 15.6484C57.7383 15.2761 58.376 14.8087 58.9403 14.2567C58.9891 14.2091 58.9887 14.1298 58.9403 14.0817L58.1189 13.2659C58.0721 13.2195 58.072 13.1453 58.1177 13.0981C58.5613 12.6362 58.9431 12.1112 59.247 11.5342C59.2776 11.4759 59.3478 11.4525 59.4065 11.4822L60.4398 12.0048ZM53.7909 11.9195C50.7457 12.412 48.503 9.35058 49.8898 6.59552C50.3914 5.59992 51.3572 4.89202 52.4576 4.71385C55.5031 4.22101 57.7467 7.2828 56.359 10.0382C55.8575 11.0338 54.8916 11.7414 53.7909 11.9195Z" fill="white"/>
<path d="M253.139 70.1508C253.731 69.5992 254.231 68.9576 254.627 68.2449L254.638 68.2263L253.503 67.5961C253.837 66.989 254.061 66.3509 254.185 65.7041L255.462 65.9498C255.616 65.1534 255.641 64.3399 255.54 63.5316L254.248 63.6943C254.163 63.0253 253.974 62.3729 253.689 61.7622L254.868 61.2103C254.523 60.4726 254.067 59.7984 253.512 59.2064L252.563 60.0956C252.117 59.6183 251.591 59.2008 250.989 58.8667C250.985 58.8643 250.98 58.8619 250.976 58.8596L251.603 57.7227C250.889 57.3287 250.124 57.0513 249.33 56.8977L249.084 58.1755C248.414 58.0469 247.736 58.0274 247.073 58.1108L246.912 56.8184C246.106 56.9191 245.325 57.1445 244.589 57.4878L245.141 58.6679C244.535 58.95 243.971 59.327 243.473 59.7921L242.584 58.8421C241.997 59.3917 241.499 60.0301 241.105 60.7396L241.1 60.7488L242.238 61.373C241.901 61.9813 241.674 62.6209 241.549 63.2697L240.273 63.0221C240.119 63.8185 240.091 64.632 240.192 65.4403L241.483 65.2796C241.566 65.949 241.754 66.6017 242.039 67.2132L240.859 67.7632C241.203 68.5013 241.658 69.1762 242.212 69.7691L243.162 68.8818C243.61 69.3623 244.138 69.7826 244.743 70.1183C244.745 70.1191 244.746 70.1198 244.747 70.1206L244.118 71.2559C244.831 71.6507 245.596 71.9297 246.39 72.0844L246.638 70.8079C247.307 70.9373 247.986 70.9579 248.648 70.8754L248.808 72.1674C249.613 72.0678 250.395 71.844 251.131 71.5015L250.582 70.321C251.188 70.0397 251.753 69.6635 252.252 69.1992L253.139 70.1508ZM246.618 67.6541C244.54 66.8235 243.811 64.2736 245.135 62.4697C246.037 61.24 247.698 60.7646 249.115 61.3309C251.193 62.1614 251.922 64.7113 250.598 66.5156C249.696 67.7449 248.034 68.2203 246.618 67.6541Z" fill="white"/>
<path d="M13.5026 85.2663C13.9181 84.879 14.2697 84.4286 14.5474 83.9283L14.5546 83.9152L13.7578 83.4727C13.9923 83.0465 14.1498 82.5985 14.2367 82.1446L15.1335 82.3168C15.241 81.7577 15.2593 81.1867 15.1879 80.6193L14.2808 80.7335C14.2212 80.2641 14.0887 79.8062 13.8883 79.3772L14.7165 78.9896C14.474 78.4717 14.1538 77.9983 13.7645 77.5829L13.0983 78.207C12.7848 77.8717 12.4158 77.5789 11.9932 77.3444C11.99 77.3428 11.9868 77.3412 11.9836 77.3392L12.4241 76.5412C11.9229 76.2647 11.386 76.0698 10.8285 75.9623L10.6555 76.8591C10.1857 76.769 9.70951 76.7551 9.24445 76.8138L9.13096 75.9067C8.56551 75.9774 8.01712 76.1357 7.50087 76.3766L7.88776 77.2051C7.46277 77.4031 7.06676 77.6678 6.71717 77.9944L6.09338 77.3277C5.6807 77.7134 5.3315 78.1618 5.05493 78.6598L5.05136 78.6666L5.85014 79.1046C5.61364 79.5316 5.45451 79.9808 5.36682 80.4359L4.47082 80.2621C4.36249 80.8212 4.34305 81.3922 4.41368 81.9597L5.32039 81.847C5.37912 82.3168 5.51086 82.7751 5.71046 83.2045L4.88192 83.5906C5.12318 84.1088 5.44301 84.5826 5.83149 84.9989L6.49852 84.3759C6.8128 84.7132 7.18382 85.0084 7.6084 85.2437C7.60959 85.2445 7.61039 85.2449 7.61158 85.2453L7.16993 86.0421C7.6703 86.3194 8.20679 86.5151 8.76431 86.6234L8.93851 85.7274C9.40833 85.8183 9.88451 85.8326 10.3496 85.775L10.4615 86.6821C11.0269 86.6123 11.5757 86.4551 12.0924 86.2147L11.7071 85.3857C12.1324 85.1881 12.5285 84.9243 12.8788 84.5981L13.5026 85.2663ZM8.92502 83.5136C7.46634 82.9307 6.95446 81.1407 7.88379 79.8744C8.5171 79.0114 9.68332 78.6777 10.6777 79.0749C12.1364 79.6578 12.6487 81.4478 11.719 82.7144C11.0853 83.5775 9.91903 83.9112 8.92502 83.5136Z" fill="white"/>
<path d="M45.8076 85.8064L29.1265 85.9286C27.9281 85.9374 26.95 84.9731 26.9412 83.7752L26.8365 69.4622C26.8278 68.2638 27.792 67.2857 28.99 67.2766L45.6711 67.1544C46.8695 67.1456 47.8476 68.1099 47.8563 69.3078L47.9611 83.6208C47.9698 84.8192 47.0056 85.7973 45.8076 85.8064Z" fill="#7BA9FA"/>
<path d="M44.7335 75.6806C45.264 80.3435 41.4288 84.2926 36.7524 83.8986C33.2918 83.6069 30.4558 80.8526 30.0634 77.4024C29.5325 72.7395 33.368 68.79 38.0444 69.1844C41.5046 69.4761 44.3406 72.23 44.7335 75.6806Z" fill="white"/>
<path d="M41.8765 74.6105L37.8965 77.4049C37.5977 77.6148 37.1997 77.6148 36.9009 77.4049L32.9209 74.6105V74.5073C32.9209 74.1101 33.2816 73.7883 33.726 73.7883H41.071C41.5158 73.7883 41.8761 74.1101 41.8761 74.5073L41.8765 74.6105Z" fill="#4361B7"/>
<path d="M36.9009 78.2523L32.9209 75.458V79.5606C32.9209 80.0312 33.3479 80.4126 33.8748 80.4126H40.923C41.4499 80.4126 41.8769 80.0312 41.8769 79.5606V75.458L37.8969 78.2523C37.5977 78.4623 37.1997 78.4623 36.9009 78.2523Z" fill="#4361B7"/>
<path d="M80.4029 16.6205L69.9493 16.6971C68.7509 16.7058 67.7728 15.7415 67.7641 14.5436L67.6998 5.757C67.691 4.55863 68.6553 3.58049 69.8533 3.57176L80.3068 3.49518C81.5052 3.48645 82.4833 4.4507 82.4921 5.64867L82.5563 14.4352C82.5655 15.6332 81.6012 16.6117 80.4029 16.6205Z" fill="#7BA9FA"/>
<path d="M80.1311 10.0228C80.1716 12.7857 77.9645 15.0583 75.2015 15.0991C72.4386 15.1396 70.166 12.9326 70.1255 10.1696C70.0851 7.40658 72.2921 5.13365 75.0551 5.09358C77.8181 5.0527 80.0907 7.25976 80.1311 10.0228Z" fill="white"/>
<path d="M78.2571 9.45095L75.4175 6.2225C75.264 6.0479 74.9917 6.0479 74.8382 6.2225L71.9986 9.45095C71.7796 9.70015 71.9565 10.0914 72.2883 10.0914H72.6248V13.1841H74.3287V10.7973H75.9266V13.1841H77.6321V10.0914H77.9674C78.2996 10.0914 78.4765 9.70015 78.2571 9.45095Z" fill="#4361B7"/>
<path d="M227.42 66.6124L214.355 66.708C213.157 66.7168 212.178 65.7525 212.169 64.5545L212.088 53.4506C212.079 52.2522 213.043 51.2741 214.241 51.2654L227.306 51.1697C228.504 51.161 229.483 52.1253 229.492 53.3232L229.573 64.4272C229.583 65.6251 228.618 66.6037 227.42 66.6124Z" fill="#7BA9FA"/>
<path d="M226.717 58.8524C226.765 62.1031 224.168 64.7772 220.917 64.8248C217.667 64.8724 214.993 62.2757 214.945 59.025C214.897 55.774 217.494 53.1003 220.745 53.0526C223.995 53.005 226.67 55.6018 226.717 58.8524Z" fill="white"/>
<path d="M224.314 58.4244C224.195 58.6291 224.017 58.7315 223.779 58.7284C223.746 58.7284 223.717 58.7284 223.684 58.7315C223.704 58.7383 223.723 58.7446 223.743 58.7482C224.017 58.8141 224.199 59.0585 224.179 59.3327C224.159 59.6033 223.928 59.8378 223.658 59.8612C223.598 59.868 223.535 59.8612 223.476 59.8612V59.8712C223.502 59.8811 223.532 59.8843 223.562 59.8942C223.76 59.9569 223.974 60.1652 223.964 60.4489C223.961 60.5513 223.921 60.6406 223.855 60.7199C223.73 60.8684 223.558 60.9477 223.369 60.9874C223.327 60.9941 223.284 61.0005 223.24 61.014C223.25 61.014 223.26 61.0172 223.27 61.0207C223.482 61.0636 223.65 61.2485 223.69 61.4731C223.726 61.6846 223.66 61.856 223.478 61.9719C223.406 62.0215 223.329 62.0576 223.25 62.0909C223.121 62.1405 222.986 62.1604 222.847 62.1604H219.122V57.8371C219.359 57.7316 219.574 57.5895 219.779 57.4308C220.122 57.1697 220.416 56.8626 220.644 56.4927C220.77 56.2911 220.866 56.0765 220.899 55.8388C220.912 55.7495 220.915 55.6606 220.918 55.5713C220.928 55.4459 220.951 55.3201 221.001 55.2047C221.133 54.9075 221.387 54.7884 221.698 54.8745C221.863 54.921 221.985 55.0198 222.068 55.1686C222.163 55.3336 222.213 55.5122 222.21 55.7035C222.193 56.1626 222.107 56.605 221.955 57.0344C221.896 57.2062 221.81 57.3681 221.714 57.5232C221.701 57.5431 221.691 57.5597 221.674 57.5895H223.798C223.933 57.5895 224.062 57.6224 224.175 57.705C224.407 57.8827 224.463 58.1669 224.314 58.4244Z" fill="#4361B7"/>
<path d="M218.669 62.1599H217.683C217.452 62.1599 217.265 61.9726 217.265 61.7417V58.2517C217.265 58.0208 217.452 57.8335 217.683 57.8335H218.669V62.1599Z" fill="#4361B7"/>
<path d="M101.764 65.0995C102.983 65.0995 103.971 64.1118 103.971 62.8933C103.971 61.6748 102.983 60.687 101.764 60.687C100.546 60.687 99.5581 61.6748 99.5581 62.8933C99.5581 64.1118 100.546 65.0995 101.764 65.0995Z" fill="#EBAC3B"/>
<path d="M101.764 62.8096H100.772" stroke="#EBAC3B" stroke-miterlimit="10"/>
<path d="M98.7638 62.8095H60.8311C58.261 62.8095 56.1777 60.7263 56.1777 58.1561V56.1931" stroke="#EBAC3B" stroke-miterlimit="10" stroke-dasharray="5.06 5.06"/>
<path d="M56.1782 55.1888V54.1968" stroke="#EBAC3B" stroke-miterlimit="10"/>
<path d="M83.4203 33.6232V53.3907C83.4203 55.1335 82.0076 56.5461 80.2648 56.5461H32.5539C30.8092 56.5461 29.3945 55.1315 29.3945 53.3867V33.6232C29.3945 31.8804 30.8072 30.4678 32.55 30.4678H80.2648C82.0076 30.4678 83.4203 31.8804 83.4203 33.6232Z" fill="#5D95E8"/>
<path d="M83.4202 51.2891V53.5683C83.4202 55.2131 82.0869 56.5464 80.4421 56.5464H32.3757C30.7289 56.5464 29.394 55.2115 29.394 53.5644V51.2891H83.4202Z" fill="#4361B7"/>
<path d="M34.8897 48.6831C34.602 48.6831 34.3687 48.4498 34.3687 48.1621V33.7C34.3687 33.4123 34.602 33.179 34.8897 33.179C35.1774 33.179 35.4107 33.4123 35.4107 33.7V48.1621C35.4107 48.4498 35.1774 48.6831 34.8897 48.6831Z" fill="white"/>
<path d="M37.0394 41.7128C37.0394 42.8639 36.1061 43.7972 34.9546 43.7972C33.8034 43.7972 32.8701 42.8639 32.8701 41.7128C32.8701 40.5616 33.8034 39.6279 34.9546 39.6279C36.1061 39.6279 37.0394 40.5616 37.0394 41.7128Z" fill="#EBAC3B"/>
<path d="M78.263 48.6831H42.21C40.9735 48.6831 39.9712 47.6808 39.9712 46.4443V35.4178C39.9712 34.1813 40.9735 33.179 42.21 33.179H78.263C79.4995 33.179 80.5018 34.1813 80.5018 35.4178V46.4443C80.5018 47.6808 79.4995 48.6831 78.263 48.6831Z" fill="#CBDDFE"/>
<path d="M42.9868 47.2503C42.6007 47.2503 42.2876 46.9373 42.2876 46.5512V40.3276C42.2876 39.9415 42.6007 39.6284 42.9868 39.6284C43.3729 39.6284 43.686 39.9415 43.686 40.3276V46.5512C43.686 46.9373 43.3729 47.2503 42.9868 47.2503Z" fill="#4361B7"/>
<path d="M46.1337 47.2503C45.7477 47.2503 45.4346 46.9372 45.4346 46.5511V35.7024C45.4346 35.3163 45.7477 35.0032 46.1337 35.0032C46.5198 35.0032 46.8329 35.3163 46.8329 35.7024V46.5511C46.8329 46.9372 46.5198 47.2503 46.1337 47.2503Z" fill="#4361B7"/>
<path d="M49.2802 47.2504C48.8941 47.2504 48.5811 46.9373 48.5811 46.5512V42.9489C48.5811 42.5628 48.8941 42.2498 49.2802 42.2498C49.6663 42.2498 49.9794 42.5628 49.9794 42.9489V46.5512C49.9794 46.9373 49.6663 47.2504 49.2802 47.2504Z" fill="#4361B7"/>
<path d="M52.4267 47.2505C52.0406 47.2505 51.7275 46.9374 51.7275 46.5513V39.7385C51.7275 39.3524 52.0406 39.0393 52.4267 39.0393C52.8128 39.0393 53.1259 39.3524 53.1259 39.7385V46.5513C53.1255 46.9374 52.8128 47.2505 52.4267 47.2505Z" fill="#4361B7"/>
<path d="M55.5727 47.2503C55.1866 47.2503 54.8735 46.9372 54.8735 46.5511V35.7024C54.8735 35.3163 55.1866 35.0032 55.5727 35.0032C55.9588 35.0032 56.2719 35.3163 56.2719 35.7024V46.5511C56.2719 46.9372 55.9588 47.2503 55.5727 47.2503Z" fill="#4361B7"/>
<path d="M58.7192 47.2505C58.3331 47.2505 58.02 46.9374 58.02 46.5513V41.2265C58.02 40.8404 58.3331 40.5273 58.7192 40.5273C59.1053 40.5273 59.4184 40.8404 59.4184 41.2265V46.5513C59.4184 46.9374 59.1053 47.2505 58.7192 47.2505Z" fill="#4361B7"/>
<path d="M61.8657 47.2504C61.4796 47.2504 61.1665 46.9373 61.1665 46.5512V37.1154C61.1665 36.7293 61.4796 36.4163 61.8657 36.4163C62.2518 36.4163 62.5649 36.7293 62.5649 37.1154V46.5512C62.5649 46.9373 62.2518 47.2504 61.8657 47.2504Z" fill="#4361B7"/>
<path d="M65.0122 47.2503C64.6261 47.2503 64.313 46.9372 64.313 46.5511V35.7024C64.313 35.3163 64.6261 35.0032 65.0122 35.0032C65.3983 35.0032 65.7113 35.3163 65.7113 35.7024V46.5511C65.7113 46.9372 65.3983 47.2503 65.0122 47.2503Z" fill="#4361B7"/>
<path d="M68.1586 47.2504C67.7726 47.2504 67.4595 46.9373 67.4595 46.5512V42.9489C67.4595 42.5628 67.7726 42.2498 68.1586 42.2498C68.5447 42.2498 68.8578 42.5628 68.8578 42.9489V46.5512C68.8578 46.9373 68.5447 47.2504 68.1586 47.2504Z" fill="#4361B7"/>
<path d="M71.3051 47.2503C70.919 47.2503 70.606 46.9372 70.606 46.5511V38.6232C70.606 38.2372 70.919 37.9241 71.3051 37.9241C71.6912 37.9241 72.0043 38.2372 72.0043 38.6232V46.5511C72.0043 46.9372 71.6912 47.2503 71.3051 47.2503Z" fill="#4361B7"/>
<path d="M74.4516 47.2503C74.0655 47.2503 73.7524 46.9372 73.7524 46.5511V35.7024C73.7524 35.3163 74.0655 35.0032 74.4516 35.0032C74.8377 35.0032 75.1508 35.3163 75.1508 35.7024V46.5511C75.1508 46.9372 74.8377 47.2503 74.4516 47.2503Z" fill="#4361B7"/>
<path d="M77.5981 47.2503C77.212 47.2503 76.8989 46.9372 76.8989 46.5511V38.6232C76.8989 38.2372 77.212 37.9241 77.5981 37.9241C77.9842 37.9241 78.2973 38.2372 78.2973 38.6232V46.5511C78.2973 46.9372 77.9846 47.2503 77.5981 47.2503Z" fill="#4361B7"/>
</svg>
