<svg width="248" height="177" viewBox="0 0 248 177" fill="none" xmlns="http://www.w3.org/2000/svg">
<path d="M0.500104 92.2898C0.536515 108.88 9.37984 125.199 23.2592 134.288C43.681 147.661 70.5136 144.622 93.8099 151.915C110.573 157.163 125.45 167.782 142.605 171.555C160.708 175.537 179.764 171.462 196.836 164.242C219.41 154.695 240.993 137.554 246.185 113.6C248.775 101.654 247.033 89.2446 245.282 77.1462C242.59 58.5396 239.613 39.1853 228.9 23.7363C225.501 18.8358 221.166 14.2934 215.572 12.2265C209.978 10.16 202.951 11.1504 199.201 15.7879C195.105 20.853 195.743 28.7504 191.197 33.4163C187.192 37.5278 180.395 37.5792 175.118 35.3181C169.843 33.057 165.621 28.9576 161.168 25.3351C141.166 9.06243 114.21 1.64882 88.6999 5.40357C64.9104 8.90505 45.4304 21.6949 29.3709 39.0583C15.7023 53.8365 0.453984 71.0709 0.500104 92.2898Z" fill="#FBEED1"/>
<path d="M186.975 23.1787C185.255 25.0623 182.798 26.1712 180.28 26.5814C175.551 27.3521 170.456 25.6392 167.259 22.0702C164.063 18.5011 162.928 13.1641 164.53 8.6484C166.132 4.13309 170.463 0.674484 175.235 0.24848C179.614 -0.142327 184.154 2.35261 187.25 5.33625C189.858 7.85061 190.082 11.7126 189.92 15.1449C189.783 18.0294 188.961 21.0045 186.975 23.1787Z" fill="#FBEED1"/>
<path d="M243.846 139.667C243.846 139.112 243.395 138.661 242.84 138.661H69.1172C68.5621 138.661 68.1118 139.112 68.1118 139.667C68.1118 140.222 68.5621 140.672 69.1172 140.672H75.4457C76.0008 140.672 76.4511 141.122 76.4511 141.677C76.4511 142.232 76.0008 142.683 75.4457 142.683H73.1842C72.6292 142.683 72.1789 143.133 72.1789 143.688C72.1789 144.243 72.6292 144.693 73.1842 144.693H238.773C239.328 144.693 239.778 144.243 239.778 143.688C239.778 143.133 239.329 142.683 238.773 142.683H236.512C235.957 142.683 235.506 142.232 235.506 141.677C235.506 141.122 235.956 140.672 236.512 140.672H242.84C243.395 140.672 243.846 140.222 243.846 139.667Z" fill="#454F6B"/>
<path d="M101.003 49.7449L116.681 138.661H231.919L216.24 49.7449H101.003Z" fill="#D0F7FC"/>
<path d="M213.285 32.9827H98.0474L101.003 49.7449H216.241L213.285 32.9827Z" fill="#CC6164"/>
<path d="M176.587 57.3077H143.324L142.466 52.4417H175.729L176.587 57.3077Z" fill="#96E4FF"/>
<path d="M121.62 74.1221H112.191C111.326 74.1221 110.501 73.421 110.349 72.5565L108.686 63.1269C108.534 62.2624 109.111 61.5613 109.976 61.5613H119.405C120.27 61.5613 121.095 62.2624 121.247 63.1269L122.91 72.5565C123.062 73.421 122.485 74.1221 121.62 74.1221Z" fill="#E68799"/>
<path d="M136.959 74.1221H127.529C126.665 74.1221 125.84 73.421 125.687 72.5565L124.024 63.1269C123.872 62.2624 124.449 61.5613 125.314 61.5613H134.744C135.609 61.5613 136.433 62.2624 136.586 63.1269L138.248 72.5565C138.401 73.421 137.823 74.1221 136.959 74.1221Z" fill="#96E4FF"/>
<path d="M152.297 74.1221H142.867C142.002 74.1221 141.178 73.421 141.025 72.5565L139.362 63.1269C139.21 62.2624 139.787 61.5613 140.652 61.5613H150.082C150.946 61.5613 151.771 62.2624 151.924 63.1269L153.586 72.5565C153.739 73.421 153.162 74.1221 152.297 74.1221Z" fill="#96E4FF"/>
<path d="M167.635 74.1221H158.206C157.341 74.1221 156.516 73.421 156.364 72.5565L154.701 63.1269C154.549 62.2624 155.126 61.5613 155.991 61.5613H165.42C166.285 61.5613 167.11 62.2624 167.262 63.1269L168.925 72.5565C169.077 73.421 168.5 74.1221 167.635 74.1221Z" fill="#96E4FF"/>
<path d="M182.973 74.1221H173.544C172.679 74.1221 171.854 73.421 171.702 72.5565L170.039 63.1269C169.887 62.2624 170.464 61.5613 171.329 61.5613H180.758C181.623 61.5613 182.448 62.2624 182.6 63.1269L184.263 72.5565C184.416 73.421 183.838 74.1221 182.973 74.1221Z" fill="#96E4FF"/>
<path d="M198.312 74.1221H188.882C188.018 74.1221 187.193 73.421 187.04 72.5565L185.377 63.1269C185.225 62.2624 185.802 61.5613 186.667 61.5613H196.097C196.962 61.5613 197.786 62.2624 197.939 63.1269L199.601 72.5565C199.754 73.421 199.177 74.1221 198.312 74.1221Z" fill="#96E4FF"/>
<path d="M213.65 74.1221H204.22C203.356 74.1221 202.531 73.421 202.378 72.5565L200.715 63.1269C200.563 62.2624 201.14 61.5613 202.005 61.5613H211.435C212.3 61.5613 213.124 62.2624 213.277 63.1269L214.939 72.5565C215.092 73.421 214.515 74.1221 213.65 74.1221Z" fill="#96E4FF"/>
<path d="M124.277 89.1868H114.847C113.982 89.1868 113.158 88.4857 113.005 87.6212L111.342 78.1916C111.19 77.3271 111.767 76.626 112.632 76.626H122.062C122.927 76.626 123.751 77.3271 123.904 78.1916L125.566 87.6212C125.719 88.4857 125.142 89.1868 124.277 89.1868Z" fill="#E68799"/>
<path d="M139.615 89.1868H130.185C129.321 89.1868 128.496 88.4857 128.343 87.6212L126.681 78.1916C126.528 77.3271 127.105 76.626 127.97 76.626H137.4C138.265 76.626 139.089 77.3271 139.242 78.1916L140.905 87.6212C141.057 88.4857 140.479 89.1868 139.615 89.1868Z" fill="#96E4FF"/>
<path d="M154.953 89.1868H145.524C144.659 89.1868 143.834 88.4857 143.682 87.6212L142.019 78.1916C141.867 77.3271 142.444 76.626 143.309 76.626H152.738C153.603 76.626 154.428 77.3271 154.58 78.1916L156.243 87.6212C156.396 88.4857 155.818 89.1868 154.953 89.1868Z" fill="#96E4FF"/>
<path d="M170.292 89.1868H160.862C159.997 89.1868 159.173 88.4857 159.02 87.6212L157.357 78.1916C157.205 77.3271 157.782 76.626 158.647 76.626H168.077C168.941 76.626 169.766 77.3271 169.919 78.1916L171.581 87.6212C171.734 88.4857 171.157 89.1868 170.292 89.1868Z" fill="#96E4FF"/>
<path d="M185.63 89.1868H176.201C175.336 89.1868 174.511 88.4857 174.359 87.6212L172.696 78.1916C172.543 77.3271 173.121 76.626 173.986 76.626H183.415C184.28 76.626 185.105 77.3271 185.257 78.1916L186.92 87.6212C187.072 88.4857 186.495 89.1868 185.63 89.1868Z" fill="#96E4FF"/>
<path d="M200.968 89.1868H191.538C190.674 89.1868 189.849 88.4857 189.696 87.6212L188.034 78.1916C187.881 77.3271 188.458 76.626 189.323 76.626H198.753C199.618 76.626 200.442 77.3271 200.595 78.1916L202.258 87.6212C202.41 88.4857 201.833 89.1868 200.968 89.1868Z" fill="#96E4FF"/>
<path d="M216.306 89.1868H206.877C206.012 89.1868 205.187 88.4857 205.035 87.6212L203.372 78.1916C203.22 77.3271 203.797 76.626 204.662 76.626H214.091C214.956 76.626 215.781 77.3271 215.933 78.1916L217.596 87.6212C217.749 88.4857 217.171 89.1868 216.306 89.1868Z" fill="#96E4FF"/>
<path d="M126.933 104.251H117.503C116.638 104.251 115.814 103.55 115.661 102.686L113.999 93.2561C113.846 92.3915 114.423 91.6904 115.288 91.6904H124.718C125.582 91.6904 126.407 92.3915 126.56 93.2561L128.223 102.686C128.375 103.551 127.798 104.251 126.933 104.251Z" fill="#E68799"/>
<path d="M142.271 104.251H132.842C131.977 104.251 131.152 103.55 131 102.686L129.337 93.2561C129.184 92.3915 129.762 91.6904 130.627 91.6904H140.056C140.921 91.6904 141.746 92.3915 141.898 93.2561L143.561 102.686C143.713 103.551 143.136 104.251 142.271 104.251Z" fill="#96E4FF"/>
<path d="M157.61 104.251H148.18C147.315 104.251 146.491 103.55 146.338 102.686L144.675 93.2561C144.523 92.3915 145.1 91.6904 145.965 91.6904H155.395C156.259 91.6904 157.084 92.3915 157.237 93.2561L158.899 102.686C159.052 103.551 158.474 104.251 157.61 104.251Z" fill="#96E4FF"/>
<path d="M172.947 104.251H163.518C162.653 104.251 161.828 103.55 161.676 102.686L160.013 93.2561C159.861 92.3915 160.438 91.6904 161.303 91.6904H170.732C171.597 91.6904 172.422 92.3915 172.574 93.2561L174.237 102.686C174.39 103.551 173.812 104.251 172.947 104.251Z" fill="#96E4FF"/>
<path d="M188.286 104.251H178.856C177.992 104.251 177.167 103.55 177.014 102.686L175.352 93.2561C175.199 92.3915 175.776 91.6904 176.641 91.6904H186.071C186.935 91.6904 187.76 92.3915 187.913 93.2561L189.576 102.686C189.728 103.551 189.151 104.251 188.286 104.251Z" fill="#96E4FF"/>
<path d="M203.624 104.251H194.195C193.33 104.251 192.505 103.55 192.353 102.686L190.69 93.2561C190.537 92.3915 191.115 91.6904 191.98 91.6904H201.409C202.274 91.6904 203.099 92.3915 203.251 93.2561L204.914 102.686C205.066 103.551 204.489 104.251 203.624 104.251Z" fill="#96E4FF"/>
<path d="M218.963 104.251H209.533C208.668 104.251 207.844 103.55 207.691 102.686L206.028 93.2561C205.876 92.3915 206.453 91.6904 207.318 91.6904H216.748C217.613 91.6904 218.437 92.3915 218.59 93.2561L220.252 102.686C220.405 103.551 219.828 104.251 218.963 104.251Z" fill="#96E4FF"/>
<path d="M129.589 119.316H120.16C119.295 119.316 118.47 118.615 118.318 117.75L116.655 108.321C116.502 107.456 117.08 106.755 117.945 106.755H127.374C128.239 106.755 129.064 107.456 129.216 108.321L130.879 117.75C131.031 118.615 130.454 119.316 129.589 119.316Z" fill="#E68799"/>
<path d="M144.927 119.316H135.498C134.633 119.316 133.808 118.615 133.656 117.75L131.993 108.321C131.841 107.456 132.418 106.755 133.283 106.755H142.712C143.577 106.755 144.402 107.456 144.554 108.321L146.217 117.75C146.37 118.615 145.792 119.316 144.927 119.316Z" fill="#96E4FF"/>
<path d="M160.266 119.316H150.836C149.972 119.316 149.147 118.615 148.994 117.75L147.332 108.321C147.179 107.456 147.756 106.755 148.621 106.755H158.051C158.915 106.755 159.74 107.456 159.893 108.321L161.556 117.75C161.708 118.615 161.13 119.316 160.266 119.316Z" fill="#96E4FF"/>
<path d="M175.604 119.316H166.175C165.31 119.316 164.485 118.615 164.333 117.75L162.67 108.321C162.517 107.456 163.095 106.755 163.96 106.755H173.389C174.254 106.755 175.079 107.456 175.231 108.321L176.894 117.75C177.046 118.615 176.469 119.316 175.604 119.316Z" fill="#96E4FF"/>
<path d="M190.942 119.316H181.513C180.648 119.316 179.823 118.615 179.671 117.75L178.008 108.321C177.855 107.456 178.433 106.755 179.298 106.755H188.727C189.592 106.755 190.417 107.456 190.569 108.321L192.232 117.75C192.384 118.615 191.807 119.316 190.942 119.316Z" fill="#96E4FF"/>
<path d="M206.28 119.316H196.851C195.986 119.316 195.161 118.615 195.009 117.75L193.346 108.321C193.194 107.456 193.771 106.755 194.636 106.755H204.065C204.93 106.755 205.755 107.456 205.907 108.321L207.57 117.75C207.722 118.615 207.145 119.316 206.28 119.316Z" fill="#96E4FF"/>
<path d="M221.619 119.316H212.189C211.325 119.316 210.5 118.615 210.347 117.75L208.685 108.321C208.532 107.456 209.109 106.755 209.974 106.755H219.404C220.268 106.755 221.093 107.456 221.246 108.321L222.909 117.75C223.061 118.615 222.483 119.316 221.619 119.316Z" fill="#96E4FF"/>
<path d="M132.245 134.38H122.816C121.951 134.38 121.126 133.679 120.974 132.815L119.311 123.385C119.159 122.521 119.736 121.82 120.601 121.82H130.03C130.895 121.82 131.72 122.521 131.872 123.385L133.535 132.815C133.688 133.679 133.11 134.38 132.245 134.38Z" fill="#E68799"/>
<path d="M147.584 134.38H138.154C137.29 134.38 136.465 133.679 136.312 132.815L134.649 123.385C134.497 122.521 135.074 121.82 135.939 121.82H145.369C146.233 121.82 147.058 122.521 147.211 123.385L148.873 132.815C149.026 133.679 148.449 134.38 147.584 134.38Z" fill="#96E4FF"/>
<path d="M162.922 134.38H153.493C152.628 134.38 151.803 133.679 151.651 132.815L149.988 123.385C149.835 122.521 150.413 121.82 151.278 121.82H160.707C161.572 121.82 162.397 122.521 162.549 123.385L164.212 132.815C164.364 133.679 163.787 134.38 162.922 134.38Z" fill="#96E4FF"/>
<path d="M178.26 134.38H168.831C167.966 134.38 167.141 133.679 166.989 132.815L165.326 123.385C165.174 122.521 165.751 121.82 166.616 121.82H176.045C176.91 121.82 177.735 122.521 177.887 123.385L179.55 132.815C179.702 133.679 179.125 134.38 178.26 134.38Z" fill="#96E4FF"/>
<path d="M193.598 134.38H184.169C183.304 134.38 182.479 133.679 182.327 132.815L180.664 123.385C180.512 122.521 181.089 121.82 181.954 121.82H191.383C192.248 121.82 193.073 122.521 193.225 123.385L194.888 132.815C195.041 133.679 194.463 134.38 193.598 134.38Z" fill="#96E4FF"/>
<path d="M208.937 134.38H199.507C198.643 134.38 197.818 133.679 197.665 132.815L196.002 123.385C195.85 122.521 196.427 121.82 197.292 121.82H206.722C207.586 121.82 208.411 122.521 208.564 123.385L210.226 132.815C210.379 133.679 209.801 134.38 208.937 134.38Z" fill="#96E4FF"/>
<path d="M224.275 134.38H214.846C213.981 134.38 213.156 133.679 213.004 132.815L211.341 123.385C211.188 122.521 211.766 121.82 212.631 121.82H222.06C222.925 121.82 223.75 122.521 223.902 123.385L225.565 132.815C225.717 133.679 225.14 134.38 224.275 134.38Z" fill="#96E4FF"/>
<path d="M111.298 42.342C111.43 43.0881 110.932 43.6929 110.185 43.6929C109.439 43.6929 108.728 43.0881 108.596 42.342C108.465 41.596 108.963 40.9912 109.709 40.9912C110.455 40.9912 111.166 41.596 111.298 42.342Z" fill="#422C4F"/>
<path d="M109.947 25.5579C106.979 25.5579 104.593 28.7232 104.165 32.9824H106.155C106.53 29.9154 108.114 27.5337 109.947 27.5337C112.048 27.5337 113.822 30.6618 113.822 34.3648C113.822 37.8189 112.278 40.7718 110.365 41.1533C110.227 41.1808 110.088 41.1958 109.947 41.1958C109.712 41.1958 109.481 41.1545 109.256 41.0797C108.775 41.2707 108.494 41.7618 108.596 42.3423C108.641 42.598 108.758 42.8347 108.918 43.0386C109.252 43.1244 109.595 43.1717 109.947 43.1717C110.397 43.1717 110.833 43.0964 111.252 42.9581C113.885 42.0879 115.799 38.6256 115.799 34.3648C115.798 29.4263 113.228 25.5579 109.947 25.5579Z" fill="#C7D2D7"/>
<path d="M126.908 42.342C127.039 43.0881 126.541 43.6929 125.795 43.6929C125.049 43.6929 124.337 43.0881 124.206 42.342C124.074 41.596 124.572 40.9912 125.319 40.9912C126.065 40.9912 126.776 41.596 126.908 42.342Z" fill="#422C4F"/>
<path d="M125.556 25.5579C122.589 25.5579 120.203 28.7232 119.774 32.9824H121.765C122.139 29.9154 123.724 27.5337 125.557 27.5337C127.658 27.5337 129.432 30.6618 129.432 34.3648C129.432 37.8189 127.888 40.7718 125.975 41.1533C125.837 41.1808 125.698 41.1958 125.556 41.1958C125.321 41.1958 125.09 41.1545 124.865 41.0797C124.385 41.2707 124.103 41.7618 124.206 42.3423C124.251 42.598 124.367 42.8347 124.527 43.0386C124.861 43.1244 125.204 43.1717 125.557 43.1717C126.007 43.1717 126.443 43.0964 126.862 42.9581C129.494 42.0879 131.408 38.6256 131.408 34.3648C131.408 29.4263 128.837 25.5579 125.556 25.5579Z" fill="#C7D2D7"/>
<path d="M142.517 42.342C142.648 43.0881 142.15 43.6929 141.404 43.6929C140.657 43.6929 139.946 43.0881 139.815 42.342C139.683 41.596 140.181 40.9912 140.927 40.9912C141.673 40.9912 142.385 41.596 142.517 42.342Z" fill="#422C4F"/>
<path d="M141.165 25.5579C138.197 25.5579 135.812 28.7232 135.383 32.9824H137.374C137.748 29.9154 139.333 27.5337 141.166 27.5337C143.267 27.5337 145.041 30.6618 145.041 34.3648C145.041 37.8189 143.497 40.7718 141.584 41.1533C141.446 41.1808 141.306 41.1958 141.165 41.1958C140.93 41.1958 140.699 41.1545 140.474 41.0797C139.994 41.2707 139.712 41.7618 139.814 42.3423C139.86 42.598 139.976 42.8347 140.136 43.0386C140.47 43.1244 140.813 43.1717 141.166 43.1717C141.616 43.1717 142.052 43.0964 142.47 42.9581C145.103 42.0879 147.017 38.6256 147.017 34.3648C147.016 29.4263 144.446 25.5579 141.165 25.5579Z" fill="#C7D2D7"/>
<path d="M158.126 42.342C158.257 43.0881 157.759 43.6929 157.013 43.6929C156.267 43.6929 155.555 43.0881 155.424 42.342C155.292 41.596 155.79 40.9912 156.536 40.9912C157.282 40.9912 157.994 41.596 158.126 42.342Z" fill="#422C4F"/>
<path d="M156.775 25.5579C153.807 25.5579 151.421 28.7232 150.993 32.9824H152.984C153.358 29.9154 154.942 27.5337 156.775 27.5337C158.876 27.5337 160.65 30.6618 160.65 34.3648C160.65 37.8189 159.106 40.7718 157.193 41.1533C157.055 41.1808 156.916 41.1958 156.775 41.1958C156.54 41.1958 156.309 41.1545 156.084 41.0797C155.603 41.2707 155.321 41.7618 155.424 42.3423C155.469 42.598 155.586 42.8347 155.745 43.0386C156.079 43.1244 156.423 43.1717 156.775 43.1717C157.225 43.1717 157.661 43.0964 158.08 42.9581C160.712 42.0879 162.626 38.6256 162.626 34.3648C162.626 29.4263 160.056 25.5579 156.775 25.5579Z" fill="#C7D2D7"/>
<path d="M173.735 42.342C173.867 43.0881 173.369 43.6929 172.623 43.6929C171.877 43.6929 171.165 43.0881 171.034 42.342C170.902 41.596 171.4 40.9912 172.147 40.9912C172.892 40.9912 173.604 41.596 173.735 42.342Z" fill="#422C4F"/>
<path d="M172.384 25.5579C169.416 25.5579 167.03 28.7232 166.602 32.9824H168.592C168.967 29.9154 170.551 27.5337 172.384 27.5337C174.485 27.5337 176.259 30.6618 176.259 34.3648C176.259 37.8189 174.715 40.7718 172.802 41.1533C172.664 41.1808 172.525 41.1958 172.384 41.1958C172.149 41.1958 171.918 41.1545 171.693 41.0797C171.212 41.2707 170.93 41.7618 171.033 42.3423C171.078 42.598 171.195 42.8347 171.354 43.0386C171.688 43.1244 172.032 43.1717 172.384 43.1717C172.834 43.1717 173.27 43.0964 173.689 42.9581C176.321 42.0879 178.235 38.6256 178.235 34.3648C178.235 29.4263 175.665 25.5579 172.384 25.5579Z" fill="#C7D2D7"/>
<path d="M189.344 42.342C189.476 43.0881 188.978 43.6929 188.232 43.6929C187.486 43.6929 186.774 43.0881 186.643 42.342C186.511 41.596 187.009 40.9912 187.755 40.9912C188.501 40.9912 189.213 41.596 189.344 42.342Z" fill="#422C4F"/>
<path d="M187.993 25.5579C185.025 25.5579 182.639 28.7232 182.211 32.9824H184.201C184.576 29.9154 186.16 27.5337 187.993 27.5337C190.094 27.5337 191.868 30.6618 191.868 34.3648C191.868 37.8189 190.324 40.7718 188.411 41.1533C188.273 41.1808 188.134 41.1958 187.993 41.1958C187.757 41.1958 187.526 41.1545 187.302 41.0797C186.821 41.2707 186.539 41.7618 186.642 42.3423C186.687 42.598 186.804 42.8347 186.963 43.0386C187.297 43.1244 187.641 43.1717 187.993 43.1717C188.443 43.1717 188.879 43.0964 189.298 42.9581C191.93 42.0879 193.844 38.6256 193.844 34.3648C193.844 29.4263 191.274 25.5579 187.993 25.5579Z" fill="#C7D2D7"/>
<path d="M204.954 42.342C205.085 43.0881 204.587 43.6929 203.841 43.6929C203.095 43.6929 202.383 43.0881 202.252 42.342C202.12 41.596 202.618 40.9912 203.364 40.9912C204.11 40.9912 204.822 41.596 204.954 42.342Z" fill="#422C4F"/>
<path d="M203.603 25.5579C200.635 25.5579 198.249 28.7232 197.821 32.9824H199.811C200.185 29.9154 201.77 27.5337 203.603 27.5337C205.704 27.5337 207.478 30.6618 207.478 34.3648C207.478 37.8189 205.934 40.7718 204.021 41.1533C203.883 41.1808 203.744 41.1958 203.603 41.1958C203.368 41.1958 203.137 41.1545 202.912 41.0797C202.431 41.2707 202.15 41.7618 202.252 42.3423C202.297 42.598 202.414 42.8347 202.574 43.0386C202.907 43.1244 203.251 43.1717 203.603 43.1717C204.053 43.1717 204.489 43.0964 204.908 42.9581C207.54 42.0879 209.454 38.6256 209.454 34.3648C209.454 29.4263 206.884 25.5579 203.603 25.5579Z" fill="#C7D2D7"/>
<path d="M98.0472 32.9827L79.4131 138.661H98.0472H116.681L98.0472 32.9827Z" fill="#1792AF"/>
<path d="M98.047 32.9827L94.374 53.8144L109.335 138.661H116.681L98.047 32.9827Z" fill="#468097"/>
<path d="M88.5684 157.332H27.7558C24.4914 157.332 21.8447 154.686 21.8447 151.421V27.0956C21.8447 23.8312 24.491 21.1846 27.7558 21.1846H88.5684C91.8328 21.1846 94.4794 23.8308 94.4794 27.0956V151.421C94.4794 154.685 91.8332 157.332 88.5684 157.332Z" fill="#454F6B"/>
<path d="M21.8446 60.065C21.2528 60.065 20.7729 59.5852 20.7729 58.9937V45.6698C20.7729 45.078 21.2528 44.5981 21.8446 44.5981V60.065Z" fill="#454F6B"/>
<path d="M94.4795 49.2561C95.0714 49.2561 95.5508 49.7359 95.5508 50.3278V63.6516C95.5508 64.2435 95.071 64.7233 94.4795 64.7233V49.2561Z" fill="#454F6B"/>
<path d="M21.8446 77.4037C21.2528 77.4037 20.7729 76.9239 20.7729 76.3321V63.0082C20.7729 62.4163 21.2528 61.9365 21.8446 61.9365V77.4037Z" fill="#454F6B"/>
<path d="M88.5684 23.1553H78.9879L77.2171 28.5716C76.4226 31.0018 74.1558 32.6455 71.599 32.6455H44.7247C42.1679 32.6455 39.9011 31.0018 39.1066 28.5716L37.3358 23.1553H27.7554C25.5792 23.1553 23.8149 24.9196 23.8149 27.0957V151.421C23.8149 153.597 25.5792 155.361 27.7554 155.361H88.5684C90.7445 155.361 92.5088 153.597 92.5088 151.421V27.0957C92.5088 24.9196 90.7449 23.1553 88.5684 23.1553Z" fill="#96E4FF"/>
<path d="M61.0434 28.1135H51.1263C50.5462 28.1135 50.0757 27.643 50.0757 27.0629C50.0757 26.4823 50.5462 26.0122 51.1263 26.0122H61.0434C61.6239 26.0122 62.0944 26.4827 62.0944 27.0629C62.0944 27.643 61.6239 28.1135 61.0434 28.1135Z" fill="#402C49"/>
<path d="M66.2483 27.0629C66.2483 27.6434 65.7778 28.1135 65.1976 28.1135C64.6171 28.1135 64.147 27.643 64.147 27.0629C64.147 26.4823 64.6175 26.0122 65.1976 26.0122C65.7782 26.0118 66.2483 26.4823 66.2483 27.0629Z" fill="#402C49"/>
<path d="M75.5593 47.5464H40.7642V48.8685H75.5593V47.5464Z" fill="white"/>
<path d="M69.6836 49.8472H46.6401V51.1693H69.6836V49.8472Z" fill="white"/>
<path d="M49.1918 52.6207C48.5598 52.6207 47.973 52.5229 47.4313 52.3273C46.8972 52.1242 46.4307 51.8383 46.032 51.4697C45.6408 51.101 45.3361 50.6647 45.1179 50.1606C44.8997 49.6566 44.7906 49.0998 44.7906 48.4904C44.7906 47.881 44.8997 47.3243 45.1179 46.8203C45.3361 46.3162 45.6408 45.8798 46.032 45.5112C46.4307 45.1426 46.8972 44.8604 47.4313 44.6648C47.973 44.4617 48.5598 44.3601 49.1918 44.3601C49.9667 44.3601 50.6513 44.4955 51.2457 44.7664C51.8475 45.0372 52.3441 45.4284 52.7353 45.94L51.0538 47.4409C50.8206 47.1475 50.561 46.9218 50.2752 46.7638C49.9968 46.5983 49.6808 46.5156 49.3272 46.5156C49.0489 46.5156 48.7968 46.5607 48.5711 46.651C48.3454 46.7413 48.1498 46.8729 47.9843 47.046C47.8263 47.219 47.7022 47.4296 47.6119 47.6779C47.5216 47.9187 47.4765 48.1895 47.4765 48.4904C47.4765 48.7914 47.5216 49.066 47.6119 49.3142C47.7022 49.555 47.8263 49.7619 47.9843 49.9349C48.1498 50.108 48.3454 50.2396 48.5711 50.3299C48.7968 50.4202 49.0489 50.4653 49.3272 50.4653C49.6808 50.4653 49.9968 50.3863 50.2752 50.2283C50.561 50.0628 50.8206 49.8334 51.0538 49.5399L52.7353 51.0408C52.3441 51.5449 51.8475 51.9361 51.2457 52.2145C50.6513 52.4853 49.9667 52.6207 49.1918 52.6207ZM52.5364 52.4402L55.9896 44.5407H58.6077L62.0609 52.4402H59.3074L56.757 45.8046H57.7952L55.2448 52.4402H52.5364ZM54.5903 51.0634L55.2674 49.145H58.9011L59.5782 51.0634H54.5903ZM62.486 52.4402V44.5407H65.1492V50.375H68.7153V52.4402H62.486ZM47.5442 61.4748H51.0651V63.3932H47.5442V61.4748ZM47.7247 64.4315H51.6745V66.4402H45.1066V58.5407H51.5278V60.5494H47.7247V64.4315ZM52.6998 66.4402V58.5407H54.889L58.9065 63.3481H57.8909V58.5407H60.4864V66.4402H58.2971L54.2797 61.6328H55.2953V66.4402H52.6998ZM61.7696 66.4402V58.5407H65.663C66.5432 58.5407 67.3181 58.7024 67.9877 59.0259C68.6572 59.3419 69.1801 59.7933 69.5563 60.3801C69.9324 60.967 70.1205 61.6666 70.1205 62.4792C70.1205 63.2992 69.9324 64.0064 69.5563 64.6007C69.1801 65.1876 68.6572 65.6427 67.9877 65.9662C67.3181 66.2822 66.5432 66.4402 65.663 66.4402H61.7696ZM64.4329 64.3637H65.5501C65.9263 64.3637 66.2535 64.2923 66.5319 64.1493C66.8178 64.0064 67.0397 63.7957 67.1977 63.5174C67.3557 63.2315 67.4347 62.8854 67.4347 62.4792C67.4347 62.0804 67.3557 61.7419 67.1977 61.4635C67.0397 61.1851 66.8178 60.9745 66.5319 60.8315C66.2535 60.6886 65.9263 60.6171 65.5501 60.6171H64.4329V64.3637ZM44.249 80.4402L47.7022 72.5407H50.3203L53.7735 80.4402H51.02L48.4696 73.8046H49.5078L46.9574 80.4402H44.249ZM46.3028 79.0634L46.9799 77.145H50.6137L51.2908 79.0634H46.3028ZM54.1985 80.4402V72.5407H58.0016C58.7389 72.5407 59.3746 72.6611 59.9088 72.9018C60.4504 73.1426 60.868 73.4886 61.1614 73.94C61.4548 74.3839 61.6015 74.9105 61.6015 75.5199C61.6015 76.1293 61.4548 76.6559 61.1614 77.0998C60.868 77.5362 60.4504 77.871 59.9088 78.1042C59.3746 78.3374 58.7389 78.454 58.0016 78.454H55.6769L56.8618 77.3594V80.4402H54.1985ZM58.927 80.4402L56.9859 77.5625H59.8072L61.7708 80.4402H58.927ZM56.8618 77.6528L55.6769 76.4453H57.8323C58.201 76.4453 58.4718 76.3625 58.6448 76.197C58.8254 76.0315 58.9157 75.8058 58.9157 75.5199C58.9157 75.234 58.8254 75.0083 58.6448 74.8428C58.4718 74.6773 58.201 74.5946 57.8323 74.5946H55.6769L56.8618 73.3871V77.6528Z" fill="white"/>
<path d="M35.2788 61.4964H30.5729C29.9883 61.4964 29.5142 61.0223 29.5142 60.4377V55.7318C29.5142 55.1472 29.9883 54.6731 30.5729 54.6731H35.2788C35.8638 54.6731 36.3375 55.1472 36.3375 55.7318V60.4377C36.3379 61.0223 35.8638 61.4964 35.2788 61.4964Z" fill="#E68799"/>
<path d="M43.6909 61.4964H38.985C38.4004 61.4964 37.9263 61.0223 37.9263 60.4377V55.7318C37.9263 55.1472 38.4004 54.6731 38.985 54.6731H43.6909C44.2759 54.6731 44.7496 55.1472 44.7496 55.7318V60.4377C44.7496 61.0223 44.2759 61.4964 43.6909 61.4964Z" fill="white"/>
<path d="M52.103 61.4964H47.3971C46.8125 61.4964 46.3384 61.0223 46.3384 60.4377V55.7318C46.3384 55.1472 46.8125 54.6731 47.3971 54.6731H52.103C52.6876 54.6731 53.1617 55.1472 53.1617 55.7318V60.4377C53.1617 61.0223 52.6876 61.4964 52.103 61.4964Z" fill="white"/>
<path d="M60.5151 61.4964H55.8092C55.2246 61.4964 54.7505 61.0223 54.7505 60.4377V55.7318C54.7505 55.1472 55.2246 54.6731 55.8092 54.6731H60.5151C61.0997 54.6731 61.5738 55.1472 61.5738 55.7318V60.4377C61.5738 61.0223 61.0997 61.4964 60.5151 61.4964Z" fill="white"/>
<path d="M68.9267 61.4964H64.2209C63.6363 61.4964 63.1621 61.0223 63.1621 60.4377V55.7318C63.1621 55.1472 63.6363 54.6731 64.2209 54.6731H68.9267C69.5113 54.6731 69.9855 55.1472 69.9855 55.7318V60.4377C69.9859 61.0223 69.5117 61.4964 68.9267 61.4964Z" fill="white"/>
<path d="M77.3388 61.4964H72.633C72.0484 61.4964 71.5742 61.0223 71.5742 60.4377V55.7318C71.5742 55.1472 72.0484 54.6731 72.633 54.6731H77.3388C77.9234 54.6731 78.3976 55.1472 78.3976 55.7318V60.4377C78.3976 61.0223 77.9238 61.4964 77.3388 61.4964Z" fill="white"/>
<path d="M85.7509 61.4964H81.0451C80.4605 61.4964 79.9863 61.0223 79.9863 60.4377V55.7318C79.9863 55.1472 80.4605 54.6731 81.0451 54.6731H85.7509C86.3355 54.6731 86.8097 55.1472 86.8097 55.7318V60.4377C86.8097 61.0223 86.3355 61.4964 85.7509 61.4964Z" fill="white"/>
<path d="M35.2788 69.7694H30.5729C29.9883 69.7694 29.5142 69.2952 29.5142 68.7107V64.0048C29.5142 63.4202 29.9883 62.946 30.5729 62.946H35.2788C35.8638 62.946 36.3375 63.4202 36.3375 64.0048V68.7107C36.3379 69.2952 35.8638 69.7694 35.2788 69.7694Z" fill="#E68799"/>
<path d="M43.6909 69.7694H38.985C38.4004 69.7694 37.9263 69.2952 37.9263 68.7107V64.0048C37.9263 63.4202 38.4004 62.946 38.985 62.946H43.6909C44.2759 62.946 44.7496 63.4202 44.7496 64.0048V68.7107C44.7496 69.2952 44.2759 69.7694 43.6909 69.7694Z" fill="white"/>
<path d="M52.103 69.7694H47.3971C46.8125 69.7694 46.3384 69.2952 46.3384 68.7107V64.0048C46.3384 63.4202 46.8125 62.946 47.3971 62.946H52.103C52.6876 62.946 53.1617 63.4202 53.1617 64.0048V68.7107C53.1617 69.2952 52.6876 69.7694 52.103 69.7694Z" fill="#F4D071"/>
<path d="M60.5151 69.7694H55.8092C55.2246 69.7694 54.7505 69.2952 54.7505 68.7107V64.0048C54.7505 63.4202 55.2246 62.946 55.8092 62.946H60.5151C61.0997 62.946 61.5738 63.4202 61.5738 64.0048V68.7107C61.5738 69.2952 61.0997 69.7694 60.5151 69.7694Z" fill="white"/>
<path d="M68.9267 69.7694H64.2209C63.6363 69.7694 63.1621 69.2952 63.1621 68.7107V64.0048C63.1621 63.4202 63.6363 62.946 64.2209 62.946H68.9267C69.5113 62.946 69.9855 63.4202 69.9855 64.0048V68.7107C69.9859 69.2952 69.5117 69.7694 68.9267 69.7694Z" fill="white"/>
<path d="M77.3388 69.7694H72.633C72.0484 69.7694 71.5742 69.2952 71.5742 68.7107V64.0048C71.5742 63.4202 72.0484 62.946 72.633 62.946H77.3388C77.9234 62.946 78.3976 63.4202 78.3976 64.0048V68.7107C78.3976 69.2952 77.9238 69.7694 77.3388 69.7694Z" fill="white"/>
<path d="M85.7509 69.7694H81.0451C80.4605 69.7694 79.9863 69.2952 79.9863 68.7107V64.0048C79.9863 63.4202 80.4605 62.946 81.0451 62.946H85.7509C86.3355 62.946 86.8097 63.4202 86.8097 64.0048V68.7107C86.8097 69.2952 86.3355 69.7694 85.7509 69.7694Z" fill="white"/>
<path d="M35.2788 78.0421H30.5729C29.9883 78.0421 29.5142 77.5679 29.5142 76.9834V72.2775C29.5142 71.6929 29.9883 71.2188 30.5729 71.2188H35.2788C35.8638 71.2188 36.3375 71.6929 36.3375 72.2775V76.9834C36.3379 77.5679 35.8638 78.0421 35.2788 78.0421Z" fill="#E68799"/>
<path d="M43.6909 78.0421H38.985C38.4004 78.0421 37.9263 77.5679 37.9263 76.9834V72.2775C37.9263 71.6929 38.4004 71.2188 38.985 71.2188H43.6909C44.2759 71.2188 44.7496 71.6929 44.7496 72.2775V76.9834C44.7496 77.5679 44.2759 78.0421 43.6909 78.0421Z" fill="white"/>
<path d="M52.103 78.0421H47.3971C46.8125 78.0421 46.3384 77.5679 46.3384 76.9834V72.2775C46.3384 71.6929 46.8125 71.2188 47.3971 71.2188H52.103C52.6876 71.2188 53.1617 71.6929 53.1617 72.2775V76.9834C53.1617 77.5679 52.6876 78.0421 52.103 78.0421Z" fill="white"/>
<path d="M60.5151 78.0421H55.8092C55.2246 78.0421 54.7505 77.5679 54.7505 76.9834V72.2775C54.7505 71.6929 55.2246 71.2188 55.8092 71.2188H60.5151C61.0997 71.2188 61.5738 71.6929 61.5738 72.2775V76.9834C61.5738 77.5679 61.0997 78.0421 60.5151 78.0421Z" fill="white"/>
<path d="M68.9267 78.0421H64.2209C63.6363 78.0421 63.1621 77.5679 63.1621 76.9834V72.2775C63.1621 71.6929 63.6363 71.2188 64.2209 71.2188H68.9267C69.5113 71.2188 69.9855 71.6929 69.9855 72.2775V76.9834C69.9859 77.5679 69.5117 78.0421 68.9267 78.0421Z" fill="#F4D071"/>
<path d="M77.3388 78.0421H72.633C72.0484 78.0421 71.5742 77.5679 71.5742 76.9834V72.2775C71.5742 71.6929 72.0484 71.2188 72.633 71.2188H77.3388C77.9234 71.2188 78.3976 71.6929 78.3976 72.2775V76.9834C78.3976 77.5679 77.9238 78.0421 77.3388 78.0421Z" fill="white"/>
<path d="M85.7509 78.0421H81.0451C80.4605 78.0421 79.9863 77.5679 79.9863 76.9834V72.2775C79.9863 71.6929 80.4605 71.2188 81.0451 71.2188H85.7509C86.3355 71.2188 86.8097 71.6929 86.8097 72.2775V76.9834C86.8097 77.5679 86.3355 78.0421 85.7509 78.0421Z" fill="white"/>
<path d="M35.2788 86.3152H30.5729C29.9883 86.3152 29.5142 85.8411 29.5142 85.2565V80.5502C29.5142 79.9656 29.9883 79.4915 30.5729 79.4915H35.2788C35.8638 79.4915 36.3375 79.9656 36.3375 80.5502V85.2561C36.3379 85.8411 35.8638 86.3152 35.2788 86.3152Z" fill="#E68799"/>
<path d="M43.6909 86.3152H38.985C38.4004 86.3152 37.9263 85.8411 37.9263 85.2565V80.5502C37.9263 79.9656 38.4004 79.4915 38.985 79.4915H43.6909C44.2759 79.4915 44.7496 79.9656 44.7496 80.5502V85.2561C44.7496 85.8411 44.2759 86.3152 43.6909 86.3152Z" fill="white"/>
<path d="M52.103 86.3152H47.3971C46.8125 86.3152 46.3384 85.8411 46.3384 85.2565V80.5502C46.3384 79.9656 46.8125 79.4915 47.3971 79.4915H52.103C52.6876 79.4915 53.1617 79.9656 53.1617 80.5502V85.2561C53.1617 85.8411 52.6876 86.3152 52.103 86.3152Z" fill="white"/>
<path d="M60.5151 86.3152H55.8092C55.2246 86.3152 54.7505 85.8411 54.7505 85.2565V80.5502C54.7505 79.9656 55.2246 79.4915 55.8092 79.4915H60.5151C61.0997 79.4915 61.5738 79.9656 61.5738 80.5502V85.2561C61.5738 85.8411 61.0997 86.3152 60.5151 86.3152Z" fill="white"/>
<path d="M68.9267 86.3152H64.2209C63.6363 86.3152 63.1621 85.8411 63.1621 85.2565V80.5502C63.1621 79.9656 63.6363 79.4915 64.2209 79.4915H68.9267C69.5113 79.4915 69.9855 79.9656 69.9855 80.5502V85.2561C69.9859 85.8411 69.5117 86.3152 68.9267 86.3152Z" fill="white"/>
<path d="M77.3388 86.3152H72.633C72.0484 86.3152 71.5742 85.8411 71.5742 85.2565V80.5502C71.5742 79.9656 72.0484 79.4915 72.633 79.4915H77.3388C77.9234 79.4915 78.3976 79.9656 78.3976 80.5502V85.2561C78.3976 85.8411 77.9238 86.3152 77.3388 86.3152Z" fill="white"/>
<path d="M85.7509 86.3152H81.0451C80.4605 86.3152 79.9863 85.8411 79.9863 85.2565V80.5502C79.9863 79.9656 80.4605 79.4915 81.0451 79.4915H85.7509C86.3355 79.4915 86.8097 79.9656 86.8097 80.5502V85.2561C86.8097 85.8411 86.3355 86.3152 85.7509 86.3152Z" fill="white"/>
<path d="M35.2788 94.5882H30.5729C29.9883 94.5882 29.5142 94.1141 29.5142 93.5295V88.8236C29.5142 88.239 29.9883 87.7649 30.5729 87.7649H35.2788C35.8638 87.7649 36.3375 88.239 36.3375 88.8236V93.5295C36.3379 94.1141 35.8638 94.5882 35.2788 94.5882Z" fill="#E68799"/>
<path d="M43.6909 94.5885H38.985C38.4004 94.5885 37.9263 94.1143 37.9263 93.5297V88.8239C37.9263 88.2393 38.4004 87.7651 38.985 87.7651H43.6909C44.2759 87.7651 44.7496 88.2393 44.7496 88.8239V93.5297C44.7496 94.1143 44.2759 94.5885 43.6909 94.5885Z" fill="white"/>
<path d="M52.103 94.5885H47.3971C46.8125 94.5885 46.3384 94.1143 46.3384 93.5297V88.8239C46.3384 88.2393 46.8125 87.7651 47.3971 87.7651H52.103C52.6876 87.7651 53.1617 88.2393 53.1617 88.8239V93.5297C53.1617 94.1143 52.6876 94.5885 52.103 94.5885Z" fill="#F4D071"/>
<path d="M60.5151 94.5885H55.8092C55.2246 94.5885 54.7505 94.1143 54.7505 93.5297V88.8239C54.7505 88.2393 55.2246 87.7651 55.8092 87.7651H60.5151C61.0997 87.7651 61.5738 88.2393 61.5738 88.8239V93.5297C61.5738 94.1143 61.0997 94.5885 60.5151 94.5885Z" fill="#B6F0FF"/>
<path d="M68.9267 94.5885H64.2209C63.6363 94.5885 63.1621 94.1143 63.1621 93.5297V88.8239C63.1621 88.2393 63.6363 87.7651 64.2209 87.7651H68.9267C69.5113 87.7651 69.9855 88.2393 69.9855 88.8239V93.5297C69.9859 94.1143 69.5117 94.5885 68.9267 94.5885Z" fill="#B6F0FF"/>
<path d="M77.3388 94.5885H72.633C72.0484 94.5885 71.5742 94.1143 71.5742 93.5297V88.8239C71.5742 88.2393 72.0484 87.7651 72.633 87.7651H77.3388C77.9234 87.7651 78.3976 88.2393 78.3976 88.8239V93.5297C78.3976 94.1143 77.9238 94.5885 77.3388 94.5885Z" fill="#B6F0FF"/>
<path d="M85.7509 94.5885H81.0451C80.4605 94.5885 79.9863 94.1143 79.9863 93.5297V88.8239C79.9863 88.2393 80.4605 87.7651 81.0451 87.7651H85.7509C86.3355 87.7651 86.8097 88.2393 86.8097 88.8239V93.5297C86.8097 94.1143 86.3355 94.5885 85.7509 94.5885Z" fill="#B6F0FF"/>
<path d="M84.1256 113.205H32.198C30.7157 113.205 29.5142 112.004 29.5142 110.521V102.226C29.5142 100.744 30.7157 99.5425 32.198 99.5425H84.1256C85.6079 99.5425 86.8095 100.744 86.8095 102.226V110.521C86.8095 112.003 85.6079 113.205 84.1256 113.205Z" fill="white"/>
<path d="M84.1256 129.855H32.198C30.7157 129.855 29.5142 128.653 29.5142 127.171V118.876C29.5142 117.393 30.7157 116.192 32.198 116.192H84.1256C85.6079 116.192 86.8095 117.393 86.8095 118.876V127.171C86.8095 128.653 85.6079 129.855 84.1256 129.855Z" fill="white"/>
<path d="M84.1256 146.504H32.198C30.7157 146.504 29.5142 145.303 29.5142 143.82V135.525C29.5142 134.043 30.7157 132.841 32.198 132.841H84.1256C85.6079 132.841 86.8095 134.043 86.8095 135.525V143.82C86.8095 145.303 85.6079 146.504 84.1256 146.504Z" fill="white"/>
<path d="M33.9168 103.555H33.2023L33.0761 103.883H32.4316L33.2533 102.003H33.8763L34.6984 103.883H34.043L33.9168 103.555ZM33.742 103.099L33.5596 102.626L33.3767 103.099H33.742Z" fill="#F4D071"/>
<path d="M36.4693 103.149C36.4693 103.622 36.1445 103.909 35.7605 103.909C35.5995 103.909 35.4757 103.869 35.3871 103.783V104.403H34.7803V102.414H35.3576V102.535C35.4462 102.435 35.5777 102.387 35.7605 102.387C36.1445 102.387 36.4693 102.677 36.4693 103.149ZM35.8548 103.149C35.8548 102.959 35.75 102.86 35.6157 102.86C35.4814 102.86 35.3766 102.959 35.3766 103.149C35.3766 103.34 35.4814 103.437 35.6157 103.437C35.7496 103.437 35.8548 103.34 35.8548 103.149Z" fill="#F4D071"/>
<path d="M38.3477 103.149C38.3477 103.622 38.0229 103.909 37.6389 103.909C37.4779 103.909 37.3541 103.869 37.2655 103.783V104.403H36.6587V102.414H37.236V102.535C37.3246 102.435 37.4561 102.387 37.6389 102.387C38.0229 102.387 38.3477 102.677 38.3477 103.149ZM37.7328 103.149C37.7328 102.959 37.628 102.86 37.4937 102.86C37.3594 102.86 37.255 102.959 37.255 103.149C37.255 103.34 37.3598 103.437 37.4937 103.437C37.6276 103.437 37.7328 103.34 37.7328 103.149Z" fill="#F4D071"/>
<path d="M38.4595 103.147C38.4595 102.701 38.8167 102.387 39.3135 102.387C39.8127 102.387 40.1675 102.701 40.1675 103.147C40.1675 103.592 39.8127 103.909 39.3135 103.909C38.8167 103.909 38.4595 103.592 38.4595 103.147ZM39.5526 103.147C39.5526 102.956 39.4478 102.86 39.3139 102.86C39.1796 102.86 39.0748 102.956 39.0748 103.147C39.0748 103.337 39.1796 103.437 39.3139 103.437C39.4478 103.437 39.5526 103.337 39.5526 103.147Z" fill="#F4D071"/>
<path d="M40.2954 101.987C40.2954 101.812 40.4378 101.678 40.6607 101.678C40.8836 101.678 41.026 101.802 41.026 101.976C41.026 102.161 40.8836 102.295 40.6607 102.295C40.4378 102.295 40.2954 102.161 40.2954 101.987ZM40.3573 102.414H40.9642V103.883H40.3573V102.414Z" fill="#F4D071"/>
<path d="M42.8543 103.044V103.882H42.2475V103.149C42.2475 102.966 42.1775 102.897 42.0674 102.897C41.9441 102.897 41.8393 102.974 41.8393 103.192V103.882H41.2324V102.413H41.8097V102.558C41.9254 102.443 42.0812 102.386 42.2527 102.386C42.5909 102.387 42.8543 102.583 42.8543 103.044Z" fill="#F4D071"/>
<path d="M44.1989 103.832C44.1051 103.885 43.9679 103.91 43.8255 103.91C43.4202 103.91 43.1839 103.719 43.1839 103.314V102.937H42.9824V102.494H43.1839V102.084H43.7907V102.494H44.0917V102.937H43.7907V103.308C43.7907 103.399 43.8445 103.45 43.917 103.45C43.9651 103.45 44.0136 103.437 44.0537 103.41L44.1989 103.832Z" fill="#F4D071"/>
<path d="M46.8804 103.045V103.882H46.2736V103.149C46.2736 102.966 46.2064 102.897 46.1097 102.897C46.0025 102.897 45.9192 102.97 45.9192 103.166V103.882H45.3123V103.149C45.3123 102.966 45.2504 102.897 45.1485 102.897C45.0413 102.897 44.9579 102.97 44.9579 103.166V103.882H44.3511V102.413H44.9284V102.551C45.0384 102.441 45.1837 102.387 45.3447 102.387C45.5356 102.387 45.7019 102.457 45.8039 102.61C45.922 102.467 46.0939 102.387 46.2954 102.387C46.6279 102.387 46.8804 102.583 46.8804 103.045Z" fill="#F4D071"/>
<path d="M48.7237 103.289H47.7034C47.7463 103.402 47.8482 103.461 47.9987 103.461C48.1331 103.461 48.2083 103.426 48.305 103.354L48.6218 103.673C48.4794 103.829 48.2726 103.909 47.9801 103.909C47.4404 103.909 47.0913 103.585 47.0913 103.147C47.0913 102.701 47.4485 102.387 47.9239 102.387C48.3588 102.387 48.7322 102.65 48.7322 103.147C48.7318 103.19 48.7266 103.246 48.7237 103.289ZM47.6925 102.996H48.165C48.1407 102.873 48.0521 102.801 47.9287 102.801C47.8029 102.801 47.7168 102.873 47.6925 102.996Z" fill="#F4D071"/>
<path d="M50.5433 103.044V103.882H49.9364V103.149C49.9364 102.966 49.8664 102.897 49.7564 102.897C49.633 102.897 49.5282 102.974 49.5282 103.192V103.882H48.9214V102.413H49.4987V102.558C49.614 102.443 49.7702 102.386 49.9417 102.386C50.2803 102.387 50.5433 102.583 50.5433 103.044Z" fill="#F4D071"/>
<path d="M51.8879 103.832C51.794 103.885 51.6569 103.91 51.5145 103.91C51.1091 103.91 50.8729 103.719 50.8729 103.314V102.937H50.6714V102.494H50.8729V102.084H51.4797V102.494H51.7807V102.937H51.4797V103.308C51.4797 103.399 51.5335 103.45 51.6059 103.45C51.6541 103.45 51.7026 103.437 51.7427 103.41L51.8879 103.832Z" fill="#F4D071"/>
<path d="M54.7171 103.365C54.7171 103.692 54.4404 103.883 53.9222 103.883H52.8643V102.003H53.8684C54.3866 102.003 54.6281 102.21 54.6281 102.494C54.6281 102.669 54.5395 102.814 54.3676 102.9C54.5881 102.98 54.7171 103.142 54.7171 103.365ZM53.4869 102.446V102.725H53.7822C53.9246 102.725 53.9889 102.677 53.9889 102.586C53.9889 102.494 53.9242 102.446 53.7822 102.446H53.4869ZM54.0779 103.292C54.0779 103.195 54.008 103.144 53.8684 103.144H53.4869V103.439H53.8684C54.008 103.44 54.0779 103.388 54.0779 103.292Z" fill="#F4D071"/>
<path d="M54.8423 103.147C54.8423 102.701 55.1995 102.387 55.6963 102.387C56.1955 102.387 56.5503 102.701 56.5503 103.147C56.5503 103.592 56.196 103.909 55.6963 103.909C55.1995 103.909 54.8423 103.592 54.8423 103.147ZM55.9354 103.147C55.9354 102.956 55.8306 102.86 55.6967 102.86C55.5624 102.86 55.4576 102.956 55.4576 103.147C55.4576 103.337 55.5624 103.437 55.6967 103.437C55.8306 103.437 55.9354 103.337 55.9354 103.147Z" fill="#F4D071"/>
<path d="M56.6621 103.147C56.6621 102.701 57.0193 102.387 57.5161 102.387C58.0154 102.387 58.3702 102.701 58.3702 103.147C58.3702 103.592 58.0158 103.909 57.5161 103.909C57.0193 103.909 56.6621 103.592 56.6621 103.147ZM57.7548 103.147C57.7548 102.956 57.65 102.86 57.5161 102.86C57.3818 102.86 57.277 102.956 57.277 103.147C57.277 103.337 57.3818 103.437 57.5161 103.437C57.6505 103.437 57.7548 103.337 57.7548 103.147Z" fill="#F4D071"/>
<path d="M59.2631 103.431L59.1664 103.536V103.882H58.5596V101.889H59.1664V102.84L59.588 102.413H60.3048L59.698 103.05L60.3534 103.882H59.6203L59.2631 103.431Z" fill="#F4D071"/>
<path d="M60.4116 101.987C60.4116 101.812 60.554 101.678 60.7769 101.678C60.9999 101.678 61.1423 101.802 61.1423 101.976C61.1423 102.161 60.9999 102.295 60.7769 102.295C60.554 102.295 60.4116 102.161 60.4116 101.987ZM60.4731 102.414H61.08V103.883H60.4731V102.414Z" fill="#F4D071"/>
<path d="M62.97 103.044V103.882H62.3632V103.149C62.3632 102.966 62.2932 102.897 62.1832 102.897C62.0598 102.897 61.955 102.974 61.955 103.192V103.882H61.3481V102.413H61.9255V102.558C62.0412 102.443 62.1969 102.386 62.3685 102.386C62.7071 102.387 62.97 102.583 62.97 103.044Z" fill="#F4D071"/>
<path d="M64.8996 102.414V103.59C64.8996 104.159 64.5667 104.43 64.0056 104.43C63.7155 104.43 63.4525 104.369 63.2697 104.248L63.4736 103.834C63.5889 103.923 63.7851 103.979 63.9433 103.979C64.1929 103.979 64.2924 103.869 64.2924 103.673V103.646C64.201 103.751 64.0666 103.802 63.887 103.802C63.5136 103.802 63.1807 103.528 63.1807 103.093C63.1807 102.658 63.5136 102.386 63.887 102.386C64.0881 102.386 64.2309 102.448 64.3219 102.58V102.413H64.8996V102.414ZM64.2981 103.093C64.2981 102.951 64.1904 102.86 64.0484 102.86C63.906 102.86 63.796 102.951 63.796 103.093C63.796 103.236 63.906 103.33 64.0484 103.33C64.1904 103.33 64.2981 103.235 64.2981 103.093Z" fill="#F4D071"/>
<path d="M82.3858 105.958H32.4316V107.236H82.3858V105.958Z" fill="#F4D071"/>
<path d="M58.8787 108.763H32.4316V110.04H58.8787V108.763Z" fill="#F4D071"/>
<path d="M82.3858 119.58H32.4316V120.857H82.3858V119.58Z" fill="#F4D071"/>
<path d="M82.3858 122.385H32.4316V123.662H82.3858V122.385Z" fill="#F4D071"/>
<path d="M58.8787 125.189H32.4316V126.467H58.8787V125.189Z" fill="#F4D071"/>
<path d="M82.3858 136.229H32.4316V137.507H82.3858V136.229Z" fill="#F4D071"/>
<path d="M82.3858 139.034H32.4316V140.311H82.3858V139.034Z" fill="#F4D071"/>
<path d="M46.5763 141.839H32.4316V143.116H46.5763V141.839Z" fill="#F4D071"/>
<path d="M224.378 156.612L192.043 166.325H171.211L171.438 134.885L168.733 146.515L153.957 139.614L162.936 113.004C163.951 109.994 165.923 107.4 168.549 105.615L177.01 99.8666L182.33 100.25L194.152 93.9875L213.569 101.807L224.378 156.612Z" fill="#6CA8BF"/>
<path d="M171.438 134.885L169.411 115.854L168.76 120.4C168.287 123.702 168.203 127.048 168.51 130.369L168.8 133.512C168.936 134.989 168.783 136.478 168.348 137.895L166.083 145.278L168.734 146.516L171.438 134.885Z" fill="#468097"/>
<path d="M209.295 109.477C207.444 111.257 205.527 116.481 205.192 118.35L209.809 148.816L188.369 163.834L192.044 166.326L224.379 156.613L215.263 110.393L209.295 109.477Z" fill="#468097"/>
<path d="M182.33 100.25L182.518 101.837C182.711 103.47 183.198 105.055 183.956 106.514L184.918 108.365L183.87 110.423C183.219 111.702 183.338 113.239 184.178 114.403L184.918 115.427L188.241 140.732L188.369 166.325L188.28 166.045C185.704 157.842 185.403 149.093 187.41 140.732L187.116 140.017C183.976 132.375 182.822 124.062 183.759 115.854C181.663 114.105 181.288 111.028 182.902 108.826L183.24 108.366C182.137 106.279 181.743 103.889 182.119 101.559L182.33 100.25Z" fill="#468097"/>
<path d="M162.297 153.509L166.713 145.572L153.958 139.614L162.297 153.509Z" fill="#EBA58E"/>
<path d="M153.958 139.614L166.713 145.572L164.659 149.263L153.958 139.614Z" fill="#422C4F"/>
<path d="M147.695 125.875L152.682 126.322L147.077 148.444C146.063 152.447 148.246 156.566 152.128 157.974C157.466 159.911 163.074 155.853 162.903 150.177L162.14 124.725C164.081 120.997 164.928 116.797 164.583 112.609L164.477 111.316C164.409 110.49 163.871 109.777 163.096 109.483L162.336 109.196C161.746 108.974 161.087 109.021 160.535 109.327L156.741 111.433L156.916 111.761C157.688 113.207 159.37 113.911 160.942 113.446L157.603 116.545L147.695 125.875Z" fill="#F2C9AD"/>
<path d="M160.552 121.342L151.213 102.947C150.821 102.174 150.028 101.688 149.162 101.688H139.618C139.355 101.688 139.139 101.818 139.003 102.004L139.001 102.003L137.941 103.427H139.251L148.273 121.197C148.665 121.97 149.458 122.456 150.324 122.456H158.909L159.499 123.465L160.522 122.091C160.654 121.876 160.681 121.597 160.552 121.342Z" fill="#422C4F"/>
<path d="M158.846 123.83H149.302C148.436 123.83 147.643 123.343 147.251 122.571L137.912 104.175C137.653 103.665 138.023 103.061 138.595 103.061H148.139C149.006 103.061 149.799 103.548 150.191 104.32L159.53 122.716C159.789 123.226 159.418 123.83 158.846 123.83Z" fill="#454F6B"/>
<path d="M142.757 103.828H139.22C138.934 103.828 138.749 104.13 138.878 104.385L140.686 107.946C140.816 108.204 141.08 108.366 141.369 108.366H144.907C145.193 108.366 145.378 108.064 145.249 107.809L143.441 104.248C143.31 103.991 143.046 103.828 142.757 103.828Z" fill="#422C4F"/>
<path d="M142.444 119.019L148.555 114.795C149.111 114.412 149.875 114.579 150.219 115.161L152.975 119.825C153.189 120.187 153.191 120.636 152.98 121L151.392 123.743C150.629 125.062 149.22 125.874 147.695 125.874C147.228 125.874 146.793 125.639 146.536 125.249L142.444 119.019Z" fill="#F2C9AD"/>
<path d="M144.667 117.483L144.49 117.133L142.444 119.019L144.667 117.483Z" fill="#EBA58E"/>
<path d="M140.177 115.46L144.515 112.752C145.311 112.255 146.361 112.539 146.799 113.369C147.141 114.017 147.004 114.814 146.465 115.31L142.445 119.019C142.124 119.315 141.611 119.238 141.391 118.861L139.948 116.382C139.762 116.064 139.863 115.655 140.177 115.46Z" fill="#F2C9AD"/>
<path d="M177.01 91.6865L178.113 96.5433L182.33 100.25L190.51 90.1532L188.018 80.167L177.01 91.6865Z" fill="#F2C9AD"/>
<path d="M187.104 85.5936C187.355 84.0146 187.417 82.4182 187.396 80.8181L177.01 91.6867L177.967 95.901C179.959 95.7465 181.92 94.8123 183.375 93.413C185.494 91.3756 186.643 88.4963 187.104 85.5936Z" fill="#422C4F"/>
<path d="M182.33 100.25L189.088 107.471L194.152 93.9871L190.51 90.1531L182.33 100.25Z" fill="#94C7D3"/>
<path d="M178.113 96.5432L177.01 99.8663L178.113 108.365L182.33 100.25L178.113 96.5432Z" fill="#94C7D3"/>
<path d="M161.056 80.2567C159.013 79.0673 157.432 77.106 156.702 74.857C155.973 72.6081 156.236 70.029 157.193 67.867C153.92 66.9292 151.328 63.9517 150.851 60.5804C150.373 57.2092 152.036 53.6293 154.92 51.8192C154.756 52.3448 154.901 53.1859 155.231 53.6264C155.561 54.067 156.04 54.3749 156.54 54.6055C158.294 55.4158 160.346 55.3527 162.218 54.8741C164.09 54.3955 165.837 53.5301 167.609 52.7594C169.381 51.9888 171.231 51.2998 173.162 51.2084C176.436 51.0534 179.735 52.7809 181.473 55.5606C183.63 55.0634 186.246 55.8171 187.934 57.2493C189.802 58.8339 190.728 61.2605 191.292 63.6442C192.578 69.0839 192.334 74.8773 190.594 80.1896C189.907 82.2872 186.933 82.5583 184.749 82.8803C176.975 84.0281 167.848 84.2109 161.056 80.2567Z" fill="#6A3649"/>
<path d="M154.202 55.3883C154.762 56.587 155.977 57.3941 157.266 57.6959C158.554 57.9981 159.909 57.848 161.194 57.5309C163.509 56.9588 165.653 55.8624 167.821 54.8672C169.988 53.872 172.247 52.9597 174.626 52.7963C177.005 52.6328 179.888 53.7798 181.474 55.5606C179.736 52.7809 176.437 51.0534 173.162 51.2084C171.231 51.2998 169.382 51.9888 167.609 52.7594C165.837 53.5301 164.091 54.3955 162.219 54.8741C160.346 55.3527 158.295 55.4158 156.54 54.6055C156.04 54.3749 155.562 54.067 155.231 53.6264C154.901 53.1859 154.756 52.3444 154.921 51.8192C153.886 52.6437 153.642 54.1896 154.202 55.3883Z" fill="#8E5A61"/>
<path d="M184.245 80.6158C183.5 80.3504 182.964 79.6934 182.855 78.9106L182.391 75.5892C182.272 74.7392 181.766 73.9923 181.021 73.5667L180.354 73.1857C179.552 72.7273 179.031 71.8996 178.965 70.9784L178.368 62.6755C172.591 65.9816 166.023 67.8305 159.377 68.0534C158.34 70.5718 158.032 73.4199 158.662 76.281L160.389 84.1238C162.032 91.5864 169.413 96.304 176.876 94.661C183.129 93.2843 187.452 87.8781 187.723 81.7717L184.245 80.6158Z" fill="#F2C9AD"/>
<path d="M172.842 72.0869C171.087 72.2419 169.606 73.2193 168.733 74.6021L177.327 73.8435C176.225 72.6351 174.597 71.932 172.842 72.0869Z" fill="#6A3649"/>
<path d="M172.468 77.2034C171.899 77.2034 171.438 77.6642 171.438 78.233V78.6533C171.438 79.2221 171.899 79.6829 172.468 79.6829C173.036 79.6829 173.497 79.2221 173.497 78.6533V78.233C173.497 77.6642 173.036 77.2034 172.468 77.2034Z" fill="#422C4F"/>
<path d="M160.899 73.833C159.637 74.1526 158.726 75.253 158.336 76.6941L164.514 75.1293C163.485 74.0479 162.16 73.5134 160.899 73.833Z" fill="#6A3649"/>
<path d="M162.069 79.0843C161.572 79.1644 161.235 79.632 161.315 80.1288L161.375 80.4958C161.455 80.9926 161.922 81.3304 162.419 81.2499C162.916 81.1698 163.254 80.7021 163.173 80.2053L163.114 79.8384C163.034 79.342 162.566 79.0042 162.069 79.0843Z" fill="#422C4F"/>
<path d="M169.337 85.2012C167.946 85.384 166.555 85.5673 165.164 85.7502C165.431 86.692 166.373 87.4821 167.348 87.3931C168.323 87.3041 169.244 86.1758 169.337 85.2012Z" fill="#EBA58E"/>
<path d="M176.979 86.1311C174.391 87.3691 171.694 88.3805 168.93 89.1504C169.59 90.2823 170.795 91.195 172.094 91.3637C173.394 91.5324 174.761 91.0672 175.688 90.1411C176.614 89.2151 177.147 87.4306 176.979 86.1311Z" fill="white"/>
<path d="M189.088 83.2193C191.726 83.2193 193.864 81.0808 193.864 78.4427C193.864 75.8046 191.726 73.666 189.088 73.666C186.45 73.666 184.311 75.8046 184.311 78.4427C184.311 81.0808 186.45 83.2193 189.088 83.2193Z" fill="#F2C9AD"/>
<path d="M189.088 81.1021C190.557 81.1021 191.747 79.9115 191.747 78.4429C191.747 76.9743 190.557 75.7837 189.088 75.7837C187.619 75.7837 186.429 76.9743 186.429 78.4429C186.429 79.9115 187.619 81.1021 189.088 81.1021Z" fill="#EBA58E"/>
<path d="M213.569 101.807C215.796 102.559 217.56 104.285 218.36 106.495L229.683 137.761L212.429 145.429L207.253 118.207L207.483 116.522C208.211 111.175 210.308 106.106 213.569 101.807Z" fill="#6CA8BF"/>
<path d="M214.234 144.627L215.687 149.648L188.369 163.834L175.503 159.107C174.775 158.84 173.958 159.078 173.488 159.695L169.898 164.403C169.092 165.46 169.308 166.973 170.379 167.761L172.074 169.01C171.325 170.561 171.939 172.426 173.462 173.23L179.662 176.499C180.626 177.007 181.808 176.844 182.599 176.093L185.11 173.707L186.29 173.756C188.463 173.847 190.568 172.99 192.06 171.406L225.043 162.143C230.182 160.699 233.152 155.337 231.649 150.215L228.188 138.426L214.234 144.627Z" fill="#F2C9AD"/>
<path d="M172.074 169.009L175.621 162.779L173.142 165.056C172.5 165.646 172.294 166.573 172.625 167.379L172.074 169.009Z" fill="#EBA58E"/>
<path d="M228.188 138.425L214.234 144.627L215.361 148.517L228.569 139.723L228.188 138.425Z" fill="#422C4F"/>
</svg>
