<svg width="27" height="26" viewBox="0 0 27 26" fill="none" xmlns="http://www.w3.org/2000/svg">
<path d="M17.5928 8.89194C17.0804 8.85186 16.5311 8.97428 15.6883 9.29603C15.7587 9.26894 14.8845 9.61019 14.6386 9.69686C14.0947 9.88644 13.6473 9.99044 13.1457 9.99044C12.6496 9.99044 12.1924 9.89078 11.667 9.71419C11.483 9.6515 11.3006 9.58431 11.1199 9.51269L10.6335 9.32094C9.93148 9.04578 9.53714 8.94178 9.20889 8.95044C7.95981 8.96561 6.77898 9.68711 6.09214 10.8809C4.69248 13.3109 5.46814 17.7049 7.51456 20.6645C8.60331 22.2289 9.20023 22.7879 9.43964 22.7803C9.68014 22.7694 9.85781 22.7185 10.289 22.5365L10.4688 22.4596C11.5586 21.9949 12.3213 21.7901 13.4707 21.7901C14.5768 21.7901 15.3156 21.9916 16.3621 22.4423L16.5441 22.5203C16.9742 22.7044 17.1291 22.7456 17.4021 22.7391C17.7889 22.7337 18.2666 22.2874 19.3272 20.7306C19.6176 20.307 19.8743 19.8607 20.0964 19.4089C19.9506 19.289 19.8093 19.1636 19.6728 19.033C18.2753 17.7027 17.4119 15.9087 17.3881 13.6922C17.3655 12.0521 17.9049 10.4538 18.9166 9.16278C18.4921 9.00562 18.046 8.91429 17.5939 8.89194M17.7618 6.73178C18.5288 6.78378 20.7258 7.01778 22.1558 9.11078C22.0388 9.17578 19.5298 10.6318 19.5558 13.6738C19.5948 17.3138 22.7408 18.5228 22.7798 18.5358C22.7538 18.6268 22.2728 20.2648 21.1158 21.9548C20.1148 23.4238 19.0748 24.8798 17.4368 24.9058C15.8248 24.9448 15.3048 23.9568 13.4718 23.9568C11.6258 23.9568 11.0538 24.8798 9.53281 24.9448C7.94681 24.9968 6.75081 23.3588 5.73681 21.9028C3.66981 18.9128 2.09681 13.4788 4.21581 9.79978C5.26881 7.96678 7.14081 6.80978 9.18181 6.78378C10.7288 6.74478 12.1978 7.82378 13.1468 7.82378C14.0828 7.82378 15.7598 6.57578 17.7618 6.73178ZM16.5268 4.75578C15.6818 5.76978 14.3038 6.56278 12.9648 6.45878C12.7828 5.08078 13.4588 3.63778 14.2388 2.74078C15.1098 1.72678 16.5658 0.972776 17.7748 0.920776C17.9308 2.32478 17.3718 3.74178 16.5268 4.75578Z" fill="#2C2C2C"/>
</svg>
