<svg width="272" height="72" viewBox="0 0 272 72" fill="none" xmlns="http://www.w3.org/2000/svg">
<path d="M85.7116 19.4248C85.7116 22.5904 85.7116 25.7561 85.7116 28.9262C85.7116 31.9051 85.3277 35.1446 85.7974 38.0888C86.0187 39.4785 86.5788 40.8594 87.6267 41.8408C88.4848 42.6485 89.623 43.1392 90.7929 43.3867C92.9067 43.834 95.2147 43.4909 97.0213 42.3402C100.201 40.3209 100.278 37.1422 100.278 33.907V19.4248H110.102V49.9613C110.102 53.8174 110.115 58.3119 108.187 61.3603C106.258 64.4088 102.622 66.9014 98.9274 67.7873C89.072 70.1452 75.8833 67.1402 76.5654 55.2461H86.3891C85.5851 62.0204 97.6221 62.1681 99.7584 56.8919C100.562 54.903 100.278 52.7101 100.278 50.63C100.278 50.2392 100.477 45.2236 100.278 45.1498C99.6455 44.9153 99.7268 46.3874 99.5191 47.1907C97.8479 53.6567 86.1226 53.3658 81.4117 50.4259C77.3377 47.8855 75.9059 43.0133 75.8879 38.5796C75.8743 35.0317 75.8879 31.4882 75.8879 27.9404C75.8879 27.4323 75.8879 19.4204 75.8879 19.4204H85.7116V19.4248Z" fill="black"/>
<path d="M220.195 3.46582V36.686L232.562 19.4245H243.23L232.792 34.2455L246.617 51.6677H235.606L227.638 41.5713L220.19 51.6677H210.367V3.95218C210.367 3.8523 210.38 3.73071 210.38 3.46582H220.19H220.195Z" fill="black"/>
<path d="M173.109 51.6677H163.285V45.154C162.558 44.9542 162.743 46.2787 162.45 47.1168C160.625 52.3538 152.811 53.0399 148.037 51.8371C134.975 48.5455 134.266 27.3714 145.232 21.1182C155.941 15.0126 173.109 20.7881 173.109 33.9155V51.6677ZM153.71 27.645C144.839 29.0085 145.282 43.8555 155.643 43.5342C166.433 43.1998 165.602 25.8168 153.71 27.645Z" fill="black"/>
<path d="M71.8226 51.6678H61.9989V45.154C61.3575 44.8587 61.4569 46.2787 61.1633 47.1168C59.6592 51.4289 54.1941 52.5623 49.9574 52.3322C38.2548 51.6895 34.402 39.6824 37.0985 30.168C42.0849 12.5678 71.8226 15.9984 71.8226 34.567V51.6678ZM52.4326 27.6494C44.6413 28.722 43.9412 40.8462 51.1498 43.0435C55.4045 44.342 60.3187 42.7048 61.5111 38.3319C63.2003 32.1525 59.4831 26.681 52.4326 27.6494Z" fill="black"/>
<path d="M31.1726 20.4016V28.5438C29.3117 27.9706 26.9585 27.3931 24.8041 27.0109C22.0625 26.5246 16.2947 25.617 13.9867 27.1368C13.4898 27.4625 13.2821 27.7057 13.1917 28.3441C13.115 29.3298 14.1222 29.9421 14.899 30.3503C20.2874 33.1946 30.8971 32.0873 32.3785 40.2512C34.9305 54.3123 13.6299 53.6565 4.75009 50.6906V42.5484C6.90454 43.2736 8.96414 43.6905 11.1186 44.0813C12.713 44.3723 18.2504 45.2017 21.0598 44.2854C22.1438 43.9337 22.74 42.809 22.478 41.7407C22.4645 41.6842 22.4464 41.6278 22.4103 41.5757C21.2766 39.7953 12.0355 38.271 9.49711 37.1724C4.98496 35.2269 2.88922 32.2784 3.39961 27.4104C4.56039 16.3501 23.4536 18.061 31.1726 20.406V20.4016Z" fill="black"/>
<path d="M204.613 20.4017V28.5439C202.964 27.8925 200.408 27.4062 198.24 27.0197C195.805 26.5898 187.639 25.2566 186.799 28.2095C186.474 29.3473 187.77 30.0204 188.624 30.4025C193.863 32.7257 204.274 32.4218 205.819 39.5999C208.971 54.2211 187.522 54.1082 178.353 50.3737L178.186 42.4052C180.449 43.113 182.612 43.6775 184.902 44.0771C187.517 44.533 193.488 45.4536 195.598 43.8208C196.415 43.1868 196.343 42.2315 195.823 41.389C194.897 39.8909 186.478 38.4578 184.197 37.5893C180.015 35.9956 176.79 33.3771 176.808 28.7133C176.853 16.5412 196.442 17.7701 204.613 20.406V20.4017Z" fill="black"/>
<path d="M123.99 12.5852L124.09 19.7417L124.501 19.7503H134.492V28.2182L123.968 28.418C124.216 33.1513 123.724 39.2048 129.072 41.4064C130.774 42.1056 132.649 42.3401 134.487 42.2228V51.6678C134.487 51.9891 128.426 51.1684 127.866 51.0381C125.883 50.5821 123.968 49.8439 122.256 48.767C117.952 46.0616 115.734 41.8277 114.867 37.0856C114.42 34.6451 114.501 31.5012 114.501 29.0346V13.5362C114.501 13.4884 114.501 12.5852 114.501 12.5852H123.986H123.99Z" fill="black"/>
<path d="M257.941 51.4768C263.871 51.4768 268.677 46.8554 268.677 41.1547C268.677 35.4539 263.871 30.8325 257.941 30.8325C252.012 30.8325 247.205 35.4539 247.205 41.1547C247.205 46.8554 252.012 51.4768 257.941 51.4768Z" fill="#33AF5B"/>
<path d="M261.654 43.2606C261.816 43.0044 261.74 42.6961 261.473 42.5398C261.207 42.3834 260.908 42.4703 260.746 42.7265C259.806 44.1943 257.806 44.6546 256.283 43.7513C254.761 42.8481 254.278 40.9243 255.217 39.4609C255.38 39.2047 255.303 38.8964 255.037 38.7401C254.77 38.5837 254.45 38.6576 254.287 38.9138C253.131 40.7202 253.596 43.0478 255.249 44.3202L254.472 45.5317C254.31 45.788 254.386 46.0963 254.653 46.2526C254.919 46.4089 255.24 46.3351 255.403 46.0789L256.18 44.8673C258.167 45.7185 260.511 45.0541 261.654 43.2693V43.2606Z" fill="white"/>
<path d="M256.817 42.7744L256.97 42.8656C257.923 43.4257 259.147 43.1261 259.721 42.2359L261.952 38.7489C262.535 37.8326 262.223 36.6558 261.297 36.1043L261.144 36.0131C260.191 35.4529 258.967 35.7525 258.393 36.6427L256.175 40.1081C255.57 41.0113 255.868 42.2098 256.817 42.7744Z" fill="white"/>
</svg>
