<svg width="275" height="60" viewBox="0 0 271 71" fill="none" xmlns="http://www.w3.org/2000/svg">
<path d="M85.2116 18.9248C85.2116 22.0904 85.2116 25.2561 85.2116 28.4262C85.2116 31.4051 84.8277 34.6446 85.2974 37.5889C85.5187 38.9785 86.0788 40.3594 87.1267 41.3408C87.9848 42.1485 89.123 42.6392 90.2929 42.8867C92.4067 43.334 94.7147 42.9909 96.5213 41.8402C99.7011 39.8209 99.7779 36.6422 99.7779 33.407V18.9248H109.602V49.4613C109.602 53.3174 109.615 57.8119 107.687 60.8603C105.758 63.9088 102.122 66.4014 98.4274 67.2873C88.572 69.6452 75.3833 66.6402 76.0654 54.7461H85.8891C85.0851 61.5204 97.1221 61.6681 99.2584 56.3919C100.062 54.403 99.7779 52.2101 99.7779 50.13C99.7779 49.7392 99.9766 44.7236 99.7779 44.6498C99.1455 44.4153 99.2268 45.8874 99.0191 46.6907C97.3479 53.1567 85.6226 52.8658 80.9117 49.9259C76.8377 47.3855 75.4059 42.5133 75.3879 38.0796C75.3743 34.5317 75.3879 30.9882 75.3879 27.4404C75.3879 26.9323 75.3879 18.9204 75.3879 18.9204H85.2116V18.9248Z" fill="black"/>
<path d="M219.695 2.96582V36.186L232.062 18.9245H242.73L232.292 33.7455L246.117 51.1677H235.106L227.138 41.0713L219.69 51.1677H209.867V3.45218C209.867 3.3523 209.88 3.23071 209.88 2.96582H219.69H219.695Z" fill="black"/>
<path d="M172.609 51.1677H162.785V44.654C162.058 44.4542 162.243 45.7787 161.95 46.6168C160.125 51.8538 152.311 52.5399 147.537 51.3371C134.475 48.0455 133.766 26.8714 144.732 20.6182C155.441 14.5126 172.609 20.2881 172.609 33.4155V51.1677ZM153.21 27.145C144.339 28.5085 144.782 43.3555 155.143 43.0342C165.933 42.6998 165.102 25.3168 153.21 27.145Z" fill="black"/>
<path d="M71.3226 51.1678H61.4989V44.654C60.8575 44.3587 60.9569 45.7787 60.6633 46.6168C59.1592 50.9289 53.6941 52.0623 49.4574 51.8322C37.7548 51.1895 33.902 39.1824 36.5985 29.668C41.5849 12.0678 71.3226 15.4984 71.3226 34.067V51.1678ZM51.9326 27.1494C44.1413 28.222 43.4412 40.3462 50.6498 42.5435C54.9045 43.842 59.8187 42.2048 61.0111 37.8319C62.7003 31.6525 58.9831 26.181 51.9326 27.1494Z" fill="black"/>
<path d="M30.6726 19.9016V28.0438C28.8117 27.4706 26.4585 26.8931 24.3041 26.5109C21.5625 26.0246 15.7947 25.117 13.4867 26.6368C12.9898 26.9625 12.7821 27.2057 12.6917 27.8441C12.615 28.8298 13.6222 29.4421 14.399 29.8503C19.7874 32.6946 30.3971 31.5873 31.8785 39.7512C34.4305 53.8123 13.1299 53.1565 4.25009 50.1906V42.0484C6.40454 42.7736 8.46414 43.1905 10.6186 43.5813C12.213 43.8723 17.7504 44.7017 20.5598 43.7854C21.6438 43.4337 22.24 42.309 21.978 41.2407C21.9645 41.1842 21.9464 41.1278 21.9103 41.0757C20.7766 39.2953 11.5355 37.771 8.99711 36.6724C4.48496 34.7269 2.38922 31.7784 2.89961 26.9104C4.06039 15.8501 22.9536 17.561 30.6726 19.906V19.9016Z" fill="black"/>
<path d="M204.113 19.9017V28.0439C202.464 27.3925 199.908 26.9062 197.74 26.5197C195.305 26.0898 187.139 24.7566 186.299 27.7095C185.974 28.8473 187.27 29.5204 188.124 29.9025C193.363 32.2257 203.774 31.9218 205.319 39.0999C208.471 53.7211 187.022 53.6082 177.853 49.8737L177.686 41.9052C179.949 42.613 182.112 43.1775 184.402 43.5771C187.017 44.033 192.988 44.9536 195.098 43.3208C195.915 42.6868 195.843 41.7315 195.323 40.889C194.397 39.3909 185.978 37.9578 183.697 37.0893C179.515 35.4956 176.29 32.8771 176.308 28.2133C176.353 16.0412 195.942 17.2701 204.113 19.906V19.9017Z" fill="black"/>
<path d="M123.49 12.0852L123.59 19.2417L124.001 19.2503H133.992V27.7182L123.468 27.918C123.716 32.6513 123.224 38.7048 128.572 40.9064C130.274 41.6056 132.149 41.8401 133.987 41.7228V51.1678C133.987 51.4891 127.926 50.6684 127.366 50.5381C125.383 50.0821 123.468 49.3439 121.756 48.267C117.452 45.5616 115.234 41.3277 114.367 36.5856C113.92 34.1451 114.001 31.0012 114.001 28.5346V13.0362C114.001 12.9884 114.001 12.0852 114.001 12.0852H123.486H123.49Z" fill="black"/>
</svg>
